<?xml version="1.0" encoding="utf-8"?>
<!-- Generator: Adobe Illustrator 19.2.1, SVG Export Plug-In . SVG Version: 6.00 Build 0)  -->
<svg version="1.1" id="Layer_1" xmlns="http://www.w3.org/2000/svg" xmlns:xlink="http://www.w3.org/1999/xlink" x="0px" y="0px"
	 viewBox="0 0 50 50" style="enable-background:new 0 0 50 50;" xml:space="preserve">
<style type="text/css">
	.st0{fill:#E2D4C3;}
	.st1{fill:#C39B59;}
	.st2{fill:#CC3E27;}
	.st3{fill:#FFFFFF;}
	.st4{fill:#3C43B6;}
	.st5{fill:#302B27;}
	.st6{fill:#453F43;}
	.st7{fill:#CAB397;}
	.st8{fill:#CB9780;}
	.st9{fill:#DDA588;}
	.st10{fill:#29372D;}
	.st11{fill:none;stroke:#FFFFFF;stroke-miterlimit:10;}
	.st12{fill:#FFFFFF;stroke:#941707;stroke-miterlimit:10;}
	.st13{fill:none;stroke:#921506;stroke-miterlimit:10;}
</style>
<rect x="8.7" y="12.9" class="st0" width="32.2" height="8.8"/>
<path class="st1" d="M11.4,21.3c0,0-1.5,0.3-2,1.8h30.8c0,0-0.8-1.3-2.7-1.5L11.4,21.3z"/>
<polygon class="st2" points="15.4,3.7 15.4,2.6 23.5,2.6 22.8,1.5 26.8,1.5 26.1,2.6 34.2,2.6 34.8,3.3 34.2,3.7 34.2,5.1 34.8,5.9 
	33.5,7.4 22.8,8.1 16.1,7.4 14.1,5.5 "/>
<path class="st3" d="M10.7,10.7L9.4,11v1.1l1.3,0.7c0,0,12.6,0.9,27.5,0l1.3-0.7V11l-2-0.4H10.7z"/>
<path class="st1" d="M10.7,10.7l-0.7-3.3L8.7,7c0,0,1.8-0.6,0-1.1V4.4L8,3.3h3.4v1.1l-0.7,0.4l0.7,1.5h0.7V3.7l2-1.1l1.3,1.1v0.7
	l-1.3,0.7l3.4,2.2h3.4l2.7-1.8l-0.7-0.7V4l2-0.7L26.1,4v0.7l-0.7,0.4l3.4,2.2h2.7l3.4-1.5l-0.7-0.7l-0.7-0.7l0.7-0.7h2.7v1.1v0.7
	l1.3,0.7V4.4h-0.7V3.7l0.7-0.4h2.7l0.7,0.4v0.7l-0.7,0.4v0.7h-0.7l-0.7,1.8l-2,3.3H10.7z"/>
<path class="st4" d="M8.7,7c0,0,1.6-0.7,0-1.1C8.7,5.9,7.5,6.2,8.7,7z"/>
<path class="st4" d="M14.1,5.9h-1.3c0,0-1.7,1.6,1.3,2.2l0.7-0.4V6.3L14.1,5.9z"/>
<ellipse class="st4" cx="24.8" cy="7" rx="1.3" ry="0.7"/>
<polygon class="st4" points="36.2,8.1 34.8,8.1 34.2,7.4 34.2,6.6 35.5,6.3 36.9,6.3 36.9,7 "/>
<path class="st4" d="M39.5,7.4h1.3V6.3C40.9,6.3,39.4,6.3,39.5,7.4z"/>
<polygon class="st1" points="26.8,1.5 22.8,1.5 22.8,0.4 23.5,0 26.8,0 27.5,0.4 27.5,1.5 "/>
<path class="st3" d="M9.4,12.1c0,0-4.9,1.9-6,5.9c0,0,4.2-2.7,4.7,7c0,0,1.3-3.9,3.4-3.7c0,0-2.8-1.5-2-5.1s2.7-3.3,2.7-3.3
	L9.4,12.1z"/>
<path class="st3" d="M36.9,12.9c0,0,5.9,4.1,0.7,8.8c0,0,4.1,1.4,4.7,2.9V21h2v-0.7h1.3c0,0,0.9-7.5-6-8.1L36.9,12.9z"/>
<polygon class="st5" points="20.1,15.8 20.1,14.3 17.4,14.3 14.7,15.1 14.7,15.4 18.1,15.8 "/>
<ellipse class="st3" cx="16.1" cy="16.5" rx="2.7" ry="1.5"/>
<ellipse class="st6" cx="16.1" cy="16.5" rx="1.3" ry="0.7"/>
<polygon class="st5" points="27.5,15.8 27.5,14.3 30.2,14.3 32.8,15.1 32.8,15.4 29.5,15.8 "/>
<ellipse class="st3" cx="31.5" cy="16.5" rx="2.7" ry="1.5"/>
<ellipse class="st6" cx="31.5" cy="16.5" rx="1.3" ry="0.7"/>
<polygon class="st7" points="22.8,16.2 22.8,18.4 24.8,18.4 24.8,20.2 25.5,20.2 25.5,16.2 "/>
<rect x="22.8" y="18.4" class="st8" width="2" height="1.8"/>
<ellipse class="st9" cx="13.4" cy="18.8" rx="2" ry="1.1"/>
<ellipse class="st9" cx="34.2" cy="19.1" rx="2" ry="1.1"/>
<path class="st2" d="M12.1,30.2c0,0-4.9-1.8-2.7-7h30.8c0,0,1.3,5.1-2,7C38.2,30.2,26.5,31.9,12.1,30.2z"/>
<path class="st5" d="M10.7,29.8v2.6c0,0,19.7,1.3,27.5-0.4v-1.8C38.2,30.2,22,32,10.7,29.8z"/>
<path class="st2" d="M10.7,32.4c0,0-2,0.6-1.3,5.9c0,0,13.7,2.2,30.8-0.4c0,0,1.3-5.2-2-5.9C38.2,32,30.1,34.1,10.7,32.4z"/>
<path class="st3" d="M20.1,23.5c0,0-4.1,1.8-1.3,10.7l2.7-0.4l0.7,1.1l3.4-1.1l2,0.7l0.7-3.7l0.7-4.4l-0.7-2.2v-0.7H20.1z"/>
<path class="st1" d="M10.7,38.6l0.7,2.9h10.7l1.3-2.2C23.5,39.3,11.2,39,10.7,38.6z"/>
<path class="st10" d="M11.4,41.5c0,0-1.2,0.4,0,1.5c0,0,9.9,0.6,10.7,0c0,0,1.7-1.3,0-1.5C22.1,41.5,14.4,42,11.4,41.5z"/>
<path class="st5" d="M11.4,43h-0.7l0.7,1.5l0.7,2.9l0.7,2.2h9.4V46h0.7V43h-0.7C22.1,43,16.5,43.7,11.4,43z"/>
<path class="st1" d="M38.2,38.6l-0.7,2.9H26.8l-1.3-2.2C25.5,39.3,37.7,39,38.2,38.6z"/>
<path class="st10" d="M37.5,41.5c0,0,1.2,0.4,0,1.5c0,0-9.9,0.6-10.7,0c0,0-1.7-1.3,0-1.5C26.8,41.5,34.5,42,37.5,41.5z"/>
<path class="st5" d="M37.5,43h0.7l-0.7,1.5l-0.7,2.9l-0.7,2.2h-9.4V46h-0.7V43h0.7C26.8,43,32.4,43.7,37.5,43z"/>
<path class="st2" d="M6.7,18.8c0,0-1.2-2-4-0.7C-0.2,19.3,0,25.4,0,25.4h0.7v5.1c0,0,4.4,0.7,6.7,0L8,25L6.7,18.8z"/>
<polygon class="st1" points="1.3,25.4 1.3,23.9 2.7,23.5 6.7,23.5 7.4,23.9 7.4,26.1 2.7,26.1 "/>
<path class="st11" d="M-3.5,27.2"/>
<path class="st0" d="M0.7,30.5v3.3c0,0,4.7,2.9,8-0.4c0,0,0.9-2.5-1.3-2.9H0.7z"/>
<path class="st2" d="M42.2,21.9c0,0,2-2.3,4.9-0.8c2.8,1.4,2.7,8.4,2.7,8.4h-0.7v5.9c0,0-4.4,0.8-6.7,0L41.7,29L42.2,21.9z"/>
<polygon class="st1" points="48.4,30.2 48.4,28.7 47.1,28.4 43.1,28.4 42.4,28.7 42.4,30.9 47.1,30.9 "/>
<path class="st0" d="M49.1,35.3v3.3c0,0-4.7,2.9-8-0.4c0,0-0.9-2.5,1.3-2.9H49.1z"/>
<path class="st1" d="M4,35.3l1.3,9.2h-2l-0.7,0.7L3.4,46c0,0-1.3,3.1,2.7,2.9s2.7-3.3,2.7-3.3h0.7v-1.1H6.7L6,34.9L4,35.3z"/>
<path class="st5" d="M22.1,21v-1.1c0,0-2.3-0.8-4,0c-1.8,0.8-5.4-0.4-5.4-0.4S16.8,22.4,22.1,21z"/>
<path class="st5" d="M25.5,21v-1.1c0,0,2.3-0.8,4,0c1.8,0.8,5.4-0.4,5.4-0.4S30.8,22.4,25.5,21z"/>
<polygon class="st12" points="20.8,21.3 27.5,21.3 27.5,21.7 27.5,23.5 20.1,23.5 20.1,22.8 20.8,22.8 "/>
<line class="st13" x1="20.8" y1="22.1" x2="28.1" y2="22.1"/>
</svg>
