<?xml version="1.0" encoding="utf-8"?>
<!-- Generator: Adobe Illustrator 19.2.1, SVG Export Plug-In . SVG Version: 6.00 Build 0)  -->
<svg version="1.1" id="Layer_1" xmlns="http://www.w3.org/2000/svg" xmlns:xlink="http://www.w3.org/1999/xlink" x="0px" y="0px"
	 viewBox="0 0 399.9 50" style="enable-background:new 0 0 399.9 50;" xml:space="preserve">
<style type="text/css">
	.st0{fill:#902700;stroke:#303030;stroke-width:0.1004;stroke-miterlimit:10;}
	.st1{fill:#183341;stroke:#303030;stroke-width:0.1004;stroke-miterlimit:10;}
	.st2{fill:#FEB028;stroke:#303030;stroke-width:0.1004;stroke-miterlimit:10;}
	.st3{fill:#EA9250;stroke:#303030;stroke-width:0.1004;stroke-miterlimit:10;}
	.st4{fill:#902700;stroke:#303030;stroke-width:9.884335e-02;stroke-miterlimit:10;}
	.st5{fill:#FFFFFF;stroke:#303030;stroke-width:0.1004;stroke-miterlimit:10;}
	.st6{fill:#BB0D0F;stroke:#303030;stroke-width:0.1004;stroke-miterlimit:10;}
	.st7{fill:none;stroke:#303030;stroke-width:0.3013;stroke-miterlimit:10;}
	.st8{fill:#EA982D;stroke:#303030;stroke-width:0.1004;stroke-miterlimit:10;}
	.st9{fill:#902700;stroke:#303030;stroke-width:0.1014;stroke-miterlimit:10;}
	.st10{fill:#183341;stroke:#303030;stroke-width:0.1014;stroke-miterlimit:10;}
	.st11{fill:#FEB028;stroke:#303030;stroke-width:0.1014;stroke-miterlimit:10;}
	.st12{fill:#EA9250;stroke:#303030;stroke-width:0.1014;stroke-miterlimit:10;}
	.st13{fill:#902700;stroke:#303030;stroke-width:9.984347e-02;stroke-miterlimit:10;}
	.st14{fill:#FFFFFF;stroke:#303030;stroke-width:0.1014;stroke-miterlimit:10;}
	.st15{fill:#BB0D0F;stroke:#303030;stroke-width:0.1014;stroke-miterlimit:10;}
	.st16{fill:none;stroke:#303030;stroke-width:0.3043;stroke-miterlimit:10;}
	.st17{fill:#EA982D;stroke:#303030;stroke-width:0.1014;stroke-miterlimit:10;}
	.st18{fill:#902700;stroke:#303030;stroke-width:9.778979e-02;stroke-miterlimit:10;}
	.st19{fill:#EA982D;stroke:#303030;stroke-width:9.732883e-02;stroke-miterlimit:10;}
	.st20{fill:#183341;stroke:#303030;stroke-width:3.741861e-02;stroke-miterlimit:10;}
	.st21{fill:none;stroke:#303030;stroke-width:0.2894;stroke-miterlimit:10;}
	.st22{fill:#902700;stroke:#303030;stroke-width:9.704877e-02;stroke-miterlimit:10;}
	.st23{fill:#902700;stroke:#303030;stroke-width:9.873430e-02;stroke-miterlimit:10;}
</style>
<path class="st0" d="M9.7,23.1l-2.2,1.8c0,0-5-1.3-6.5,0.5l-0.7,0.7c-0.5,0.5-0.2,1.4,0.6,1.7c2.7,1,9.1,3.4,11.8,3.1"/>
<path class="st1" d="M19.2,7.8c0-0.3,0.1-0.5,0.1-0.7c0-0.4,0.8-2.2,0.8-2.5s-0.5-1.3-4.2-1.9s-3.9-0.1-4.1,0.1s-0.3,1.9-0.5,2.4
	s-0.8,1.9-0.8,1.9c-0.2,0.6,2.2,1.4,2.2,1.4s1.7-4.6,4.5-4.3L19.2,7.8z"/>
<path class="st0" d="M17.9,43.8c0,0-3.7-1.7-4,0c-0.3,1.7,0.7,2,0.7,2l2,0.2l6.7,0.9l-2-1.7L17.9,43.8z"/>
<path class="st2" d="M33.7,45.5c0,0,11.3-6.3,6.2-18.2s-13.1-9.5-13.1-9.5s-2.4-0.8-7.2-6.8c0,0-0.2-6.3-2.5-6.8s-4.5,4.3-4.5,4.3
	s-1-0.4-2.6-0.3c-2.1,0.2-5.2,1.4-8.5,5.7c0,0,0.6,3.4-0.2,3.6c0,0,0.5,2.8,2.7,3c2.3,0.2,0.3,0.6,0.3,0.6S4,22.7,6.7,22.2
	c2.7-0.5,3.2,2.2,3.2,2.2s1.6,10.1,6.1,10.8c0,0-0.7,7,2.9,10.5l5.5,1.5C24.5,47.1,33.2,48.4,33.7,45.5z"/>
<path class="st3" d="M13.6,10.4c0,0,1.1-3.9,2.7-4c1.7-0.2,0.4,6.5,0.4,6.5L13.6,10.4z"/>
<path class="st1" d="M1.5,13.9c0,0-3.2,1.9-0.2,3.6C1.3,17.5,2.4,16.3,1.5,13.9z"/>
<path class="st4" d="M30.4,17.7c0,0-16.5-10.9-5.7-16.6c8.4-4.4,18.6,4.7,21.5,9.9c0.9,1.6,2.8,7.7,2.9,9.7
	c0.4,8.5-1,32.3-17.4,26.1c0,0-0.6-0.7,1.2-2.1c0,0,10.4-6.7,6.1-17.2C39,27.6,37.3,20.5,30.4,17.7z"/>
<ellipse transform="matrix(0.9547 -0.2975 0.2975 0.9547 -3.4274 2.9707)" class="st5" cx="8" cy="12.7" rx="2.5" ry="1.9"/>
<ellipse transform="matrix(0.9547 -0.2975 0.2975 0.9547 -3.4274 2.9707)" class="st1" cx="8" cy="12.7" rx="2" ry="1.5"/>
<ellipse transform="matrix(0.9547 -0.2975 0.2975 0.9547 -3.4986 2.6948)" class="st5" cx="7.1" cy="12.8" rx="0.5" ry="0.4"/>
<path class="st6" d="M10.9,6.3c0,0,1.9,0.8,2.5,0.7l-0.5,1.1l-2-0.3l-0.4-0.5l0.2-0.8L10.9,6.3z"/>
<path class="st7" d="M21.4,46.4c0,0-7.7-17.5,8.6-9"/>
<g>
	<path class="st1" d="M19.2,7.5c1,0.6,1.2,0.5,1.2,0.5s0.2,0.2-0.3,0.8c0,0-0.4,0.2-0.7,0.2"/>
	<path class="st1" d="M9.5,8.3c0,0,3.1,0.9,3.3-0.4c0,0-3.2,0.4-2-1.9c0,0-1.7,0.1-2.1,1.1C8.6,7.6,9,8,9.5,8.3"/>
</g>
<path class="st5" d="M3.2,20.2l0.2,0.6l1-0.4C4.4,20.4,3.4,20.4,3.2,20.2z"/>
<path class="st2" d="M31.1,46.9c0,0,1.7,1.3-0.4,1.6s-10,1.8-10,1.8s-5.3-1.6,1.5-3.4C22.3,46.9,30.2,46.2,31.1,46.9z"/>
<path class="st8" d="M21,28.2c0,0,4.2-5.2-0.2-7.9s-8.4,1.5-8.4,1.5s-1.5,2.2-1,3.3c0.4,1.1-3.6,2.4-3.6,2.4s-5.6-1.1-7.4,2.7
	S6,32.2,6,32.2l0.8-0.4C6.8,31.8,17.2,33.4,21,28.2z"/>
<path class="st9" d="M59.7,22l-2.3,1.8c0,0-5.1-1.3-6.7,0.5L50.1,25c-0.5,0.5-0.2,1.4,0.6,1.7c2.7,1,9.3,3.4,12,3.1"/>
<path class="st10" d="M69.6,7.3c0-0.3,0-0.5,0-0.7c0-0.4,0.6-2.3,0.6-2.5c0-0.2-0.7-1.2-4.5-1.4c-3.8-0.2-4,0.4-4.1,0.5
	c-0.1,0.1-0.1,2-0.3,2.4c-0.1,0.5-0.6,2-0.6,2C60.6,8.2,63,8.8,63,8.8S64.3,4,67.1,4L69.6,7.3z"/>
<path class="st9" d="M63.5,40.9c0,0-3.8-1.7-4.1,0c-0.3,1.7,0.7,2,0.7,2l2,0.2L69,44l-2-1.7L63.5,40.9z"/>
<path class="st11" d="M83,44c0,0,12.8-4.8,7.6-16.7s-13.4-9.5-13.4-9.5s-2.7-0.6-7.4-6.8c0,0-0.2-6.3-2.5-6.8
	c-2.3-0.5-4.6,4.3-4.6,4.3S61.6,8,60,8.1c-2.1,0.2-5.3,1.4-8.7,5.7c0,0,0.6,3.4-0.2,3.6c0,0,0.5,2.8,2.8,3c2.3,0.2,0.3,0.6,0.3,0.6
	s-0.3,1.6,2.5,1.2c2.8-0.5,3.3,2.2,3.3,2.2s1.6,10.1,6.3,10.8c0,0-0.7,7,3,10.5l5.6,1.5C74.9,47.1,82.5,46.9,83,44z"/>
<path class="st12" d="M63.7,10.4c0,0,1.1-3.9,2.8-4c1.7-0.2,0.4,6.5,0.4,6.5L63.7,10.4z"/>
<path class="st10" d="M51.4,13.9c0,0-3.3,1.9-0.2,3.6C51.2,17.5,52.3,16.3,51.4,13.9z"/>
<path class="st13" d="M80.8,17.7c0,0-16.8-10.9-5.8-16.6c8.5-4.4,18.9,3.7,21.9,8.9c0.9,1.6,2.9,8.8,3,10.8
	c0.4,8.5-1,32.3-17.8,26.1c0,0-0.6-0.7,1.2-2.1c0,0,10.6-6.7,6.2-17.2C89.6,27.6,87.9,20.5,80.8,17.7z"/>
<path class="st14" d="M60.5,12c0.3,1-0.5,2.1-1.9,2.5c-1.3,0.4-2.7-0.1-3-1.1s0.5-2.1,1.9-2.5S60.2,11,60.5,12z"/>
<path class="st10" d="M60,12.2c0.3,0.8-0.4,1.7-1.5,2c-1.1,0.3-2.1-0.1-2.4-0.8s0.4-1.7,1.5-2C58.7,11,59.7,11.4,60,12.2z"/>
<ellipse transform="matrix(0.9564 -0.2921 0.2921 0.9564 -1.4593 17.3297)" class="st14" cx="57.3" cy="13.6" rx="0.5" ry="0.4"/>
<path class="st15" d="M61,6.7c0,0,2,0.6,2.6,0.5l-0.4,1.1l-2-0.1l-0.4-0.4L60.9,7L61,6.7z"/>
<path class="st16" d="M71.7,46.4c0,0-8.8-16,8.7-9"/>
<g>
	<path class="st10" d="M69.6,7c1.1,0.5,1.3,0.4,1.3,0.4s0.2,0.2-0.3,0.8c0,0-0.4,0.2-0.7,0.3"/>
	<path class="st10" d="M59.9,8.8c0,0,3.2,0.5,3.3-0.8c0,0-3.2,0.8-2.2-1.6c0,0-1.7,0.3-2,1.4C58.9,8.2,59.3,8.6,59.9,8.8"/>
</g>
<path class="st14" d="M53.1,20.2l0.2,0.6l1-0.4C54.3,20.4,53.3,20.4,53.1,20.2z"/>
<path class="st11" d="M81.1,43.8c0,0,2.1,0.8,0.1,1.7c-2,0.9-9.3,4.5-9.3,4.5s-5.6,0,0.5-3.7C72.4,46.3,79.9,43.4,81.1,43.8z"/>
<path class="st17" d="M71.4,27.9c0,0,3.2-5.9-1.7-7.8c-4.9-1.9-8.1,3.1-8.1,3.1s-1,2.5-0.4,3.5c0.6,1-3.2,3.1-3.2,3.1
	s-5.8-0.1-6.9,4.1c-1.1,4.1,6,0.8,6,0.8l0.8-0.5C57.9,34.2,68.7,33.8,71.4,27.9z"/>
<path class="st0" d="M109.7,23.1l-2.2,1.8c0,0-5-1.3-6.5,0.5l-0.7,0.7c-0.5,0.5-0.2,1.4,0.6,1.7c2.7,1,9.1,3.4,11.8,3.1"/>
<path class="st1" d="M119.2,7.8c0-0.3,0.1-0.5,0.1-0.7c0-0.4,0.8-2.2,0.8-2.5c0-0.2-0.5-1.3-4.2-1.9c-3.7-0.7-3.9-0.1-4.1,0.1
	s-0.3,1.9-0.5,2.4s-0.8,1.9-0.8,1.9c-0.2,0.6,2.2,1.4,2.2,1.4s1.7-4.6,4.5-4.3L119.2,7.8z"/>
<path class="st0" d="M117.9,43.8c0,0-3.7-1.7-4,0c-0.3,1.7,0.7,2,0.7,2l2,0.2l6.7,0.9l-2-1.7L117.9,43.8z"/>
<path class="st2" d="M132.2,43.8c0,0,12.8-4.7,7.7-16.6s-13.1-9.5-13.1-9.5s-2.4-0.8-7.2-6.8c0,0-0.3-5.7-2.5-6.8
	c-2.1-1.1-4.5,4.3-4.5,4.3s-1-0.4-2.6-0.3c-2.1,0.2-5.2,1.4-8.5,5.7c0,0,0.6,3.4-0.2,3.6c0,0,0.5,2.8,2.7,3c2.3,0.2,0.3,0.6,0.3,0.6
	s-0.3,1.6,2.4,1.2c2.7-0.5,3.2,2.2,3.2,2.2s1.6,10.1,6.1,10.8c0,0-0.7,7,2.9,10.5l5.5,1.5C124.5,47.1,131.7,46.8,132.2,43.8z"/>
<path class="st3" d="M113.6,10.4c0,0,1.1-3.9,2.7-4c1.7-0.2,0.4,6.5,0.4,6.5L113.6,10.4z"/>
<path class="st1" d="M101.5,13.4c0,0-3.2,1.9-0.2,3.6C101.3,17,102.4,15.8,101.5,13.4z"/>
<path class="st18" d="M130.3,18.3c0,0-16.5-10.7-5.7-16.2c8.4-4.3,18.6,4.7,21.5,9.8c0.9,1.6,2.9,7.6,3,9.5
	c0.5,8.4-0.9,31.6-17.3,25.5c0,0-0.6-0.7,1.2-2.1c0,0,10.3-6.5,6.1-16.8C139,28,137.2,21.1,130.3,18.3z"/>
<ellipse transform="matrix(0.9547 -0.2975 0.2975 0.9547 1.1005 32.7212)" class="st5" cx="108" cy="12.7" rx="2.5" ry="1.9"/>
<ellipse transform="matrix(0.9547 -0.2975 0.2975 0.9547 1.1005 32.7212)" class="st1" cx="108" cy="12.7" rx="2" ry="1.5"/>
<ellipse transform="matrix(0.9547 -0.2975 0.2975 0.9547 1.0294 32.4453)" class="st5" cx="107.1" cy="12.8" rx="0.5" ry="0.4"/>
<path class="st6" d="M110.9,6.3c0,0,1.9,0.8,2.5,0.7l-0.5,1.1l-2-0.3l-0.4-0.5l0.2-0.8L110.9,6.3z"/>
<path class="st7" d="M121.4,46.4c0,0-7.7-17.5,8.6-9"/>
<g>
	<path class="st1" d="M119.2,7.5c1,0.6,1.2,0.5,1.2,0.5s0.2,0.2-0.3,0.8c0,0-0.4,0.2-0.7,0.2"/>
	<path class="st1" d="M109.5,8.3c0,0,3.1,0.9,3.3-0.4c0,0-3.2,0.4-2-1.9c0,0-1.7,0.1-2.1,1.1C108.6,7.6,109,8,109.5,8.3"/>
</g>
<path class="st5" d="M103.2,20.2l0.2,0.6l1-0.4C104.4,20.4,103.4,20.4,103.2,20.2z"/>
<path class="st2" d="M131.3,41.1c0,0,2.2,0.2,0.5,1.6c-1.6,1.3-7.7,6.6-7.7,6.6s-5.4,1.4-0.4-3.7C123.7,45.7,130.1,41,131.3,41.1z"
	/>
<path class="st19" d="M120.8,29c0,0,4.5-4.7,0.6-7.8c-3.9-3.1-8.2,0.7-8.2,0.7s-1.6,2.1-1.3,3.2c0.3,1.1-3.7,2-3.7,2s-5.2-1.6-7.4,2
	c-2.1,3.6,5.2,2.4,5.2,2.4l0.8-0.3C107,31.3,116.7,33.8,120.8,29z"/>
<path class="st9" d="M159.7,23.1l-2.3,1.8c0,0-5.1-1.3-6.7,0.5l-0.7,0.7c-0.5,0.5-0.2,1.4,0.6,1.7c2.7,1,9.3,3.4,12,3.1"/>
<path class="st10" d="M169.4,7.8c0-0.3,0.1-0.5,0.1-0.7c0-0.4,0.8-2.2,0.8-2.5c0-0.2-0.6-1.3-4.3-1.9s-4-0.1-4.1,0.1
	c-0.1,0.1-0.4,1.9-0.5,2.4s-0.8,1.9-0.8,1.9c-0.2,0.6,2.2,1.4,2.2,1.4s1.7-4.6,4.5-4.3L169.4,7.8z"/>
<path class="st9" d="M168.1,43.8c0,0-3.8-1.7-4.1,0c-0.3,1.7,0.7,2,0.7,2l2,0.2l6.8,0.9l-2-1.7L168.1,43.8z"/>
<path class="st11" d="M184.2,45.5c0,0,11.5-6.3,6.3-18.2s-13.4-9.5-13.4-9.5s-2.4-0.8-7.4-6.8c0,0-0.2-6.3-2.5-6.8
	c-2.3-0.5-4.6,4.3-4.6,4.3s-1-0.4-2.7-0.3c-2.1,0.2-5.3,1.4-8.7,5.7c0,0,0.6,3.4-0.2,3.6c0,0,0.5,2.8,2.8,3c2.3,0.2,0.3,0.6,0.3,0.6
	s-0.3,1.6,2.5,1.2c2.8-0.5,3.3,2.2,3.3,2.2s1.6,10.1,6.3,10.8c0,0-0.7,7,3,10.5l5.6,1.5C174.9,47.1,183.7,48.4,184.2,45.5z"/>
<path class="st12" d="M163.7,10.4c0,0,1.1-3.9,2.8-4c1.7-0.2,0.4,6.5,0.4,6.5L163.7,10.4z"/>
<path class="st10" d="M151.4,13.9c0,0-3.3,1.9-0.2,3.6C151.2,17.5,152.3,16.3,151.4,13.9z"/>
<path class="st13" d="M180.8,17.7c0,0-16.8-10.9-5.8-16.6c8.5-4.4,18.9,4.7,21.9,9.9c0.9,1.6,2.9,7.7,3,9.7
	c0.4,8.5-1,32.3-17.8,26.1c0,0-0.6-0.7,1.2-2.1c0,0,10.6-6.7,6.2-17.2C189.6,27.6,187.9,20.5,180.8,17.7z"/>
<path class="st14" d="M160.5,12c0.3,1-0.5,2.1-1.9,2.5c-1.3,0.4-2.7-0.1-3-1.1c-0.3-1,0.5-2.1,1.9-2.5C158.8,10.5,160.2,11,160.5,12
	z"/>
<path class="st20" d="M159.9,12c0,0.1-0.8,0.5-1.9,0.8c-1.1,0.3-2,0.5-2,0.4s0.8-0.5,1.9-0.8C158.9,12.1,159.8,11.9,159.9,12z"/>
<path class="st15" d="M160.9,6.3c0,0,1.9,0.8,2.6,0.7l-0.5,1.1l-2-0.3l-0.4-0.5l0.2-0.8L160.9,6.3z"/>
<path class="st21" d="M172.4,46.5c0,0-6.9-17.3,8-9.1"/>
<g>
	<path class="st10" d="M169.4,7.5c1,0.6,1.2,0.5,1.2,0.5s0.2,0.2-0.3,0.8c0,0-0.4,0.2-0.7,0.2"/>
	<path class="st10" d="M159.5,8.3c0,0,3.2,0.9,3.4-0.4c0,0-3.2,0.4-2-1.9c0,0-1.7,0.1-2.1,1.1C158.7,7.6,159,8,159.5,8.3"/>
</g>
<path class="st14" d="M153.1,20.2l0.2,0.6l1-0.4C154.3,20.4,153.3,20.4,153.1,20.2z"/>
<path class="st11" d="M181.6,46.9c0,0,1.8,1.3-0.4,1.6s-10.2,1.8-10.2,1.8s-5.4-1.6,1.5-3.4C172.6,46.9,180.6,46.2,181.6,46.9z"/>
<path class="st17" d="M171.2,28.2c0,0,4.3-5.2-0.2-7.9c-4.5-2.8-8.6,1.5-8.6,1.5s-1.5,2.2-1.1,3.3c0.4,1.1-3.7,2.4-3.7,2.4
	s-5.7-1.1-7.6,2.7s5.8,1.9,5.8,1.9l0.9-0.4C156.8,31.8,167.4,33.4,171.2,28.2z"/>
<path class="st1" d="M201.5,13.6c0,0-3.2,1.9-0.2,3.6C201.3,17.2,202.4,16,201.5,13.6z"/>
<path class="st9" d="M359.7,22.9l-2.3,1.8c0,0-5.1-1.3-6.7,0.5l-0.7,0.7c-0.5,0.5-0.2,1.4,0.6,1.7c2.7,1,9.3,3.4,12,3.1"/>
<path class="st10" d="M369.4,7.5c0-0.3,0.1-0.5,0.1-0.7c0-0.4,0.8-2.2,0.8-2.5c0-0.2-0.6-1.3-4.3-1.9s-4-0.1-4.1,0.1
	s-0.4,1.9-0.5,2.4s-0.8,1.9-0.8,1.9c-0.2,0.6,2.2,1.4,2.2,1.4s1.7-4.6,4.5-4.3L369.4,7.5z"/>
<path class="st9" d="M368.1,43.6c0,0-3.8-1.7-4.1,0c-0.3,1.7,0.7,2,0.7,2l2,0.2l6.8,0.9l-2-1.7L368.1,43.6z"/>
<path class="st11" d="M384.2,45.2c0,0,11.5-6.3,6.3-18.2c-5.2-11.9-13.4-9.5-13.4-9.5s-2.4-0.8-7.4-6.8c0,0-0.2-6.3-2.5-6.8
	c-2.3-0.5-4.6,4.3-4.6,4.3s-1-0.4-2.7-0.3c-2.1,0.2-5.3,1.4-8.7,5.7c0,0,0.6,3.4-0.2,3.6c0,0,0.5,2.8,2.8,3c2.3,0.2,0.3,0.6,0.3,0.6
	s-0.3,1.6,2.5,1.2c2.8-0.5,3.3,2.2,3.3,2.2s1.6,10.1,6.3,10.8c0,0-0.7,7,3,10.5l5.6,1.5C374.9,46.9,383.7,48.1,384.2,45.2z"/>
<path class="st12" d="M363.7,10.1c0,0,1.1-3.9,2.8-4s0.4,6.5,0.4,6.5L363.7,10.1z"/>
<path class="st10" d="M351.4,13.6c0,0-3.3,1.9-0.2,3.6C351.2,17.2,352.3,16,351.4,13.6z"/>
<path class="st13" d="M380.8,17.4c0,0-16.8-10.9-5.8-16.6c8.5-4.4,18.9,4.7,21.9,9.9c0.9,1.6,2.9,7.7,3,9.7
	c0.4,8.5-1,32.3-17.8,26.1c0,0-0.6-0.7,1.2-2.1c0,0,10.6-6.7,6.2-17.2C389.6,27.3,387.9,20.3,380.8,17.4z"/>
<path class="st14" d="M360.5,11.7c0.3,1-0.5,2.1-1.9,2.5c-1.3,0.4-2.7-0.1-3-1.1s0.5-2.1,1.9-2.5C358.8,10.3,360.2,10.7,360.5,11.7z
	"/>
<path class="st10" d="M360,11.9c0.3,0.8-0.4,1.7-1.5,2c-1.1,0.3-2.1-0.1-2.4-0.8s0.4-1.7,1.5-2C358.7,10.7,359.7,11.1,360,11.9z"/>
<ellipse transform="matrix(0.9564 -0.2921 0.2921 0.9564 11.9008 104.8463)" class="st14" cx="357.1" cy="12.6" rx="0.5" ry="0.4"/>
<path class="st15" d="M360.9,6c0,0,1.9,0.8,2.6,0.7l-0.5,1.1l-2-0.3l-0.4-0.5l0.2-0.8L360.9,6z"/>
<path class="st16" d="M371.7,46.1c0,0-7.9-17.5,8.7-9"/>
<g>
	<path class="st10" d="M369.4,7.2c1,0.6,1.2,0.5,1.2,0.5s0.2,0.2-0.3,0.8c0,0-0.4,0.2-0.7,0.2"/>
	<path class="st10" d="M359.5,8c0,0,3.2,0.9,3.4-0.4c0,0-3.2,0.4-2-1.9c0,0-1.7,0.1-2.1,1.1C358.7,7.3,359,7.7,359.5,8"/>
</g>
<path class="st14" d="M353.1,20l0.2,0.6l1-0.4C354.3,20.2,353.3,20.2,353.1,20z"/>
<path class="st11" d="M381.7,47.5c0,0,1.6,1.6-0.6,1.6c-2.2,0-10.3,0.3-10.3,0.3s-5.1-2.3,2-3.1C372.8,46.2,380.8,46.7,381.7,47.5z"
	/>
<path class="st17" d="M371.2,27.9c0,0,4.3-5.2-0.2-7.9s-8.6,1.5-8.6,1.5s-1.5,2.2-1.1,3.3c0.4,1.1-3.7,2.4-3.7,2.4s-5.7-1.1-7.6,2.7
	c-1.9,3.9,5.8,1.9,5.8,1.9l0.9-0.4C356.8,31.5,367.4,33.2,371.2,27.9z"/>
<path class="st9" d="M309.9,22.9l-2.3,1.8c0,0-5.1-1.3-6.7,0.5l-0.7,0.7c-0.5,0.5-0.2,1.4,0.6,1.7c2.7,1,9.3,3.4,12,3.1"/>
<path class="st10" d="M319.6,7.5c0-0.3,0.1-0.5,0.1-0.7c0-0.4,0.8-2.2,0.8-2.5c0-0.2-0.6-1.3-4.3-1.9c-3.8-0.7-4-0.1-4.1,0.1
	s-0.4,1.9-0.5,2.4c-0.2,0.4-0.8,1.9-0.8,1.9c-0.2,0.6,2.2,1.4,2.2,1.4s1.7-4.6,4.5-4.3L319.6,7.5z"/>
<path class="st9" d="M318.2,43.6c0,0-3.8-1.7-4.1,0c-0.3,1.7,0.7,2,0.7,2l2,0.2l6.8,0.9l-2-1.7L318.2,43.6z"/>
<path class="st11" d="M334.4,45.2c0,0,11.5-6.3,6.3-18.2c-5.2-11.9-13.4-9.5-13.4-9.5s-2.4-0.8-7.4-6.8c0,0-0.2-6.3-2.5-6.8
	c-2.3-0.5-4.6,4.3-4.6,4.3s-1-0.4-2.7-0.3c-2.1,0.2-5.3,1.4-8.7,5.7c0,0,0.6,3.4-0.2,3.6c0,0,0.5,2.8,2.8,3c2.3,0.2,0.3,0.6,0.3,0.6
	s-0.3,1.6,2.5,1.2c2.8-0.5,3.3,2.2,3.3,2.2s1.6,10.1,6.3,10.8c0,0-0.7,7,3,10.5l5.6,1.5C325,46.9,333.9,48.1,334.4,45.2z"/>
<path class="st12" d="M313.8,10.1c0,0,1.1-3.9,2.8-4c1.7-0.2,0.4,6.5,0.4,6.5L313.8,10.1z"/>
<path class="st10" d="M301.6,13.6c0,0-3.3,1.9-0.2,3.6C301.3,17.2,302.5,16,301.6,13.6z"/>
<path class="st22" d="M330.5,18c0,0-16.2-10.6-5.6-16.2c8.3-4.3,18.3,4.6,21.2,9.7c0.9,1.6,2.8,7.5,2.9,9.5
	c0.4,8.3-1.1,31.6-17.2,25.5c0,0-0.6-0.7,1.2-2.1c0,0,10.2-6.6,6.1-16.8C339,27.7,337.3,20.8,330.5,18z"/>
<path class="st14" d="M310.6,11.7c0.3,1-0.5,2.1-1.9,2.5c-1.3,0.4-2.7-0.1-3-1.1s0.5-2.1,1.9-2.5C309,10.3,310.3,10.7,310.6,11.7z"
	/>
<path class="st10" d="M310.2,11.9c0.3,0.8-0.4,1.7-1.5,2c-1.1,0.3-2.1-0.1-2.4-0.8s0.4-1.7,1.5-2C308.8,10.7,309.9,11.1,310.2,11.9z
	"/>
<ellipse transform="matrix(0.9564 -0.2921 0.2921 0.9564 9.7277 90.2907)" class="st14" cx="307.2" cy="12.6" rx="0.5" ry="0.4"/>
<path class="st15" d="M311.1,6c0,0,1.9,0.8,2.6,0.7l-0.5,1.1l-2-0.3l-0.4-0.5l0.2-0.8L311.1,6z"/>
<path class="st16" d="M321.9,46.1c0,0-7.9-17.5,8.7-9"/>
<g>
	<path class="st10" d="M319.6,7.2c1,0.6,1.2,0.5,1.2,0.5s0.2,0.2-0.3,0.8c0,0-0.4,0.2-0.7,0.2"/>
	<path class="st10" d="M309.7,8c0,0,3.2,0.9,3.4-0.4c0,0-3.2,0.4-2-1.9c0,0-1.7,0.1-2.1,1.1C308.8,7.3,309.2,7.7,309.7,8"/>
</g>
<path class="st14" d="M303.3,20l0.2,0.6l1-0.4C304.5,20.2,303.4,20.2,303.3,20z"/>
<path class="st11" d="M330.2,45.1c0,0,1.9,1-0.1,1.7c-2.1,0.6-9.8,3.2-9.8,3.2s-5.6-0.7,1-3.6C321.3,46.4,329.1,44.6,330.2,45.1z"/>
<path class="st17" d="M321.4,27.9c0,0,4.3-5.2-0.2-7.9s-8.6,1.5-8.6,1.5s-1.5,2.2-1.1,3.3c0.4,1.1-3.7,2.4-3.7,2.4s-5.7-1.1-7.6,2.7
	c-1.9,3.9,5.8,1.9,5.8,1.9l0.9-0.4C306.9,31.5,317.6,33.2,321.4,27.9z"/>
<path class="st9" d="M209.8,22l-2.3,1.8c0,0-5.1-1.3-6.7,0.5l-0.7,0.7c-0.5,0.5-0.2,1.4,0.6,1.7c2.7,1,9.3,3.4,12,3.1"/>
<path class="st10" d="M219.8,7.3c0-0.3,0-0.5,0-0.7c0-0.4,0.6-2.3,0.6-2.5c0-0.2-0.7-1.2-4.5-1.4c-3.8-0.2-4,0.4-4.1,0.5
	s-0.1,2-0.3,2.4c-0.1,0.5-0.6,2-0.6,2c-0.1,0.6,2.4,1.2,2.4,1.2s1.2-4.8,4.1-4.8L219.8,7.3z"/>
<path class="st9" d="M213.7,40.9c0,0-3.8-1.7-4.1,0c-0.3,1.7,0.7,2,0.7,2l2,0.2l6.8,0.9l-2-1.7L213.7,40.9z"/>
<path class="st11" d="M233.2,44c0,0,12.8-4.8,7.6-16.7s-13.4-9.5-13.4-9.5s-2.7-0.6-7.4-6.8c0,0-0.2-6.3-2.5-6.8s-4.6,4.3-4.6,4.3
	s-1-0.4-2.7-0.3c-2.1,0.2-5.3,1.4-8.7,5.7c0,0,0.6,3.4-0.2,3.6c0,0,0.5,2.8,2.8,3c2.3,0.2,0.3,0.6,0.3,0.6s-0.3,1.6,2.5,1.2
	c2.8-0.5,3.3,2.2,3.3,2.2s1.6,10.1,6.3,10.8c0,0-0.7,7,3,10.5l5.6,1.5C225,47.1,232.6,46.9,233.2,44z"/>
<path class="st12" d="M213.8,10.4c0,0,1.1-3.9,2.8-4c1.7-0.2,0.4,6.5,0.4,6.5L213.8,10.4z"/>
<path class="st10" d="M201.5,13.9c0,0-3.3,1.9-0.2,3.6C201.3,17.5,202.5,16.3,201.5,13.9z"/>
<path class="st23" d="M230.9,18.3c0,0-16.8-10.7-5.8-16.2c8.5-4.3,18.9,3.6,21.9,8.7c0.9,1.6,2.9,8.6,3,10.6
	c0.5,8.3-0.9,31.6-17.7,25.5c0,0-0.6-0.7,1.2-2.1c0,0,10.5-6.5,6.2-16.8C239.7,28.1,237.9,21.1,230.9,18.3z"/>
<path class="st14" d="M210.6,12c0.3,1-0.5,2.1-1.9,2.5c-1.3,0.4-2.7-0.1-3-1.1s0.5-2.1,1.9-2.5S210.3,11,210.6,12z"/>
<path class="st10" d="M210.1,12.2c0.3,0.8-0.4,1.7-1.5,2c-1.1,0.3-2.1-0.1-2.4-0.8s0.4-1.7,1.5-2C208.8,11,209.9,11.4,210.1,12.2z"
	/>
<ellipse transform="matrix(0.9564 -0.2921 0.2921 0.9564 5.0887 61.1881)" class="st14" cx="207.5" cy="13.6" rx="0.5" ry="0.4"/>
<path class="st15" d="M211.2,6.7c0,0,2,0.6,2.6,0.5l-0.4,1.1l-2-0.1l-0.4-0.4L211,7L211.2,6.7z"/>
<path class="st16" d="M221.9,46.4c0,0-8.8-16,8.7-9"/>
<g>
	<path class="st10" d="M219.7,7c1.1,0.5,1.3,0.4,1.3,0.4s0.2,0.2-0.3,0.8c0,0-0.4,0.2-0.7,0.3"/>
	<path class="st10" d="M210,8.8c0,0,3.2,0.5,3.3-0.8c0,0-3.2,0.8-2.2-1.6c0,0-1.7,0.3-2,1.4C209,8.2,209.5,8.6,210,8.8"/>
</g>
<path class="st14" d="M203.3,20.2l0.2,0.6l1-0.4C204.5,20.4,203.4,20.4,203.3,20.2z"/>
<path class="st11" d="M231.2,43.8c0,0,2.1,0.8,0.1,1.7c-2,0.9-9.3,4.5-9.3,4.5s-5.6,0,0.5-3.7C222.6,46.3,230.1,43.4,231.2,43.8z"/>
<path class="st17" d="M221.6,27.9c0,0,3.2-5.9-1.7-7.8c-4.9-1.9-8.1,3.1-8.1,3.1s-1,2.5-0.4,3.5c0.6,1-3.2,3.1-3.2,3.1
	s-5.8-0.1-6.9,4.1c-1.1,4.1,6,0.8,6,0.8l0.8-0.5C208,34.2,218.8,33.8,221.6,27.9z"/>
<path class="st0" d="M259.8,23.1l-2.2,1.8c0,0-5-1.3-6.5,0.5l-0.7,0.7c-0.5,0.5-0.2,1.4,0.6,1.7c2.7,1,9.1,3.4,11.8,3.1"/>
<path class="st1" d="M269.4,7.8c0-0.3,0.1-0.5,0.1-0.7c0-0.4,0.8-2.2,0.8-2.5s-0.5-1.3-4.2-1.9c-3.7-0.7-3.9-0.1-4.1,0.1
	s-0.3,1.9-0.5,2.4s-0.8,1.9-0.8,1.9c-0.2,0.6,2.2,1.4,2.2,1.4s1.7-4.6,4.5-4.3L269.4,7.8z"/>
<path class="st0" d="M268,43.8c0,0-3.7-1.7-4,0c-0.3,1.7,0.7,2,0.7,2l2,0.2l6.7,0.9l-2-1.7L268,43.8z"/>
<path class="st2" d="M282.4,43.8c0,0,12.8-4.7,7.7-16.6S277,17.7,277,17.7s-2.4-0.8-7.2-6.8c0,0-0.3-5.7-2.5-6.8
	c-2.1-1.1-4.5,4.3-4.5,4.3s-1-0.4-2.6-0.3c-2.1,0.2-5.2,1.4-8.5,5.7c0,0,0.6,3.4-0.2,3.6c0,0,0.5,2.8,2.7,3c2.3,0.2,0.3,0.6,0.3,0.6
	s-0.3,1.6,2.4,1.2c2.7-0.5,3.2,2.2,3.2,2.2s1.6,10.1,6.1,10.8c0,0-0.7,7,2.9,10.5l5.5,1.5C274.7,47.1,281.8,46.8,282.4,43.8z"/>
<path class="st3" d="M263.7,10.4c0,0,1.1-3.9,2.7-4c1.7-0.2,0.4,6.5,0.4,6.5L263.7,10.4z"/>
<path class="st1" d="M251.7,13.4c0,0-3.2,1.9-0.2,3.6C251.5,17,252.6,15.8,251.7,13.4z"/>
<path class="st4" d="M280.5,17.7c0,0-16.5-10.9-5.7-16.6c8.4-4.4,18.6,4.7,21.5,9.9c0.9,1.6,2.8,7.7,2.9,9.7
	c0.4,8.5-1,32.3-17.4,26.1c0,0-0.6-0.7,1.2-2.1c0,0,10.4-6.7,6.1-17.2C289.2,27.6,287.4,20.5,280.5,17.7z"/>
<ellipse transform="matrix(0.9547 -0.2975 0.2975 0.9547 7.8996 77.3935)" class="st5" cx="258.2" cy="12.7" rx="2.5" ry="1.9"/>
<ellipse transform="matrix(0.9547 -0.2975 0.2975 0.9547 7.8996 77.3935)" class="st1" cx="258.2" cy="12.7" rx="2" ry="1.5"/>
<ellipse transform="matrix(0.9547 -0.2975 0.2975 0.9547 7.8284 77.1176)" class="st5" cx="257.3" cy="12.8" rx="0.5" ry="0.4"/>
<path class="st6" d="M261,6.3c0,0,1.9,0.8,2.5,0.7L263,8.1l-2-0.3l-0.4-0.5l0.2-0.8L261,6.3z"/>
<path class="st7" d="M271.6,46.4c0,0-7.7-17.5,8.6-9"/>
<g>
	<path class="st1" d="M269.3,7.5c1,0.6,1.2,0.5,1.2,0.5s0.2,0.2-0.3,0.8c0,0-0.4,0.2-0.7,0.2"/>
	<path class="st1" d="M259.7,8.3c0,0,3.1,0.9,3.3-0.4c0,0-3.2,0.4-2-1.9c0,0-1.7,0.1-2.1,1.1C258.8,7.6,259.2,8,259.7,8.3"/>
</g>
<path class="st5" d="M253.4,20.2l0.2,0.6l1-0.4C254.6,20.4,253.5,20.4,253.4,20.2z"/>
<path class="st2" d="M281.4,41.1c0,0,2.2,0.2,0.5,1.6c-1.6,1.3-7.7,6.6-7.7,6.6s-5.4,1.4-0.4-3.7C273.9,45.7,280.2,41,281.4,41.1z"
	/>
<path class="st19" d="M271.2,27.9c0,0,3.9-5.2-0.3-7.8s-8,1.7-8,1.7s-1.3,2.2-0.9,3.3c0.4,1.1-3.4,2.5-3.4,2.5s-5.4-1-7,2.9
	s5.4,1.7,5.4,1.7l0.8-0.4C257.8,31.9,267.8,33.2,271.2,27.9z"/>
</svg>
