<?xml version="1.0" encoding="utf-8"?>
<!-- Generator: Adobe Illustrator 19.2.1, SVG Export Plug-In . SVG Version: 6.00 Build 0)  -->
<svg version="1.1" id="Layer_1" xmlns="http://www.w3.org/2000/svg" xmlns:xlink="http://www.w3.org/1999/xlink" x="0px" y="0px"
	 viewBox="0 0 399.9 50" style="enable-background:new 0 0 399.9 50;" xml:space="preserve">
<style type="text/css">
	.st0{fill:#902700;stroke:#303030;stroke-width:0.1004;stroke-miterlimit:10;}
	.st1{fill:#183341;stroke:#303030;stroke-width:0.1004;stroke-miterlimit:10;}
	.st2{fill:#FEB028;stroke:#303030;stroke-width:0.1004;stroke-miterlimit:10;}
	.st3{fill:#EA9250;stroke:#303030;stroke-width:0.1004;stroke-miterlimit:10;}
	.st4{fill:#902700;stroke:#303030;stroke-width:9.884335e-02;stroke-miterlimit:10;}
	.st5{fill:#FFFFFF;stroke:#303030;stroke-width:0.1004;stroke-miterlimit:10;}
	.st6{fill:#BB0D0F;stroke:#303030;stroke-width:0.1004;stroke-miterlimit:10;}
	.st7{fill:none;stroke:#303030;stroke-width:0.3013;stroke-miterlimit:10;}
	.st8{fill:#EA982D;stroke:#303030;stroke-width:0.1004;stroke-miterlimit:10;}
	.st9{fill:#902700;stroke:#303030;stroke-width:0.1014;stroke-miterlimit:10;}
	.st10{fill:#183341;stroke:#303030;stroke-width:0.1014;stroke-miterlimit:10;}
	.st11{fill:#FEB028;stroke:#303030;stroke-width:0.1014;stroke-miterlimit:10;}
	.st12{fill:#EA9250;stroke:#303030;stroke-width:0.1014;stroke-miterlimit:10;}
	.st13{fill:#902700;stroke:#303030;stroke-width:9.984347e-02;stroke-miterlimit:10;}
	.st14{fill:#FFFFFF;stroke:#303030;stroke-width:0.1014;stroke-miterlimit:10;}
	.st15{fill:#BB0D0F;stroke:#303030;stroke-width:0.1014;stroke-miterlimit:10;}
	.st16{fill:none;stroke:#303030;stroke-width:0.3043;stroke-miterlimit:10;}
	.st17{fill:#EA982D;stroke:#303030;stroke-width:0.1014;stroke-miterlimit:10;}
	.st18{fill:#902700;stroke:#303030;stroke-width:9.778979e-02;stroke-miterlimit:10;}
	.st19{fill:#EA982D;stroke:#303030;stroke-width:9.732883e-02;stroke-miterlimit:10;}
	.st20{fill:#183341;stroke:#303030;stroke-width:3.741861e-02;stroke-miterlimit:10;}
	.st21{fill:none;stroke:#303030;stroke-width:0.2894;stroke-miterlimit:10;}
	.st22{fill:#902700;stroke:#303030;stroke-width:9.704877e-02;stroke-miterlimit:10;}
	.st23{fill:#902700;stroke:#303030;stroke-width:9.873430e-02;stroke-miterlimit:10;}
</style>
<path class="st0" d="M390.3,23.1l2.2,1.8c0,0,5-1.3,6.5,0.5l0.7,0.7c0.5,0.5,0.2,1.4-0.6,1.7c-2.7,1-9.1,3.4-11.8,3.1"/>
<path class="st1" d="M380.8,7.8c0-0.3-0.1-0.5-0.1-0.7c0-0.4-0.8-2.2-0.8-2.5c0-0.2,0.5-1.3,4.2-1.9s3.9-0.1,4.1,0.1
	c0.1,0.1,0.3,1.9,0.5,2.4s0.8,1.9,0.8,1.9c0.2,0.6-2.2,1.4-2.2,1.4s-1.7-4.6-4.5-4.3L380.8,7.8z"/>
<path class="st0" d="M382.1,43.8c0,0,3.7-1.7,4,0c0.3,1.7-0.7,2-0.7,2l-2,0.2l-6.7,0.9l2-1.7L382.1,43.8z"/>
<path class="st2" d="M366.3,45.5c0,0-11.3-6.3-6.2-18.2c5.1-11.9,13.1-9.5,13.1-9.5s2.4-0.8,7.2-6.8c0,0,0.2-6.3,2.5-6.8
	s4.5,4.3,4.5,4.3s1-0.4,2.6-0.3c2.1,0.2,5.2,1.4,8.5,5.7c0,0-0.6,3.4,0.2,3.6c0,0-0.5,2.8-2.7,3c-2.3,0.2-0.3,0.6-0.3,0.6
	s0.3,1.6-2.4,1.2c-2.7-0.5-3.2,2.2-3.2,2.2s-1.6,10.1-6.1,10.8c0,0,0.7,7-2.9,10.5l-5.5,1.5C375.5,47.1,366.8,48.4,366.3,45.5z"/>
<path class="st3" d="M386.4,10.4c0,0-1.1-3.9-2.7-4c-1.7-0.2-0.4,6.5-0.4,6.5L386.4,10.4z"/>
<path class="st1" d="M398.5,13.9c0,0,3.2,1.9,0.2,3.6C398.7,17.5,397.6,16.3,398.5,13.9z"/>
<path class="st4" d="M369.6,17.7c0,0,16.5-10.9,5.7-16.6c-8.4-4.4-18.6,4.7-21.5,9.9c-0.9,1.6-2.8,7.7-2.9,9.7
	c-0.4,8.5,1,32.3,17.4,26.1c0,0,0.6-0.7-1.2-2.1c0,0-10.4-6.7-6.1-17.2C361,27.6,362.7,20.5,369.6,17.7z"/>
<ellipse transform="matrix(0.2975 -0.9547 0.9547 0.2975 263.1779 383.1602)" class="st5" cx="392" cy="12.7" rx="1.9" ry="2.5"/>
<ellipse transform="matrix(0.2975 -0.9547 0.9547 0.2975 263.1779 383.1602)" class="st1" cx="392" cy="12.7" rx="1.5" ry="2"/>
<ellipse transform="matrix(0.2975 -0.9547 0.9547 0.2975 263.7482 384.1266)" class="st5" cx="392.9" cy="12.8" rx="0.4" ry="0.5"/>
<path class="st6" d="M389.1,6.3c0,0-1.9,0.8-2.5,0.7l0.5,1.1l2-0.3l0.4-0.5l-0.2-0.8L389.1,6.3z"/>
<path class="st7" d="M378.6,46.4c0,0,7.7-17.5-8.6-9"/>
<g>
	<path class="st1" d="M380.8,7.5c-1,0.6-1.2,0.5-1.2,0.5s-0.2,0.2,0.3,0.8c0,0,0.4,0.2,0.7,0.2"/>
	<path class="st1" d="M390.5,8.3c0,0-3.1,0.9-3.3-0.4c0,0,3.2,0.4,2-1.9c0,0,1.7,0.1,2.1,1.1C391.4,7.6,391,8,390.5,8.3"/>
</g>
<path class="st5" d="M396.8,20.2l-0.2,0.6l-1-0.4C395.6,20.4,396.6,20.4,396.8,20.2z"/>
<path class="st2" d="M368.9,46.9c0,0-1.7,1.3,0.4,1.6s10,1.8,10,1.8s5.3-1.6-1.5-3.4C377.7,46.9,369.8,46.2,368.9,46.9z"/>
<path class="st8" d="M379,28.2c0,0-4.2-5.2,0.2-7.9s8.4,1.5,8.4,1.5s1.5,2.2,1,3.3c-0.4,1.1,3.6,2.4,3.6,2.4s5.6-1.1,7.4,2.7
	s-5.7,1.9-5.7,1.9l-0.8-0.4C393.2,31.8,382.8,33.4,379,28.2z"/>
<path class="st9" d="M340.3,22l2.3,1.8c0,0,5.1-1.3,6.7,0.5l0.7,0.7c0.5,0.5,0.2,1.4-0.6,1.7c-2.7,1-9.3,3.4-12,3.1"/>
<path class="st10" d="M330.4,7.3c0-0.3,0-0.5,0-0.7c0-0.4-0.6-2.3-0.6-2.5c0-0.2,0.7-1.2,4.5-1.4s4,0.4,4.1,0.5s0.1,2,0.3,2.4
	c0.1,0.5,0.6,2,0.6,2c0.1,0.6-2.4,1.2-2.4,1.2S335.7,4,332.9,4L330.4,7.3z"/>
<path class="st9" d="M336.5,40.9c0,0,3.8-1.7,4.1,0c0.3,1.7-0.7,2-0.7,2l-2,0.2L331,44l2-1.7L336.5,40.9z"/>
<path class="st11" d="M317,44c0,0-12.8-4.8-7.6-16.7c5.2-11.9,13.4-9.5,13.4-9.5s2.7-0.6,7.4-6.8c0,0,0.2-6.3,2.5-6.8
	c2.3-0.5,4.6,4.3,4.6,4.3s1-0.4,2.7-0.3c2.1,0.2,5.3,1.4,8.7,5.7c0,0-0.6,3.4,0.2,3.6c0,0-0.5,2.8-2.8,3c-2.3,0.2-0.3,0.6-0.3,0.6
	s0.3,1.6-2.5,1.2c-2.8-0.5-3.3,2.2-3.3,2.2s-1.6,10.1-6.3,10.8c0,0,0.7,7-3,10.5l-5.6,1.5C325.1,47.1,317.5,46.9,317,44z"/>
<path class="st12" d="M336.3,10.4c0,0-1.1-3.9-2.8-4c-1.7-0.2-0.4,6.5-0.4,6.5L336.3,10.4z"/>
<path class="st10" d="M348.6,13.9c0,0,3.3,1.9,0.2,3.6C348.8,17.5,347.7,16.3,348.6,13.9z"/>
<path class="st13" d="M319.2,17.7c0,0,16.8-10.9,5.8-16.6c-8.5-4.4-18.9,3.7-21.9,8.9c-0.9,1.6-2.9,8.8-3,10.8
	c-0.4,8.5,1,32.3,17.8,26.1c0,0,0.6-0.7-1.2-2.1c0,0-10.6-6.7-6.2-17.2C310.4,27.6,312.1,20.5,319.2,17.7z"/>
<path class="st14" d="M339.5,12c-0.3,1,0.5,2.1,1.9,2.5c1.3,0.4,2.7-0.1,3-1.1s-0.5-2.1-1.9-2.5C341.2,10.5,339.8,11,339.5,12z"/>
<path class="st10" d="M340,12.2c-0.3,0.8,0.4,1.7,1.5,2s2.1-0.1,2.4-0.8s-0.4-1.7-1.5-2C341.3,11,340.3,11.4,340,12.2z"/>
<ellipse transform="matrix(0.2921 -0.9564 0.9564 0.2921 229.636 337.3421)" class="st14" cx="342.7" cy="13.6" rx="0.4" ry="0.5"/>
<path class="st15" d="M339,6.7c0,0-2,0.6-2.6,0.5l0.4,1.1l2-0.1l0.4-0.4L339.1,7L339,6.7z"/>
<path class="st16" d="M328.3,46.4c0,0,8.8-16-8.7-9"/>
<g>
	<path class="st10" d="M330.4,7c-1.1,0.5-1.3,0.4-1.3,0.4s-0.2,0.2,0.3,0.8c0,0,0.4,0.2,0.7,0.3"/>
	<path class="st10" d="M340.1,8.8c0,0-3.2,0.5-3.3-0.8c0,0,3.2,0.8,2.2-1.6c0,0,1.7,0.3,2,1.4C341.1,8.2,340.7,8.6,340.1,8.8"/>
</g>
<path class="st14" d="M346.9,20.2l-0.2,0.6l-1-0.4C345.7,20.4,346.7,20.4,346.9,20.2z"/>
<path class="st11" d="M318.9,43.8c0,0-2.1,0.8-0.1,1.7c2,0.9,9.3,4.5,9.3,4.5s5.6,0-0.5-3.7C327.6,46.3,320.1,43.4,318.9,43.8z"/>
<path class="st17" d="M328.6,27.9c0,0-3.2-5.9,1.7-7.8c4.9-1.9,8.1,3.1,8.1,3.1s1,2.5,0.4,3.5s3.2,3.1,3.2,3.1s5.8-0.1,6.9,4.1
	c1.1,4.1-6,0.8-6,0.8l-0.8-0.5C342.1,34.2,331.3,33.8,328.6,27.9z"/>
<path class="st0" d="M290.3,23.1l2.2,1.8c0,0,5-1.3,6.5,0.5l0.7,0.7c0.5,0.5,0.2,1.4-0.6,1.7c-2.7,1-9.1,3.4-11.8,3.1"/>
<path class="st1" d="M280.8,7.8c0-0.3-0.1-0.5-0.1-0.7c0-0.4-0.8-2.2-0.8-2.5c0-0.2,0.5-1.3,4.2-1.9s3.9-0.1,4.1,0.1
	c0.1,0.1,0.3,1.9,0.5,2.4s0.8,1.9,0.8,1.9c0.2,0.6-2.2,1.4-2.2,1.4s-1.7-4.6-4.5-4.3L280.8,7.8z"/>
<path class="st0" d="M282.1,43.8c0,0,3.7-1.7,4,0c0.3,1.7-0.7,2-0.7,2l-2,0.2l-6.7,0.9l2-1.7L282.1,43.8z"/>
<path class="st2" d="M267.8,43.8c0,0-12.8-4.7-7.7-16.6c5.1-11.9,13.1-9.5,13.1-9.5s2.4-0.8,7.2-6.8c0,0,0.3-5.7,2.5-6.8
	c2.1-1.1,4.5,4.3,4.5,4.3s1-0.4,2.6-0.3c2.1,0.2,5.2,1.4,8.5,5.7c0,0-0.6,3.4,0.2,3.6c0,0-0.5,2.8-2.7,3c-2.3,0.2-0.3,0.6-0.3,0.6
	s0.3,1.6-2.4,1.2c-2.7-0.5-3.2,2.2-3.2,2.2s-1.6,10.1-6.1,10.8c0,0,0.7,7-2.9,10.5l-5.5,1.5C275.5,47.1,268.3,46.8,267.8,43.8z"/>
<path class="st3" d="M286.4,10.4c0,0-1.1-3.9-2.7-4c-1.7-0.2-0.4,6.5-0.4,6.5L286.4,10.4z"/>
<path class="st1" d="M298.5,13.4c0,0,3.2,1.9,0.2,3.6C298.7,17,297.6,15.8,298.5,13.4z"/>
<path class="st18" d="M269.7,18.3c0,0,16.5-10.7,5.7-16.2c-8.4-4.3-18.6,4.7-21.5,9.8c-0.9,1.6-2.9,7.6-3,9.5
	c-0.5,8.4,0.9,31.6,17.3,25.5c0,0,0.6-0.7-1.2-2.1c0,0-10.3-6.5-6.1-16.8C261,28,262.8,21.1,269.7,18.3z"/>
<ellipse transform="matrix(0.2975 -0.9547 0.9547 0.2975 192.9284 287.6882)" class="st5" cx="292" cy="12.7" rx="1.9" ry="2.5"/>
<ellipse transform="matrix(0.2975 -0.9547 0.9547 0.2975 192.9284 287.6882)" class="st1" cx="292" cy="12.7" rx="1.5" ry="2"/>
<ellipse transform="matrix(0.2975 -0.9547 0.9547 0.2975 193.4987 288.6546)" class="st5" cx="292.9" cy="12.8" rx="0.4" ry="0.5"/>
<path class="st6" d="M289.1,6.3c0,0-1.9,0.8-2.5,0.7l0.5,1.1l2-0.3l0.4-0.5l-0.2-0.8L289.1,6.3z"/>
<path class="st7" d="M278.6,46.4c0,0,7.7-17.5-8.6-9"/>
<g>
	<path class="st1" d="M280.8,7.5c-1,0.6-1.2,0.5-1.2,0.5s-0.2,0.2,0.3,0.8c0,0,0.4,0.2,0.7,0.2"/>
	<path class="st1" d="M290.5,8.3c0,0-3.1,0.9-3.3-0.4c0,0,3.2,0.4,2-1.9c0,0,1.7,0.1,2.1,1.1C291.4,7.6,291,8,290.5,8.3"/>
</g>
<path class="st5" d="M296.8,20.2l-0.2,0.6l-1-0.4C295.6,20.4,296.6,20.4,296.8,20.2z"/>
<path class="st2" d="M268.7,41.1c0,0-2.2,0.2-0.5,1.6c1.6,1.3,7.7,6.6,7.7,6.6s5.4,1.4,0.4-3.7C276.3,45.7,269.9,41,268.7,41.1z"/>
<path class="st19" d="M279.2,29c0,0-4.5-4.7-0.6-7.8s8.2,0.7,8.2,0.7s1.6,2.1,1.3,3.2c-0.3,1.1,3.7,2,3.7,2s5.2-1.6,7.4,2
	s-5.2,2.4-5.2,2.4l-0.8-0.3C293,31.3,283.3,33.8,279.2,29z"/>
<path class="st9" d="M240.3,23.1l2.3,1.8c0,0,5.1-1.3,6.7,0.5l0.7,0.7c0.5,0.5,0.2,1.4-0.6,1.7c-2.7,1-9.3,3.4-12,3.1"/>
<path class="st10" d="M230.6,7.8c0-0.3-0.1-0.5-0.1-0.7c0-0.4-0.8-2.2-0.8-2.5c0-0.2,0.6-1.3,4.3-1.9s4-0.1,4.1,0.1
	c0.1,0.1,0.4,1.9,0.5,2.4s0.8,1.9,0.8,1.9c0.2,0.6-2.2,1.4-2.2,1.4s-1.7-4.6-4.5-4.3L230.6,7.8z"/>
<path class="st9" d="M231.9,43.8c0,0,3.8-1.7,4.1,0c0.3,1.7-0.7,2-0.7,2l-2,0.2l-6.8,0.9l2-1.7L231.9,43.8z"/>
<path class="st11" d="M215.8,45.5c0,0-11.5-6.3-6.3-18.2s13.4-9.5,13.4-9.5s2.4-0.8,7.4-6.8c0,0,0.2-6.3,2.5-6.8
	c2.3-0.5,4.6,4.3,4.6,4.3s1-0.4,2.7-0.3c2.1,0.2,5.3,1.4,8.7,5.7c0,0-0.6,3.4,0.2,3.6c0,0-0.5,2.8-2.8,3c-2.3,0.2-0.3,0.6-0.3,0.6
	s0.3,1.6-2.5,1.2c-2.8-0.5-3.3,2.2-3.3,2.2s-1.6,10.1-6.3,10.8c0,0,0.7,7-3,10.5l-5.6,1.5C225.1,47.1,216.3,48.4,215.8,45.5z"/>
<path class="st12" d="M236.3,10.4c0,0-1.1-3.9-2.8-4c-1.7-0.2-0.4,6.5-0.4,6.5L236.3,10.4z"/>
<path class="st10" d="M248.6,13.9c0,0,3.3,1.9,0.2,3.6C248.8,17.5,247.7,16.3,248.6,13.9z"/>
<path class="st13" d="M219.2,17.7c0,0,16.8-10.9,5.8-16.6c-8.5-4.4-18.9,4.7-21.9,9.9c-0.9,1.6-2.9,7.7-3,9.7
	c-0.4,8.5,1,32.3,17.8,26.1c0,0,0.6-0.7-1.2-2.1c0,0-10.6-6.7-6.2-17.2C210.4,27.6,212.1,20.5,219.2,17.7z"/>
<path class="st14" d="M239.5,12c-0.3,1,0.5,2.1,1.9,2.5c1.3,0.4,2.7-0.1,3-1.1c0.3-1-0.5-2.1-1.9-2.5C241.2,10.5,239.8,11,239.5,12z
	"/>
<path class="st20" d="M240.1,12c0,0.1,0.8,0.5,1.9,0.8c1.1,0.3,2,0.5,2,0.4s-0.8-0.5-1.9-0.8C241.1,12.1,240.2,11.9,240.1,12z"/>
<path class="st15" d="M239.1,6.3c0,0-1.9,0.8-2.6,0.7l0.5,1.1l2-0.3l0.4-0.5l-0.2-0.8L239.1,6.3z"/>
<path class="st21" d="M227.6,46.5c0,0,6.9-17.3-8-9.1"/>
<g>
	<path class="st10" d="M230.6,7.5c-1,0.6-1.2,0.5-1.2,0.5s-0.2,0.2,0.3,0.8c0,0,0.4,0.2,0.7,0.2"/>
	<path class="st10" d="M240.5,8.3c0,0-3.2,0.9-3.4-0.4c0,0,3.2,0.4,2-1.9c0,0,1.7,0.1,2.1,1.1C241.3,7.6,241,8,240.5,8.3"/>
</g>
<path class="st14" d="M246.9,20.2l-0.2,0.6l-1-0.4C245.7,20.4,246.7,20.4,246.9,20.2z"/>
<path class="st11" d="M218.4,46.9c0,0-1.8,1.3,0.4,1.6s10.2,1.8,10.2,1.8s5.4-1.6-1.5-3.4C227.4,46.9,219.4,46.2,218.4,46.9z"/>
<path class="st17" d="M228.8,28.2c0,0-4.3-5.2,0.2-7.9c4.5-2.8,8.6,1.5,8.6,1.5s1.5,2.2,1.1,3.3c-0.4,1.1,3.7,2.4,3.7,2.4
	s5.7-1.1,7.6,2.7s-5.8,1.9-5.8,1.9l-0.9-0.4C243.2,31.8,232.6,33.4,228.8,28.2z"/>
<path class="st1" d="M198.5,13.6c0,0,3.2,1.9,0.2,3.6C198.7,17.2,197.6,16,198.5,13.6z"/>
<path class="st9" d="M40.3,22.9l2.3,1.8c0,0,5.1-1.3,6.7,0.5l0.7,0.7c0.5,0.5,0.2,1.4-0.6,1.7c-2.7,1-9.3,3.4-12,3.1"/>
<path class="st10" d="M30.6,7.5c0-0.3-0.1-0.5-0.1-0.7c0-0.4-0.8-2.2-0.8-2.5s0.6-1.3,4.3-1.9s4-0.1,4.1,0.1s0.4,1.9,0.5,2.4
	s0.8,1.9,0.8,1.9c0.2,0.6-2.2,1.4-2.2,1.4S35.5,3.7,32.7,4L30.6,7.5z"/>
<path class="st9" d="M31.9,43.6c0,0,3.8-1.7,4.1,0c0.3,1.7-0.7,2-0.7,2l-2,0.2l-6.8,0.9l2-1.7L31.9,43.6z"/>
<path class="st11" d="M15.8,45.2c0,0-11.5-6.3-6.3-18.2s13.4-9.5,13.4-9.5s2.4-0.8,7.4-6.8c0,0,0.2-6.3,2.5-6.8s4.6,4.3,4.6,4.3
	s1-0.4,2.7-0.3c2.1,0.2,5.3,1.4,8.7,5.7c0,0-0.6,3.4,0.2,3.6c0,0-0.5,2.8-2.8,3c-2.3,0.2-0.3,0.6-0.3,0.6s0.3,1.6-2.5,1.2
	c-2.8-0.5-3.3,2.2-3.3,2.2S38.4,34.3,33.7,35c0,0,0.7,7-3,10.5l-5.6,1.5C25.1,46.9,16.3,48.1,15.8,45.2z"/>
<path class="st12" d="M36.3,10.1c0,0-1.1-3.9-2.8-4s-0.4,6.5-0.4,6.5L36.3,10.1z"/>
<path class="st10" d="M48.6,13.6c0,0,3.3,1.9,0.2,3.6C48.8,17.2,47.7,16,48.6,13.6z"/>
<path class="st13" d="M19.2,17.4c0,0,16.8-10.9,5.8-16.6C16.4-3.5,6.1,5.6,3.1,10.8c-0.9,1.6-2.9,7.7-3,9.7
	c-0.4,8.5,1,32.3,17.8,26.1c0,0,0.6-0.7-1.2-2.1c0,0-10.6-6.7-6.2-17.2C10.4,27.3,12.1,20.3,19.2,17.4z"/>
<path class="st14" d="M39.5,11.7c-0.3,1,0.5,2.1,1.9,2.5c1.3,0.4,2.7-0.1,3-1.1s-0.5-2.1-1.9-2.5C41.2,10.3,39.8,10.7,39.5,11.7z"/>
<path class="st10" d="M40,11.9c-0.3,0.8,0.4,1.7,1.5,2c1.1,0.3,2.1-0.1,2.4-0.8s-0.4-1.7-1.5-2C41.3,10.7,40.3,11.1,40,11.9z"/>
<ellipse transform="matrix(0.2921 -0.9564 0.9564 0.2921 18.3636 49.9434)" class="st14" cx="42.9" cy="12.6" rx="0.4" ry="0.5"/>
<path class="st15" d="M39.1,6c0,0-1.9,0.8-2.6,0.7l0.5,1.1l2-0.3l0.4-0.5l-0.2-0.8L39.1,6z"/>
<path class="st16" d="M28.3,46.1c0,0,7.9-17.5-8.7-9"/>
<g>
	<path class="st10" d="M30.6,7.2c-1,0.6-1.2,0.5-1.2,0.5S29.2,8,29.7,8.5c0,0,0.4,0.2,0.7,0.2"/>
	<path class="st10" d="M40.5,8c0,0-3.2,0.9-3.4-0.4c0,0,3.2,0.4,2-1.9c0,0,1.7,0.1,2.1,1.1C41.3,7.3,41,7.7,40.5,8"/>
</g>
<path class="st14" d="M46.9,20l-0.2,0.6l-1-0.4C45.7,20.2,46.7,20.2,46.9,20z"/>
<path class="st11" d="M18.3,47.5c0,0-1.6,1.6,0.6,1.6s10.3,0.3,10.3,0.3s5.1-2.3-2-3.1C27.2,46.2,19.2,46.7,18.3,47.5z"/>
<path class="st17" d="M28.8,27.9c0,0-4.3-5.2,0.2-7.9s8.6,1.5,8.6,1.5s1.5,2.2,1.1,3.3c-0.4,1.1,3.7,2.4,3.7,2.4s5.7-1.1,7.6,2.7
	c1.9,3.9-5.8,1.9-5.8,1.9l-0.9-0.4C43.2,31.5,32.6,33.2,28.8,27.9z"/>
<path class="st9" d="M90.1,22.9l2.3,1.8c0,0,5.1-1.3,6.7,0.5l0.7,0.7c0.5,0.5,0.2,1.4-0.6,1.7c-2.7,1-9.3,3.4-12,3.1"/>
<path class="st10" d="M80.4,7.5c0-0.3-0.1-0.5-0.1-0.7c0-0.4-0.8-2.2-0.8-2.5c0-0.2,0.6-1.3,4.3-1.9s4-0.1,4.1,0.1
	c0.1,0.1,0.4,1.9,0.5,2.4s0.8,1.9,0.8,1.9c0.2,0.6-2.2,1.4-2.2,1.4S85.4,3.7,82.6,4L80.4,7.5z"/>
<path class="st9" d="M81.8,43.6c0,0,3.8-1.7,4.1,0c0.3,1.7-0.7,2-0.7,2l-2,0.2l-6.8,0.9l2-1.7L81.8,43.6z"/>
<path class="st11" d="M65.6,45.2c0,0-11.5-6.3-6.3-18.2s13.4-9.5,13.4-9.5s2.4-0.8,7.4-6.8c0,0,0.2-6.3,2.5-6.8
	c2.3-0.5,4.6,4.3,4.6,4.3s1-0.4,2.7-0.3c2.1,0.2,5.3,1.4,8.7,5.7c0,0-0.6,3.4,0.2,3.6c0,0-0.5,2.8-2.8,3c-2.3,0.2-0.3,0.6-0.3,0.6
	s0.3,1.6-2.5,1.2c-2.8-0.5-3.3,2.2-3.3,2.2S88.2,34.3,83.5,35c0,0,0.7,7-3,10.5L75,46.9C75,46.9,66.1,48.1,65.6,45.2z"/>
<path class="st12" d="M86.2,10.1c0,0-1.1-3.9-2.8-4c-1.7-0.2-0.4,6.5-0.4,6.5L86.2,10.1z"/>
<path class="st10" d="M98.4,13.6c0,0,3.3,1.9,0.2,3.6C98.7,17.2,97.5,16,98.4,13.6z"/>
<path class="st22" d="M69.5,18c0,0,16.2-10.6,5.6-16.2c-8.3-4.3-18.3,4.6-21.2,9.7C53,13.1,51.1,19,51,21
	c-0.4,8.3,1.1,31.6,17.2,25.5c0,0,0.6-0.7-1.2-2.1c0,0-10.2-6.6-6.1-16.8C61,27.7,62.7,20.8,69.5,18z"/>
<path class="st14" d="M89.4,11.7c-0.3,1,0.5,2.1,1.9,2.5c1.3,0.4,2.7-0.1,3-1.1c0.3-1-0.5-2.1-1.9-2.5C91,10.3,89.7,10.7,89.4,11.7z
	"/>
<path class="st10" d="M89.8,11.9c-0.3,0.8,0.4,1.7,1.5,2c1.1,0.3,2.1-0.1,2.4-0.8c0.3-0.8-0.4-1.7-1.5-2
	C91.2,10.7,90.1,11.1,89.8,11.9z"/>
<ellipse transform="matrix(0.2921 -0.9564 0.9564 0.2921 53.6412 97.6035)" class="st14" cx="92.8" cy="12.6" rx="0.4" ry="0.5"/>
<path class="st15" d="M88.9,6c0,0-1.9,0.8-2.6,0.7l0.5,1.1l2-0.3l0.4-0.5l-0.2-0.8L88.9,6z"/>
<path class="st16" d="M78.1,46.1c0,0,7.9-17.5-8.7-9"/>
<g>
	<path class="st10" d="M80.4,7.2c-1,0.6-1.2,0.5-1.2,0.5S79,8,79.6,8.5c0,0,0.4,0.2,0.7,0.2"/>
	<path class="st10" d="M90.3,8c0,0-3.2,0.9-3.4-0.4c0,0,3.2,0.4,2-1.9c0,0,1.7,0.1,2.1,1.1C91.2,7.3,90.8,7.7,90.3,8"/>
</g>
<path class="st14" d="M96.7,20l-0.2,0.6l-1-0.4C95.5,20.2,96.6,20.2,96.7,20z"/>
<path class="st11" d="M69.8,45.1c0,0-1.9,1,0.1,1.7s9.8,3.2,9.8,3.2s5.6-0.7-1-3.6C78.7,46.4,70.9,44.6,69.8,45.1z"/>
<path class="st17" d="M78.6,27.9c0,0-4.3-5.2,0.2-7.9s8.6,1.5,8.6,1.5s1.5,2.2,1.1,3.3c-0.4,1.1,3.7,2.4,3.7,2.4s5.7-1.1,7.6,2.7
	s-5.8,1.9-5.8,1.9l-0.9-0.4C93.1,31.5,82.4,33.2,78.6,27.9z"/>
<path class="st9" d="M190.2,22l2.3,1.8c0,0,5.1-1.3,6.7,0.5l0.7,0.7c0.5,0.5,0.2,1.4-0.6,1.7c-2.7,1-9.3,3.4-12,3.1"/>
<path class="st10" d="M180.2,7.3c0-0.3,0-0.5,0-0.7c0-0.4-0.6-2.3-0.6-2.5c0-0.2,0.7-1.2,4.5-1.4c3.8-0.2,4,0.4,4.1,0.5
	s0.1,2,0.3,2.4c0.1,0.5,0.6,2,0.6,2c0.1,0.6-2.4,1.2-2.4,1.2S185.6,4,182.7,4L180.2,7.3z"/>
<path class="st9" d="M186.3,40.9c0,0,3.8-1.7,4.1,0c0.3,1.7-0.7,2-0.7,2l-2,0.2l-6.8,0.9l2-1.7L186.3,40.9z"/>
<path class="st11" d="M166.8,44c0,0-12.8-4.8-7.6-16.7s13.4-9.5,13.4-9.5s2.7-0.6,7.4-6.8c0,0,0.2-6.3,2.5-6.8s4.6,4.3,4.6,4.3
	s1-0.4,2.7-0.3c2.1,0.2,5.3,1.4,8.7,5.7c0,0-0.6,3.4,0.2,3.6c0,0-0.5,2.8-2.8,3c-2.3,0.2-0.3,0.6-0.3,0.6s0.3,1.6-2.5,1.2
	c-2.8-0.5-3.3,2.2-3.3,2.2s-1.6,10.1-6.3,10.8c0,0,0.7,7-3,10.5l-5.6,1.5C175,47.1,167.4,46.9,166.8,44z"/>
<path class="st12" d="M186.2,10.4c0,0-1.1-3.9-2.8-4c-1.7-0.2-0.4,6.5-0.4,6.5L186.2,10.4z"/>
<path class="st10" d="M198.5,13.9c0,0,3.3,1.9,0.2,3.6C198.7,17.5,197.5,16.3,198.5,13.9z"/>
<path class="st23" d="M169.1,18.3c0,0,16.8-10.7,5.8-16.2c-8.5-4.3-18.9,3.6-21.9,8.7c-0.9,1.6-2.9,8.6-3,10.6
	c-0.5,8.3,0.9,31.6,17.7,25.5c0,0,0.6-0.7-1.2-2.1c0,0-10.5-6.5-6.2-16.8C160.3,28.1,162.1,21.1,169.1,18.3z"/>
<path class="st14" d="M189.4,12c-0.3,1,0.5,2.1,1.9,2.5c1.3,0.4,2.7-0.1,3-1.1s-0.5-2.1-1.9-2.5S189.7,11,189.4,12z"/>
<path class="st10" d="M189.9,12.2c-0.3,0.8,0.4,1.7,1.5,2c1.1,0.3,2.1-0.1,2.4-0.8s-0.4-1.7-1.5-2C191.2,11,190.1,11.4,189.9,12.2z"
	/>
<ellipse transform="matrix(0.2921 -0.9564 0.9564 0.2921 123.3381 193.7337)" class="st14" cx="192.5" cy="13.6" rx="0.4" ry="0.5"/>
<path class="st15" d="M188.8,6.7c0,0-2,0.6-2.6,0.5l0.4,1.1l2-0.1l0.4-0.4L189,7L188.8,6.7z"/>
<path class="st16" d="M178.1,46.4c0,0,8.8-16-8.7-9"/>
<g>
	<path class="st10" d="M180.3,7c-1.1,0.5-1.3,0.4-1.3,0.4s-0.2,0.2,0.3,0.8c0,0,0.4,0.2,0.7,0.3"/>
	<path class="st10" d="M190,8.8c0,0-3.2,0.5-3.3-0.8c0,0,3.2,0.8,2.2-1.6c0,0,1.7,0.3,2,1.4C191,8.2,190.5,8.6,190,8.8"/>
</g>
<path class="st14" d="M196.7,20.2l-0.2,0.6l-1-0.4C195.5,20.4,196.6,20.4,196.7,20.2z"/>
<path class="st11" d="M168.8,43.8c0,0-2.1,0.8-0.1,1.7c2,0.9,9.3,4.5,9.3,4.5s5.6,0-0.5-3.7C177.4,46.3,169.9,43.4,168.8,43.8z"/>
<path class="st17" d="M178.4,27.9c0,0-3.2-5.9,1.7-7.8c4.9-1.9,8.1,3.1,8.1,3.1s1,2.5,0.4,3.5c-0.6,1,3.2,3.1,3.2,3.1
	s5.8-0.1,6.9,4.1c1.1,4.1-6,0.8-6,0.8l-0.8-0.5C192,34.2,181.2,33.8,178.4,27.9z"/>
<path class="st0" d="M140.2,23.1l2.2,1.8c0,0,5-1.3,6.5,0.5l0.7,0.7c0.5,0.5,0.2,1.4-0.6,1.7c-2.7,1-9.1,3.4-11.8,3.1"/>
<path class="st1" d="M130.6,7.8c0-0.3-0.1-0.5-0.1-0.7c0-0.4-0.8-2.2-0.8-2.5s0.5-1.3,4.2-1.9c3.7-0.7,3.9-0.1,4.1,0.1
	s0.3,1.9,0.5,2.4s0.8,1.9,0.8,1.9c0.2,0.6-2.2,1.4-2.2,1.4s-1.7-4.6-4.5-4.3L130.6,7.8z"/>
<path class="st0" d="M132,43.8c0,0,3.7-1.7,4,0c0.3,1.7-0.7,2-0.7,2l-2,0.2l-6.7,0.9l2-1.7L132,43.8z"/>
<path class="st2" d="M117.6,43.8c0,0-12.8-4.7-7.7-16.6c5.1-11.9,13.1-9.5,13.1-9.5s2.4-0.8,7.2-6.8c0,0,0.3-5.7,2.5-6.8
	c2.1-1.1,4.5,4.3,4.5,4.3s1-0.4,2.6-0.3c2.1,0.2,5.2,1.4,8.5,5.7c0,0-0.6,3.4,0.2,3.6c0,0-0.5,2.8-2.7,3c-2.3,0.2-0.3,0.6-0.3,0.6
	s0.3,1.6-2.4,1.2c-2.7-0.5-3.2,2.2-3.2,2.2s-1.6,10.1-6.1,10.8c0,0,0.7,7-2.9,10.5l-5.5,1.5C125.3,47.1,118.2,46.8,117.6,43.8z"/>
<path class="st3" d="M136.3,10.4c0,0-1.1-3.9-2.7-4c-1.7-0.2-0.4,6.5-0.4,6.5L136.3,10.4z"/>
<path class="st1" d="M148.3,13.4c0,0,3.2,1.9,0.2,3.6C148.5,17,147.4,15.8,148.3,13.4z"/>
<path class="st4" d="M119.5,17.7c0,0,16.5-10.9,5.7-16.6c-8.4-4.4-18.6,4.7-21.5,9.9c-0.9,1.6-2.8,7.7-2.9,9.7
	c-0.4,8.5,1,32.3,17.4,26.1c0,0,0.6-0.7-1.2-2.1c0,0-10.4-6.7-6.1-17.2C110.8,27.6,112.6,20.5,119.5,17.7z"/>
<ellipse transform="matrix(0.2975 -0.9547 0.9547 0.2975 87.4444 144.3308)" class="st5" cx="141.8" cy="12.7" rx="1.9" ry="2.5"/>
<ellipse transform="matrix(0.2975 -0.9547 0.9547 0.2975 87.4444 144.3308)" class="st1" cx="141.8" cy="12.7" rx="1.5" ry="2"/>
<ellipse transform="matrix(0.2975 -0.9547 0.9547 0.2975 88.0146 145.2973)" class="st5" cx="142.7" cy="12.8" rx="0.4" ry="0.5"/>
<path class="st6" d="M139,6.3c0,0-1.9,0.8-2.5,0.7l0.5,1.1l2-0.3l0.4-0.5l-0.2-0.8L139,6.3z"/>
<path class="st7" d="M128.4,46.4c0,0,7.7-17.5-8.6-9"/>
<g>
	<path class="st1" d="M130.7,7.5c-1,0.6-1.2,0.5-1.2,0.5s-0.2,0.2,0.3,0.8c0,0,0.4,0.2,0.7,0.2"/>
	<path class="st1" d="M140.3,8.3c0,0-3.1,0.9-3.3-0.4c0,0,3.2,0.4,2-1.9c0,0,1.7,0.1,2.1,1.1C141.2,7.6,140.8,8,140.3,8.3"/>
</g>
<path class="st5" d="M146.6,20.2l-0.2,0.6l-1-0.4C145.4,20.4,146.5,20.4,146.6,20.2z"/>
<path class="st2" d="M118.6,41.1c0,0-2.2,0.2-0.5,1.6c1.6,1.3,7.7,6.6,7.7,6.6s5.4,1.4,0.4-3.7C126.1,45.7,119.8,41,118.6,41.1z"/>
<path class="st19" d="M128.8,27.9c0,0-3.9-5.2,0.3-7.8s8,1.7,8,1.7s1.3,2.2,0.9,3.3c-0.4,1.1,3.4,2.5,3.4,2.5s5.4-1,7,2.9
	s-5.4,1.7-5.4,1.7l-0.8-0.4C142.2,31.9,132.2,33.2,128.8,27.9z"/>
</svg>
