<?xml version="1.0" encoding="utf-8"?>
<!-- Generator: Adobe Illustrator 19.2.1, SVG Export Plug-In . SVG Version: 6.00 Build 0)  -->
<svg version="1.1" xmlns="http://www.w3.org/2000/svg" xmlns:xlink="http://www.w3.org/1999/xlink" x="0px" y="0px"
	 viewBox="0 0 200 50.3" style="enable-background:new 0 0 200 50.3;" xml:space="preserve">
<style type="text/css">
	.st0{fill:#935932;}
	.st1{fill:#464656;stroke:#943100;stroke-miterlimit:10;}
	.st2{fill:#FFA63F;}
	.st3{fill:#F7B777;}
	.st4{fill:#EA9250;}
	.st5{fill:#464656;}
	.st6{fill:#3A3A49;}
	.st7{fill:#7C340F;}
	.st8{fill:#8C4015;}
	.st9{fill:#FFFFFF;}
	.st10{fill:#943100;}
	.st11{fill:#3D3D4C;}
	.st12{fill:#C48756;}
	.st13{fill:#FFA63F;stroke:#C48756;stroke-width:2;stroke-miterlimit:10;}
	.st14{opacity:0.87;fill:#BA794D;}
	.st15{display:none;}
	.st16{display:inline;fill:#9A6D50;}
	.st17{display:inline;}
	.st18{fill:#784E38;}
	.st19{fill:#B57E47;}
</style>
<g id="Layer_1">
	<g>
		<path class="st0" d="M10.3,25.4l-1.5,2.2c0,0-4.1-0.4-5.1,1.7l-0.4,0.8c-0.3,0.6,0,1.4,0.7,1.5c2.3,0.5,7.7,1.8,9.9,1"/>
		<path class="st0" d="M17,42.9c0,0-3.5-1.8-3.8-0.6c-0.4,1.3,0.6,1.6,0.6,1.6l1.9,0.5L22,46l-1.8-1.6L17,42.9z"/>
		<g>
			<path class="st1" d="M9.2,7.9c0,0-1.6,0.3-1.9,1.4s2.7,1.5,2.7,1.5s5.6,1.1,6.8,0.8s1.6,0,2-0.6c0.4-0.6,0.2-0.8,0.2-0.8
				S18.5,9,17.5,8.6"/>
			<path class="st1" d="M9,9c0,0,0.4-1.6,0.5-2c0.1-0.5,0.1-2.3,0.2-2.4c0.1-0.1,0.3-0.8,3.9-0.6S17.9,5,18,5.2
				c0,0.2-0.5,2.1-0.5,2.5c0,0.4-0.1,2.2-0.1,2.2s0,0.5-0.5,0.4C16.4,10.4,8.7,10.5,9,9z"/>
		</g>
		<path class="st2" d="M36.1,44.6c0,0,9.9-8.4,3.5-19.6s-13.8-7.7-13.8-7.7s-2.4-0.5-7.8-5.8c0,0-1-6.2-3.3-6.4S11,10,11,10
			s-1-0.3-2.5,0.1c-2,0.5-4.8,2.1-7.4,6.8c0,0,1,3.3,0.3,3.6c0,0,0.8,2.7,3,2.6c2.2-0.1,0.5,0.4,0.5,0.4s-0.1,1.9,2.4,1
			s3.4,1.8,3.4,1.8s2.8,9.8,7.3,9.9c0,0,0.2,7,4.1,10l5.4,0.7C27.5,46.8,36,47.6,36.1,44.6z"/>
		<path class="st3" d="M10.8,29c0,0,20.1-17,19.6,18h-7.5l-2.8-2l-0.9-1C19.2,44,10.4,29.8,10.8,29z"/>
		<path class="st4" d="M12.4,11.8c0,0,0.5-4,2.1-4.4s1.3,6.4,1.3,6.4L12.4,11.8z"/>
		<path class="st5" d="M1.2,17c0,0-2.9,2.3,0.3,3.6C1.5,20.5,2.4,19.2,1.2,17z"/>
		<path class="st6" d="M1.5,17c0,0-1.3,2.3,0.1,3.6C1.7,20.5,2.1,19.2,1.5,17z"/>
		<path class="st7" d="M30.8,17.4c0,0-16.8-8.5-7.4-15.6C30.6-3.6,41,4.2,44.7,8.8c1.1,1.4,1.8,2.9,2.4,4.6
			c2.9,8,4.8,37.2-11.3,33.3c0,0-0.6-1.2,0.9-2.8c0,0,8.8-8,3.5-17.7C40.1,26,37.6,19.3,30.8,17.4z"/>
		<path class="st8" d="M30.8,17.4c0,0-16.8-8.5-7.4-15.6c7.3-5.5,16.1,2.4,19.8,6.9c1.1,1.4,2.3,2.9,2.9,4.6
			c2.9,8,5.6,34.5-10.3,33.3c0,0-0.6-1.2,0.9-2.8c0,0,8.8-8,3.5-17.7C40.1,26,37.6,19.3,30.8,17.4z"/>
		<path class="st9" d="M9.6,13.9c0.4,0.9-0.2,2.2-1.4,2.8c-1.2,0.6-2.6,0.3-3-0.7c-0.4-0.9,0.2-2.2,1.4-2.8S9.2,12.9,9.6,13.9z"/>
		<path class="st5" d="M9.1,14.1C9.5,14.8,9,15.8,8,16.3c-1,0.5-2,0.2-2.4-0.5C5.3,15,5.8,14,6.7,13.6C7.7,13.1,8.8,13.3,9.1,14.1z"
			/>
		<path class="st9" d="M6.9,14.9c0.1,0.2,0,0.4-0.3,0.5S6.1,15.5,6,15.4s0-0.4,0.3-0.5S6.8,14.7,6.9,14.9z"/>
		<path class="st10" d="M9.2,8.1c0,0,1.7,0.6,2.3,0.4L11,10L9.4,9.6L9,9.2l0.1-0.8L9.2,8.1z"/>
		<path class="st11" d="M8,10.2c0,0,2.2,0.2,2.9,0S9.7,9.4,9.7,9.4L8,10.2z"/>
		<path class="st12" d="M23.8,46.6c-6.7,1.9-1.5,3.4-1.5,3.4s7.7-1.5,9.8-1.8c2-0.3,0.3-1.6,0.3-1.6"/>
		<path class="st13" d="M24.8,46.8c0,0-9.8-16.8,7.1-10.4"/>
		<path class="st12" d="M20.3,35.6c0,0,5.5-3.7,2.3-7.6s-8.3-1-8.3-1s-2,1.7-2,2.9c0,1.2-4.1,1.2-4.1,1.2s-4.9-2.7-7.8,0.4
			S5,34.9,5,34.9l0.9-0.1C5.9,34.8,15.2,39.4,20.3,35.6z"/>
		<polygon class="st2" points="31.2,38 32.3,46 25.5,46 		"/>
		<path class="st14" d="M9.7,36.7c0,0,13.3-5.6,13.4-7.6C23.1,29,21.6,37.8,9.7,36.7z"/>
	</g>
	<g>
		<path class="st0" d="M59.2,24l-1.5,2.2c0,0-4.1-0.4-5.1,1.7l-0.4,0.8c-0.3,0.6,0,1.4,0.7,1.5c2.3,0.5,7.7,1.8,9.9,1"/>
		<path class="st0" d="M80.1,45.9c0,0-3.9-0.2-3.7,1.1c0.2,1.3,1.2,1.2,1.2,1.2l1.9-0.4l6.5-1.2L83.7,46L80.1,45.9z"/>
		<g>
			<path class="st1" d="M59.4,8.3c0,0-1.6,0.5-1.7,1.6c-0.1,1.1,2.8,1.2,2.8,1.2s5.7,0.5,6.9,0.1c1.2-0.4,1.6-0.2,2-0.8
				c0.4-0.7,0.1-0.8,0.1-0.8s-0.7-1-1.7-1.3"/>
			<path class="st1" d="M59.3,9.4c0,0,0.3-1.6,0.3-2.1c0.1-0.5-0.1-2.3-0.1-2.4c0.1-0.1,0.2-0.8,3.9-1c3.7-0.2,4.4,0.7,4.5,0.9
				C67.9,5,67.6,7,67.7,7.4c0.1,0.4,0.1,2.2,0.1,2.2s0,0.5-0.5,0.5S59.2,11,59.3,9.4z"/>
		</g>
		<path class="st2" d="M86.3,44.6c0,0,9.9-8.7,3.5-20.1C83.4,13.1,76,16.7,76,16.7s-2.4-0.5-7.8-5.9c0,0-1-6.4-3.3-6.6
			c-2.2-0.2-3.8,5-3.8,5s-1-0.3-2.5,0.1c-2,0.5-4.8,2.1-7.4,7c0,0,1,3.4,0.3,3.7c0,0,0.8,2.8,3,2.6S55,23,55,23s-0.1,1.9,2.4,1
			c2.5-0.9,3.4,1.8,3.4,1.8s2.8,10,7.3,10.1c0,0,0.2,7.2,4.1,10.2l5.4,0.7C77.7,46.9,86.2,47.7,86.3,44.6z"/>
		<path class="st3" d="M60.9,29c0,0,20.1-17,19.6,18h-7.5l-2.8-2l-0.9-1C69.3,44,60.6,29.8,60.9,29z"/>
		<path class="st4" d="M63,11c0,0,0.5-4,2.1-4.4c1.6-0.4,1.3,6.4,1.3,6.4L63,11z"/>
		<g>
			<path class="st5" d="M51.7,17.1c0,0-3.2,1.8-0.4,3.6C51.3,20.6,52.5,19.5,51.7,17.1z"/>
			<path class="st6" d="M52,17.1c0,0-1.7,2-0.5,3.6C51.5,20.7,52.2,19.5,52,17.1z"/>
		</g>
		<g>
			<path class="st7" d="M80.9,18.1c0,0-16.8-8.3-7.4-15.2c7.3-5.3,17.7,2.3,21.3,6.7c1.1,1.3,1.8,2.8,2.4,4.5
				c2.9,7.8,4.8,36.4-11.3,32.6c0,0-0.6-1.2,0.9-2.8c0,0,8.8-7.8,3.5-17.4C90.3,26.5,87.7,19.9,80.9,18.1z"/>
			<path class="st8" d="M80.9,18.1c0,0-16.8-8.3-7.4-15.2c7.3-5.3,16.1,2.3,19.8,6.7c1.1,1.3,2.3,2.8,2.9,4.5
				c2.9,7.8,5.6,33.8-10.3,32.6c0,0-0.6-1.2,0.9-2.8c0,0,8.8-7.8,3.5-17.4C90.3,26.5,87.7,19.9,80.9,18.1z"/>
		</g>
		<path class="st9" d="M59.7,13.9c0.4,0.9-0.2,2.2-1.4,2.8s-2.6,0.3-3-0.7c-0.4-0.9,0.2-2.2,1.4-2.8C58,12.7,59.3,13,59.7,13.9z"/>
		<path class="st5" d="M59.6,14.1c0.3,0.8-0.2,1.7-1.1,2.2s-2,0.2-2.4-0.5c-0.3-0.8,0.2-1.7,1.1-2.2C58.2,13.1,59.3,13.4,59.6,14.1z
			"/>
		<path class="st9" d="M57.1,15c0.1,0.2,0,0.4-0.3,0.5c-0.2,0.1-0.5,0.1-0.6-0.1s0-0.4,0.3-0.5S57,14.8,57.1,15z"/>
		<path class="st10" d="M59.4,8.2c0,0,1.7,0.6,2.3,0.4l-0.5,1.5l-1.6-0.4l-0.4-0.4l0.1-0.8L59.4,8.2z"/>
		<path class="st11" d="M58.2,10.3c0,0,2.2,0.2,2.9,0s-1.3-0.8-1.3-0.8L58.2,10.3z"/>
		<path class="st12" d="M68.5,45.1c-6.9-0.6-2.5,2.7-2.5,2.7s7.8,1.3,9.8,1.7c2,0.4,0.9-1.4,0.9-1.4"/>
		<path class="st13" d="M74,46.4c0,0-6.8-18.2,8.8-9"/>
		<polygon class="st2" points="81.3,38 82.5,46 75,46 		"/>
		<g>
			<path class="st12" d="M71.3,33.7c0,0,4.6-4.7,0.6-7.9s-8.4,0.7-8.4,0.7s-1.6,2.1-1.4,3.2c0.3,1.1-3.8,2.1-3.8,2.1s-5.3-1.7-7.5,2
				c-2.2,3.7,5.3,2.5,5.3,2.5l0.9-0.3C57.1,36,67.1,38.6,71.3,33.7z"/>
			<path class="st14" d="M59.3,36.4c0,0,13.7-4.3,14.1-6.3C73.4,30,71.1,38.7,59.3,36.4z"/>
		</g>
	</g>
	<g>
		<path class="st0" d="M159.8,24l-1.5,2.2c0,0-4.1-0.4-5.1,1.7l-0.4,0.9c-0.3,0.6,0,1.4,0.7,1.6c2.3,0.5,7.7,1.8,9.9,1"/>
		<path class="st0" d="M180.7,46.3c0,0-3.9-0.2-3.7,1.1s1.2,1.3,1.2,1.3l1.9-0.4l6.5-1.2l-2.3-0.7L180.7,46.3z"/>
		<g>
			<path class="st1" d="M158.9,8c0,0-1.6,0.5-1.7,1.6c-0.1,1.1,2.8,1.3,2.8,1.3s5.7,0.5,6.9,0.1c1.2-0.4,1.6-0.2,2-0.8
				c0.4-0.7,0.1-0.9,0.1-0.9s-0.7-1-1.7-1.4"/>
			<path class="st1" d="M158.7,9.1c0,0,0.3-1.6,0.3-2.1c0.1-0.5-0.1-2.3-0.1-2.5s0.2-0.8,3.9-1s4.4,0.7,4.5,0.9S167,6.6,167.1,7
				c0.1,0.4,0.1,2.2,0.1,2.2s0,0.5-0.5,0.5C166.3,9.8,158.6,10.7,158.7,9.1z"/>
		</g>
		<path class="st2" d="M186.9,45c0,0,9.9-8.8,3.5-20.5c-6.4-11.6-13.8-8-13.8-8s-2.4-0.5-7.8-6c0,0-1-6.5-3.3-6.7
			c-2.2-0.2-3.8,5.1-3.8,5.1s-1-0.3-2.5,0.1c-2,0.5-4.8,2.2-7.4,7.1c0,0,1,3.5,0.3,3.7c0,0,0.8,2.8,3,2.7c2.2-0.1,0.5,0.4,0.5,0.4
			s-0.1,2,2.4,1.1c2.5-0.9,3.4,1.9,3.4,1.9s2.8,10.3,7.3,10.3c0,0,0.2,7.3,4.1,10.4l5.4,0.7C178.2,47.3,186.7,48.1,186.9,45z"/>
		<path class="st3" d="M161.5,29.1c0,0,20.1-17.4,19.6,18.4h-7.5l-2.8-2l-0.9-1C169.9,44.4,161.1,29.9,161.5,29.1z"/>
		<path class="st4" d="M163.6,10.7c0,0,0.5-4,2.1-4.4c1.6-0.4,1.3,6.5,1.3,6.5L163.6,10.7z"/>
		<g>
			<path class="st5" d="M152.3,16.9c0,0-3.2,1.8-0.4,3.6C151.9,20.6,153.1,19.4,152.3,16.9z"/>
			<path class="st6" d="M152.6,17c0,0-1.7,2.1-0.5,3.6C152.1,20.6,152.7,19.3,152.6,17z"/>
		</g>
		<g>
			<path class="st7" d="M181.5,17.9c0,0-16.8-8.5-7.4-15.5c7.3-5.5,17.7,2.4,21.3,6.9c1.1,1.4,1.8,2.9,2.4,4.5
				c2.9,8,4.8,37.2-11.3,33.3c0,0-0.6-1.2,0.9-2.8c0,0,8.8-8,3.5-17.7C190.9,26.6,188.3,19.8,181.5,17.9z"/>
			<path class="st8" d="M181.5,17.9c0,0-16.8-8.5-7.4-15.5c7.3-5.5,16.1,2.4,19.8,6.9c1.1,1.4,2.3,2.9,2.9,4.5
				c2.9,8,5.6,34.5-10.3,33.3c0,0-0.6-1.2,0.9-2.8c0,0,8.8-8,3.5-17.7C190.9,26.6,188.3,19.8,181.5,17.9z"/>
		</g>
		<path class="st9" d="M160.3,13.7c0.4,1-0.2,2.2-1.4,2.8c-1.2,0.6-2.6,0.3-3-0.7s0.2-2.2,1.4-2.8C158.6,12.4,159.9,12.7,160.3,13.7
			z"/>
		<path class="st5" d="M160.2,13.9c0.3,0.8-0.2,1.8-1.1,2.3c-1,0.5-2,0.2-2.4-0.5c-0.3-0.8,0.2-1.8,1.1-2.3
			C158.8,12.9,159.9,13.1,160.2,13.9z"/>
		<path class="st9" d="M157.7,14.8c0.1,0.2,0,0.4-0.3,0.6s-0.5,0.1-0.6-0.1c-0.1-0.2,0-0.4,0.3-0.6S157.6,14.6,157.7,14.8z"/>
		<path class="st10" d="M158.8,7.8c0,0,1.7,0.6,2.3,0.4l-0.5,1.6L159,9.3l-0.4-0.4l0.1-0.8L158.8,7.8z"/>
		<path class="st11" d="M158.8,10c0,0,2.2,0.2,2.9,0c0.8-0.2-1.3-0.8-1.3-0.8L158.8,10z"/>
		<path class="st12" d="M169.1,45.5c-6.9-0.6-2.5,2.7-2.5,2.7s7.8,1.3,9.8,1.7c2,0.4,0.9-1.4,0.9-1.4"/>
		<path class="st13" d="M174.6,46.8c0,0-6.8-18.6,8.8-9.2"/>
		<polygon class="st2" points="181.8,38.3 183.1,46.4 175.6,46.4 		"/>
		<g>
			<path class="st12" d="M171.9,33.9c0,0,4.6-4.8,0.6-8.1c-4-3.2-8.4,0.7-8.4,0.7s-1.6,2.1-1.4,3.3C163.1,31,159,32,159,32
				s-5.3-1.7-7.5,2s5.3,2.5,5.3,2.5l0.9-0.3C157.7,36.2,167.7,38.9,171.9,33.9z"/>
			<path class="st14" d="M159.9,36.6c0,0,13.7-4.4,14.1-6.5C174,30.1,171.7,39,159.9,36.6z"/>
		</g>
	</g>
	<g>
		<path class="st0" d="M110.3,25.4l-1.5,2.2c0,0-4.1-0.4-5.1,1.7l-0.4,0.8c-0.3,0.6,0,1.4,0.7,1.5c2.3,0.5,7.7,1.8,9.9,1"/>
		<path class="st0" d="M121.6,45.2c0,0-3.5-1.8-3.8-0.6c-0.4,1.3,0.6,1.6,0.6,1.6l1.9,0.5l6.4,1.7l-1.8-1.6L121.6,45.2z"/>
		<g>
			<path class="st1" d="M109.2,7.9c0,0-1.6,0.3-1.9,1.4s2.7,1.5,2.7,1.5s5.6,1.1,6.8,0.8c1.2-0.3,1.6,0,2-0.6s0.2-0.8,0.2-0.8
				s-0.6-1.1-1.6-1.5"/>
			<path class="st1" d="M109,8.9c0,0,0.4-1.6,0.5-2c0.1-0.5,0.1-2.3,0.2-2.4c0.1-0.1,0.3-0.8,3.9-0.6s4.3,1.1,4.4,1.3
				s-0.5,2.1-0.5,2.5c0,0.4-0.1,2.2-0.1,2.2s0,0.5-0.5,0.4C116.4,10.3,108.7,10.4,109,8.9z"/>
		</g>
		<path class="st2" d="M136.1,44.6c0,0,9.9-8.4,3.5-19.6s-13.8-7.7-13.8-7.7s-2.4-0.5-7.8-5.8c0,0-1-6.2-3.3-6.4
			C112.6,5,111,10,111,10s-1-0.3-2.5,0.1c-2,0.5-4.8,2.1-7.4,6.8c0,0,1,3.3,0.3,3.6c0,0,0.8,2.7,3,2.6c2.2-0.1,0.5,0.4,0.5,0.4
			s-0.1,1.9,2.4,1c2.5-0.9,3.4,1.8,3.4,1.8s2.8,9.8,7.3,9.9c0,0,0.2,7,4.1,10l5.4,0.7C127.5,46.8,136,47.6,136.1,44.6z"/>
		<path class="st3" d="M110.8,28.9c0,0,20.1-17,19.6,18h-7.5l-2.8-2l-0.9-1C119.2,43.9,110.4,29.8,110.8,28.9z"/>
		<path class="st4" d="M112.4,11.8c0,0,0.5-4,2.1-4.4c1.6-0.4,1.3,6.4,1.3,6.4L112.4,11.8z"/>
		<path class="st5" d="M101.2,16.9c0,0-2.9,2.3,0.3,3.6C101.5,20.5,102.4,19.2,101.2,16.9z"/>
		<path class="st6" d="M101.5,16.9c0,0-1.3,2.3,0.1,3.6C101.7,20.5,102.1,19.2,101.5,16.9z"/>
		<path class="st7" d="M130.8,17.4c0,0-16.8-8.5-7.4-15.6c7.3-5.5,17.7,2.4,21.3,6.9c1.1,1.4,1.8,2.9,2.4,4.6
			c2.9,8,4.8,37.2-11.3,33.3c0,0-0.6-1.2,0.9-2.8c0,0,8.8-8,3.5-17.7C140.1,26,137.6,19.3,130.8,17.4z"/>
		<path class="st8" d="M131.2,17.1c0,0-16.2-9.7-6.3-16c7.6-4.9,15.9,3.5,19.3,8.3c1,1.4,2.1,3.1,2.6,4.7
			c2.3,8.1,3.3,34.8-12.5,32.5c0,0-0.5-1.3,1-2.8c0,0,9.3-7.4,4.7-17.4C139.9,26.4,137.9,19.5,131.2,17.1z"/>
		<path class="st9" d="M109.6,13.8c0.4,0.9-0.2,2.2-1.4,2.8c-1.2,0.6-2.6,0.3-3-0.7c-0.4-0.9,0.2-2.2,1.4-2.8
			C107.8,12.6,109.2,12.9,109.6,13.8z"/>
		<path class="st5" d="M109.1,14c0.3,0.8-0.2,1.7-1.1,2.2c-1,0.5-2,0.2-2.4-0.5c-0.3-0.8,0.2-1.7,1.1-2.2
			C107.7,13,108.8,13.3,109.1,14z"/>
		<path class="st9" d="M106.9,14.9c0.1,0.2,0,0.4-0.3,0.5s-0.5,0.1-0.6-0.1s0-0.4,0.3-0.5C106.6,14.6,106.8,14.7,106.9,14.9z"/>
		<path class="st10" d="M109.2,8.1c0,0,1.7,0.6,2.3,0.4L111,10l-1.6-0.4L109,9.2l0.1-0.8L109.2,8.1z"/>
		<path class="st11" d="M108,10.2c0,0,2.2,0.2,2.9,0s-1.3-0.8-1.3-0.8L108,10.2z"/>
		<path class="st12" d="M123.8,46.5c-6.7,1.9-1.5,3.4-1.5,3.4s7.7-1.5,9.8-1.8c2-0.3,0.3-1.6,0.3-1.6"/>
		<path class="st13" d="M124.8,46.7c0,0-9.8-16.8,7.1-10.4"/>
		<polygon class="st2" points="131.2,37.9 132.3,45.9 125.5,45.9 		"/>
		<g>
			<path class="st12" d="M120.5,29.7c0,0,2.3-6.2-2.6-7.5c-4.9-1.3-7.4,4.1-7.4,4.1s-0.7,2.6,0,3.5s-2.6,3.4-2.6,3.4
				s-5.6,0.7-6.1,4.9s5.9,0.1,5.9,0.1l0.7-0.6C108.4,37.5,118.6,35.9,120.5,29.7z"/>
			<path class="st14" d="M109.8,36.9c0,0,12-7.9,11.8-10C121.6,26.9,121.7,35.8,109.8,36.9z"/>
		</g>
	</g>
</g>
<g id="Layer_2" class="st15">
	<path class="st16" d="M1191-680c0,0,14,82,14,108S1221-662,1191-680z"/>
	<g class="st17">
		<path class="st18" d="M3.8,22.3c0,0-0.6,19.1,11.6,23.9s6.7,1.4,9.9,3.8c0,0,2.5-1.8,4.2-2.1c0,0,15.1-4.8,16.2-18.7
			c0,0,1-5.8,0-8.4C45.6,20.9,32.1,23.7,3.8,22.3z"/>
		<path class="st19" d="M22.9,11c0,0,1-4.6-0.1-6.8c-1.2-2.2-0.6-3.8,2.1-3.8s4,0.5,4.2,2.1s-1.6,3.7-1.5,5.8
			c0.1,2.1,1.5,3.2,1.5,3.2l1.5-0.4c0,0,15.3-0.4,16.6,5.4c0,0,3.7,2.2,1.8,4.5c0,0,0,2.2-0.4,2.6c-0.4,0.4-0.7,3-1.8,3.2
			s-1,0.1-1,0.1s-9.3,2.8-16.6,2.6c-7.3-0.1-22.1,0-25.2-1.3s-1.9-3-1.9-3s-2.7-3.9-1.6-4.2c0,0,0.3-3.4,1.2-3.6c0,0,0.6-3,4-3.3
			c0,0,2.1-2.2,4.3-2.2S19.2,10.6,22.9,11z"/>
		<path class="st18" d="M22.9,11c0,0,0.8,3.3,6.1,0.4"/>
		<path class="st19" d="M23.5,11c0,0,2.1,1.6,3.9,0"/>
	</g>
	<g class="st17">
		<path class="st18" d="M56.7,37.1c0,0,12.2,14.7,24.7,10s6-3.5,10.1-3.8c0,0,0.7-3,1.8-4.4c0,0,8.4-13.8,0-24.9c0,0-3-5-5.5-6.3
			C87.7,7.7,79.2,18.9,56.7,37.1z"/>
		<path class="st19" d="M63.8,15.7c0,0-2.3-4.1-4.6-5s-3-2.5-0.9-4.3s3.4-2.3,4.6-1.2S64,9,65.5,10.5c1.5,1.5,3.2,1.4,3.2,1.4
			l0.9-1.3c0,0,11.4-10.6,16.3-7.2c0,0,4.3-0.8,4.3,2.1c0,0,1.5,1.7,1.4,2.3c-0.1,0.6,1.4,2.8,0.7,3.6c-0.7,0.8-0.7,0.8-0.7,0.8
			s-5.3,8.4-10.9,13.2c-5.6,4.8-16.9,15-20.1,16.1c-3.3,1.1-3.5-1-3.5-1s-4.7-1.1-4-2c0,0-2-2.8-1.4-3.5c0,0-1.6-2.7,0.9-5.2
			c0,0,0.1-3.1,1.8-4.6C56,23.7,60.7,17.9,63.8,15.7z"/>
		<path class="st18" d="M63.8,15.7c0,0,2.8,2,4.9-3.8"/>
		<path class="st19" d="M64.3,15.3c0,0,2.7-0.3,3-2.7"/>
	</g>
	<g class="st17">
		<path class="st18" d="M122.5,46.5c0,0,19.1,0.3,23.7-12.2s1.3-6.8,3.7-10.2c0,0-1.8-2.5-2.1-4.2c0,0-5.1-15.4-18.9-16.2
			c0,0-5.8-1-8.4,0.1C120.4,3.9,123.4,17.6,122.5,46.5z"/>
		<path class="st19" d="M110.9,27.2c0,0-4.6-1-6.8,0.3c-2.2,1.2-3.8,0.7-3.8-2.1c0-2.7,0.5-4.1,2-4.3c1.6-0.2,3.7,1.6,5.8,1.4
			c2.1-0.2,3.1-1.6,3.1-1.6l-0.4-1.5c0,0-0.7-15.6,5.1-17c0,0,2.2-3.8,4.4-1.9c0,0,2.2,0,2.6,0.4c0.4,0.4,3,0.7,3.2,1.8
			c0.1,1.1,0.1,1.1,0.1,1.1s2.9,9.5,2.9,16.9c0,7.4,0.4,22.5-0.9,25.7c-1.3,3.2-3,2-3,2s-3.9,2.8-4.2,1.7c0,0-3.4-0.2-3.6-1.1
			c0,0-3-0.6-3.4-4c0,0-2.3-2.1-2.3-4.4C111.9,38.4,110.6,31,110.9,27.2z"/>
		<path class="st18" d="M110.9,27.2c0,0,3.3-0.9,0.3-6.2"/>
		<path class="st19" d="M110.9,26.6c0,0,1.5-2.2-0.1-4"/>
	</g>
	<g class="st17">
		<path class="st18" d="M189.2,42.2c0,0,13.8-13.2,8.3-25.3s-3.9-5.7-4.6-9.8c0,0-3.1-0.5-4.5-1.5c0,0-14.4-7.4-24.8,1.8
			c0,0-4.8,3.4-5.9,6C157.7,13.3,169.5,21,189.2,42.2z"/>
		<path class="st19" d="M167.3,36.6c0,0-4,2.5-4.7,5c-0.7,2.4-2.2,3.1-4.2,1.2c-1.9-1.9-2.5-3.2-1.6-4.5c1-1.2,3.8-1.5,5.1-3.1
			c1.4-1.6,1.1-3.3,1.1-3.3l-1.4-0.8c0,0-11.4-10.6-8.3-15.7c0,0-1.1-4.2,1.8-4.5c0,0,1.6-1.6,2.2-1.6s2.7-1.6,3.5-1
			c0.8,0.6,0.8,0.6,0.8,0.6s8.7,4.7,13.9,10s16.1,15.8,17.5,19c1.3,3.2-0.7,3.5-0.7,3.5s-0.8,4.7-1.8,4.2c0,0-2.6,2.2-3.4,1.7
			c0,0-2.5,1.7-5.2-0.5c0,0-3.1,0.1-4.7-1.5C175.9,43.9,169.8,39.5,167.3,36.6z"/>
		<path class="st18" d="M167.3,36.6c0,0,1.8-2.9-4.2-4.6"/>
		<path class="st19" d="M166.9,36.2c0,0-0.5-2.6-2.9-2.8"/>
	</g>
	<g class="st17">
		<path class="st18" d="M245.9,28.7c0,0,1.3-19-10.7-24.3c-12-5.3-6.6-1.6-9.8-4.2c0,0-2.6,1.7-4.2,1.9c0,0-15.3,4.2-16.9,18
			c0,0-1.3,5.7-0.3,8.4C204,28.5,217.6,26.3,245.9,28.7z"/>
		<path class="st19" d="M226.3,39.2c0,0-1.2,4.6-0.1,6.8c1.1,2.3,0.4,3.8-2.2,3.7c-2.7-0.1-4-0.7-4.1-2.3c-0.1-1.6,1.8-3.6,1.7-5.7
			c-0.1-2.1-1.4-3.2-1.4-3.2l-1.5,0.3c0,0-15.3-0.2-16.4-6c0,0-3.6-2.4-1.6-4.5c0,0,0.1-2.2,0.5-2.6c0.5-0.4,0.9-3,1.9-3.1
			c1-0.1,1-0.1,1-0.1s9.4-2.4,16.7-2s22.1,0.8,25.1,2.3c3.1,1.4,1.8,3.1,1.8,3.1s2.5,4,1.5,4.3c0,0-0.4,3.4-1.3,3.5
			c0,0-0.7,3-4.1,3.1c0,0-2.2,2.2-4.4,2.1S230,39.8,226.3,39.2z"/>
		<path class="st18" d="M226.3,39.2c0,0-0.7-3.4-6.1-0.6"/>
		<path class="st19" d="M225.8,39.3c0,0-2.1-1.6-3.9-0.1"/>
	</g>
	<g class="st17">
		<path class="st18" d="M292.5,11.9c0,0-13.1-13.9-25.2-8.5c-12.2,5.4-5.8,3.9-9.9,4.5c0,0-0.6,3.1-1.5,4.5c0,0-7.5,14.3,1.6,24.9
			c0,0,3.3,4.8,5.9,5.9C263.4,43.1,271.2,31.4,292.5,11.9z"/>
		<path class="st19" d="M286.7,33.6c0,0,2.5,4,5,4.7c2.4,0.7,3.1,2.3,1.2,4.2c-1.9,1.9-3.3,2.5-4.5,1.5c-1.2-1-1.4-3.8-3-5.2
			s-3.3-1.2-3.3-1.2l-0.8,1.4c0,0-10.7,11.3-15.8,8.2c0,0-4.3,1.1-4.4-1.9c0,0-1.6-1.6-1.5-2.2c0-0.6-1.6-2.7-1-3.5
			c0.7-0.8,0.7-0.8,0.7-0.8s4.8-8.7,10.1-13.9s15.9-16,19.1-17.3s3.5,0.7,3.5,0.7s4.7,0.9,4.2,1.8c0,0,2.2,2.6,1.7,3.4
			c0,0,1.7,2.6-0.6,5.2c0,0,0.1,3.1-1.5,4.7S289.7,31.2,286.7,33.6z"/>
		<path class="st18" d="M286.7,33.6c0,0-2.9-1.8-4.7,4.1"/>
		<path class="st19" d="M286.3,34.1c0,0-2.7,0.4-2.8,2.8"/>
	</g>
	<g class="st17">
		<path class="st18" d="M328.5,3.7c0,0-19-0.9-23.9,11.5c-4.9,12.3-1.5,6.8-4,10.1c0,0,1.7,2.6,2,4.3c0,0,4.6,15.5,18.4,16.7
			c0,0,5.7,1.1,8.3,0.1C329.3,46.4,326.7,32.6,328.5,3.7z"/>
		<path class="st19" d="M339.4,23.4c0,0,4.6,1.1,6.8-0.1c2.2-1.2,3.8-0.6,3.8,2.2c0,2.7-0.6,4.1-2.2,4.2c-1.6,0.1-3.6-1.7-5.7-1.6
			c-2.1,0.1-3.2,1.5-3.2,1.5l0.4,1.5c0,0,0.2,15.6-5.6,16.9c0,0-2.3,3.8-4.5,1.8c0,0-2.2,0-2.6-0.5s-3-0.8-3.1-1.9
			c-0.1-1.1-0.1-1.1-0.1-1.1s-2.6-9.6-2.4-17c0.2-7.4,0.3-22.5,1.6-25.7c1.4-3.2,3-1.9,3-1.9s4-2.7,4.2-1.6c0,0,3.4,0.3,3.5,1.3
			c0,0,3,0.6,3.2,4.1c0,0,2.2,2.1,2.2,4.4C338.8,12.2,339.9,19.6,339.4,23.4z"/>
		<path class="st18" d="M339.4,23.4c0,0-3.3,0.8-0.5,6.2"/>
		<path class="st19" d="M339.5,24c0,0-1.6,2.2-0.1,4"/>
	</g>
	<g class="st17">
		<path class="st18" d="M359.6,9.2c0,0-12.5,14.4-5.9,26c6.6,11.6,4.4,5.4,5.5,9.4c0,0,3.1,0.2,4.6,1.1c0,0,15,6,24.6-4.1
			c0,0,4.5-3.8,5.3-6.5C393.6,35.1,381.2,28.5,359.6,9.2z"/>
		<path class="st19" d="M381.8,12.8c0,0,3.7-2.9,4.2-5.4s1.9-3.3,4-1.6s2.8,3,2,4.3s-3.6,1.8-4.8,3.5s-0.8,3.4-0.8,3.4l1.4,0.6
			c0,0,12.4,9.5,9.8,14.9c0,0,1.5,4.1-1.4,4.6c0,0-1.4,1.7-2,1.8c-0.6,0-2.5,1.9-3.4,1.3c-0.9-0.6-0.9-0.6-0.9-0.6
			s-9.1-3.9-14.8-8.6s-17.5-14.2-19.1-17.2c-1.6-3,0.4-3.6,0.4-3.6s0.4-4.8,1.4-4.3c0,0,2.4-2.5,3.2-2c0,0,2.4-2,5.2,0
			c0,0,3.1-0.4,4.8,1C372.7,6.4,379.2,10.1,381.8,12.8z"/>
		<path class="st18" d="M381.8,12.8c0,0-1.5,3.1,4.6,4.2"/>
		<path class="st19" d="M382.3,13.1c0,0,0.7,2.6,3.1,2.5"/>
	</g>
</g>
</svg>
