<?xml version="1.0" encoding="utf-8"?>
<!-- Generator: Adobe Illustrator 19.2.1, SVG Export Plug-In . SVG Version: 6.00 Build 0)  -->
<svg version="1.1" id="Layer_1" xmlns="http://www.w3.org/2000/svg" xmlns:xlink="http://www.w3.org/1999/xlink" x="0px" y="0px"
	 viewBox="0 0 399.9 50" style="enable-background:new 0 0 399.9 50;" xml:space="preserve">
<style type="text/css">
	.st0{fill:#902700;stroke:#303030;stroke-width:0.1004;stroke-miterlimit:10;}
	.st1{fill:#183341;stroke:#303030;stroke-width:0.1004;stroke-miterlimit:10;}
	.st2{fill:#FEB028;stroke:#303030;stroke-width:0.1004;stroke-miterlimit:10;}
	.st3{fill:#EA9250;stroke:#303030;stroke-width:0.1004;stroke-miterlimit:10;}
	.st4{fill:#902700;stroke:#303030;stroke-width:9.884335e-02;stroke-miterlimit:10;}
	.st5{fill:#FFFFFF;stroke:#303030;stroke-width:0.1004;stroke-miterlimit:10;}
	.st6{fill:#BB0D0F;stroke:#303030;stroke-width:0.1004;stroke-miterlimit:10;}
	.st7{fill:none;stroke:#303030;stroke-width:0.3013;stroke-miterlimit:10;}
	.st8{fill:#EA982D;stroke:#303030;stroke-width:0.1004;stroke-miterlimit:10;}
	.st9{fill:#902700;stroke:#303030;stroke-width:0.1014;stroke-miterlimit:10;}
	.st10{fill:#183341;stroke:#303030;stroke-width:0.1014;stroke-miterlimit:10;}
	.st11{fill:#FEB028;stroke:#303030;stroke-width:0.1014;stroke-miterlimit:10;}
	.st12{fill:#EA9250;stroke:#303030;stroke-width:0.1014;stroke-miterlimit:10;}
	.st13{fill:#902700;stroke:#303030;stroke-width:9.984347e-02;stroke-miterlimit:10;}
	.st14{fill:#FFFFFF;stroke:#303030;stroke-width:0.1014;stroke-miterlimit:10;}
	.st15{fill:#BB0D0F;stroke:#303030;stroke-width:0.1014;stroke-miterlimit:10;}
	.st16{fill:none;stroke:#303030;stroke-width:0.3043;stroke-miterlimit:10;}
	.st17{fill:#EA982D;stroke:#303030;stroke-width:0.1014;stroke-miterlimit:10;}
	.st18{fill:#902700;stroke:#303030;stroke-width:9.459385e-02;stroke-miterlimit:10;}
	.st19{fill:#EA982D;stroke:#303030;stroke-width:9.732883e-02;stroke-miterlimit:10;}
	.st20{fill:#183341;stroke:#303030;stroke-width:3.741861e-02;stroke-miterlimit:10;}
	.st21{fill:none;stroke:#303030;stroke-width:0.2894;stroke-miterlimit:10;}
	.st22{fill:#902700;stroke:#303030;stroke-width:9.704877e-02;stroke-miterlimit:10;}
	.st23{fill:#902700;stroke:#303030;stroke-width:9.873430e-02;stroke-miterlimit:10;}
</style>
<path class="st0" d="M387.3,30.9c2.7,0.3,9.1-2.1,11.8-3.1c0.8-0.3,1.1-1.2,0.6-1.7l-0.7-0.7c-1.5-1.8-6.5-0.5-6.5-0.5l-2.2-1.8"/>
<path class="st1" d="M382.8,4.2c2.8-0.3,4.5,4.3,4.5,4.3s2.4-0.8,2.2-1.4c0,0-0.6-1.4-0.8-1.9c-0.2-0.5-0.3-2.2-0.5-2.4
	c-0.2-0.2-0.4-0.7-4.1-0.1c-3.7,0.6-4.2,1.6-4.2,1.9s0.8,2.1,0.8,2.5c0,0.2,0.1,0.4,0.1,0.7L382.8,4.2z"/>
<path class="st0" d="M378.7,45.2l-2,1.7l6.7-0.9l2-0.2c0,0,1-0.3,0.7-2c-0.3-1.7-4,0-4,0L378.7,45.2z"/>
<path class="st2" d="M375.6,47.2l5.5-1.5c3.6-3.5,2.9-10.5,2.9-10.5c4.5-0.7,6.1-10.8,6.1-10.8s0.5-2.7,3.2-2.2
	c2.7,0.5,2.4-1.1,2.4-1.1s-2-0.4,0.3-0.6c2.2-0.2,2.7-3,2.7-3c-0.8-0.2-0.2-3.6-0.2-3.6c-3.3-4.3-6.4-5.5-8.5-5.7
	c-1.6-0.1-2.6,0.3-2.6,0.3s-2.2-4.8-4.5-4.3c-2.3,0.5-2.5,6.8-2.5,6.8c-4.8,6-7.2,6.8-7.2,6.8s-8-2.4-13.1,9.5
	c-5.1,11.9,6.2,18.2,6.2,18.2C366.8,48.4,375.5,47.1,375.6,47.2z"/>
<path class="st3" d="M383.3,12.9c0,0-1.3-6.7,0.4-6.5c1.6,0.1,2.7,4,2.7,4L383.3,12.9z"/>
<path class="st1" d="M398.7,17.5c3-1.7-0.2-3.6-0.2-3.6C397.6,16.3,398.7,17.5,398.7,17.5z"/>
<path class="st4" d="M361,27.5c-4.3,10.5,6.1,17.2,6.1,17.2c1.8,1.4,1.2,2.1,1.2,2.1c-16.4,6.2-17.8-17.6-17.4-26.1
	c0.1-2,2-8.1,2.9-9.7c2.9-5.2,13.1-14.3,21.5-9.9c10.8,5.7-5.7,16.6-5.7,16.6C362.7,20.5,361,27.6,361,27.5z"/>
<ellipse transform="matrix(0.2975 -0.9547 0.9547 0.2975 263.2258 383.1663)" class="st5" cx="392" cy="12.7" rx="1.9" ry="2.5"/>
<ellipse transform="matrix(0.2975 -0.9547 0.9547 0.2975 263.2258 383.1663)" class="st1" cx="392" cy="12.7" rx="1.5" ry="2"/>
<ellipse transform="matrix(0.2975 -0.9547 0.9547 0.2975 263.7752 384.0875)" class="st5" cx="392.9" cy="12.8" rx="0.4" ry="0.5"/>
<path class="st6" d="M389.3,6.5l0.2,0.8l-0.4,0.5l-2,0.3L386.6,7c0.6,0.1,2.5-0.7,2.5-0.7L389.3,6.5z"/>
<path class="st7" d="M370,37.4c16.3-8.5,8.6,9,8.6,9"/>
<g>
	<path class="st1" d="M380.6,9c-0.3,0-0.7-0.2-0.7-0.2c-0.5-0.6-0.3-0.8-0.3-0.8s0.2,0.1,1.2-0.5"/>
	<path class="st1" d="M390.5,8.3c0.5-0.3,0.9-0.7,0.8-1.2c-0.4-1-2.1-1.1-2.1-1.1c1.2,2.3-2,1.9-2,1.9
		C387.4,9.2,390.5,8.3,390.5,8.3"/>
</g>
<path class="st5" d="M395.6,20.4l1,0.4l0.2-0.6C396.6,20.4,395.6,20.4,395.6,20.4z"/>
<path class="st2" d="M377.8,46.9c6.8,1.8,1.5,3.4,1.5,3.4s-7.9-1.5-10-1.8s-0.4-1.6-0.4-1.6C369.8,46.2,377.7,46.9,377.8,46.9z"/>
<path class="st8" d="M393.2,31.8l0.8,0.4c0,0,7.4,1.8,5.6-2c-1.8-3.8-7.4-2.7-7.4-2.7s-4-1.3-3.6-2.4c0.5-1.1-1-3.3-1-3.3
	s-4-4.2-8.4-1.5c-4.4,2.7-0.2,7.9-0.2,7.9C382.8,33.4,393.2,31.8,393.2,31.8z"/>
<path class="st9" d="M337.3,29.8c2.7,0.3,9.3-2.1,12-3.1c0.8-0.3,1.1-1.2,0.6-1.7l-0.6-0.7c-1.6-1.8-6.7-0.5-6.7-0.5l-2.3-1.8"/>
<path class="st10" d="M332.9,4c2.8,0,4.1,4.8,4.1,4.8s2.4-0.6,2.3-1.2c0,0-0.5-1.5-0.6-2c-0.2-0.4-0.2-2.3-0.3-2.4s-0.3-0.7-4.1-0.5
	c-3.8,0.2-4.5,1.2-4.5,1.4c0,0.2,0.6,2.1,0.6,2.5c0,0.2,0,0.4,0,0.7L332.9,4z"/>
<path class="st9" d="M333,42.3l-2,1.7l6.9-0.9l2-0.2c0,0,1-0.3,0.7-2c-0.3-1.7-4.1,0-4.1,0L333,42.3z"/>
<path class="st11" d="M325.1,47.2l5.6-1.5c3.7-3.5,3-10.5,3-10.5c4.7-0.7,6.3-10.8,6.3-10.8s0.5-2.7,3.3-2.2
	c2.8,0.4,2.5-1.2,2.5-1.2s-2-0.4,0.3-0.6c2.3-0.2,2.8-3,2.8-3c-0.8-0.2-0.2-3.6-0.2-3.6c-3.4-4.3-6.6-5.5-8.7-5.7
	c-1.6-0.1-2.7,0.4-2.7,0.4s-2.3-4.8-4.6-4.3c-2.3,0.5-2.5,6.8-2.5,6.8c-4.7,6.2-7.4,6.8-7.4,6.8s-8.2-2.4-13.4,9.5S317,44,317,44
	C317.5,46.9,325.1,47.1,325.1,47.2z"/>
<path class="st12" d="M333.1,12.9c0,0-1.3-6.7,0.4-6.5c1.7,0.1,2.8,4,2.8,4L333.1,12.9z"/>
<path class="st10" d="M348.8,17.5c3.1-1.7-0.2-3.6-0.2-3.6C347.7,16.3,348.8,17.5,348.8,17.5z"/>
<path class="st13" d="M310.5,27.6c-4.4,10.5,3.9,14.9,3.9,14.9c1.7,0.3,2.6,1.5,2.6,1.5c-16.8,6.2-17.3-14.7-16.9-23.2
	c0.1-2,2.1-9.2,3-10.8c3-5.2,13.4-13.3,21.9-8.9c11,5.7-5.8,16.6-5.8,16.6C312.1,20.5,310.4,27.6,310.5,27.6z"/>
<path class="st14" d="M342.5,10.9c1.4,0.4,2.2,1.5,1.9,2.5s-1.7,1.5-3,1.1c-1.4-0.4-2.2-1.5-1.9-2.5C339.8,11,341.1,10.5,342.5,10.9
	z"/>
<path class="st10" d="M342.4,11.4c1.1,0.3,1.8,1.3,1.5,2c-0.3,0.7-1.3,1.1-2.4,0.8c-1.1-0.3-1.8-1.2-1.5-2
	C340.3,11.4,341.3,11,342.4,11.4z"/>
<ellipse transform="matrix(0.2921 -0.9564 0.9564 0.2921 229.5612 337.3397)" class="st14" cx="342.7" cy="13.6" rx="0.4" ry="0.5"/>
<path class="st15" d="M339.1,7l0.1,0.8l-0.4,0.4l-2,0.1l-0.4-1.1c0.6,0.1,2.6-0.5,2.6-0.5L339.1,7z"/>
<path class="st16" d="M319.6,37.4c17.5-7,8.7,9,8.7,9"/>
<g>
	<path class="st10" d="M330.1,8.5c-0.3-0.1-0.7-0.3-0.7-0.3c-0.5-0.6-0.3-0.8-0.3-0.8s0.2,0.1,1.3-0.4"/>
	<path class="st10" d="M340.1,8.8c0.6-0.2,1-0.6,0.9-1c-0.3-1.1-2-1.4-2-1.4c1,2.4-2.2,1.6-2.2,1.6C336.9,9.3,340.1,8.8,340.1,8.8"
		/>
</g>
<path class="st14" d="M345.7,20.4l1,0.4l0.2-0.6C346.7,20.4,345.7,20.4,345.7,20.4z"/>
<path class="st11" d="M327.6,46.3c6.1,3.7,0.5,3.7,0.5,3.7s-7.3-3.6-9.3-4.5s0.1-1.7,0.1-1.7C320.1,43.4,327.6,46.3,327.6,46.3z"/>
<path class="st17" d="M342.1,34.2l0.8,0.5c0,0,7.1,3.3,6-0.8c-1.1-4.2-6.9-4.1-6.9-4.1s-3.8-2.1-3.2-3.1s-0.4-3.5-0.4-3.5
	s-3.2-5-8.1-3.1c-4.9,1.9-1.7,7.8-1.7,7.8C331.3,33.8,342.1,34.2,342.1,34.2z"/>
<path class="st0" d="M287.3,30.9c2.7,0.3,9.1-2.1,11.8-3.1c0.8-0.3,1.1-1.2,0.6-1.7l-0.7-0.7c-1.5-1.8-6.5-0.5-6.5-0.5l-2.2-1.8"/>
<path class="st1" d="M282.8,4.2c2.8-0.3,4.5,4.3,4.5,4.3s2.4-0.8,2.2-1.4c0,0-0.6-1.4-0.8-1.9c-0.2-0.5-0.3-2.2-0.5-2.4
	c-0.2-0.2-0.4-0.8-4.1-0.1c-3.7,0.6-4.2,1.7-4.2,1.9c0,0.3,0.8,2.1,0.8,2.5c0,0.2,0.1,0.4,0.1,0.7L282.8,4.2z"/>
<path class="st0" d="M278.7,45.2l-2,1.7l6.7-0.9l2-0.2c0,0,1-0.3,0.7-2c-0.3-1.7-4,0-4,0L278.7,45.2z"/>
<path class="st2" d="M275.6,47.2l5.5-1.5c3.6-3.5,2.9-10.5,2.9-10.5c4.5-0.7,6.1-10.8,6.1-10.8s0.5-2.7,3.2-2.2
	c2.7,0.4,2.4-1.2,2.4-1.2s-2-0.4,0.3-0.6c2.2-0.2,2.7-3,2.7-3c-0.8-0.2-0.2-3.6-0.2-3.6c-3.3-4.3-6.4-5.5-8.5-5.7
	c-1.6-0.1-2.6,0.3-2.6,0.3S285,3,282.9,4.1c-2.2,1.1-2.5,6.8-2.5,6.8c-4.8,6-7.2,6.8-7.2,6.8s-8-2.4-13.1,9.5
	c-5.1,11.9,7.7,16.6,7.7,16.6C268.3,46.8,275.5,47.1,275.6,47.2z"/>
<path class="st3" d="M283.3,12.9c0,0-1.3-6.7,0.4-6.5c1.6,0.1,2.7,4,2.7,4L283.3,12.9z"/>
<path class="st1" d="M298.7,17c3-1.7-0.2-3.6-0.2-3.6C297.6,15.8,298.7,17,298.7,17z"/>
<path class="st18" d="M260.9,26.3c-4.2,9.6,4.6,15.8,4.6,15.8c1.8,1.3,0.9,1.7,0.9,1.7c-16.4,5.7-16-15.8-15.5-23.7
	c0.1-1.8,2.1-7.4,3-8.9C256.8,6.4,267-2,275.4,2c10.8,5.1-5.7,15.2-5.7,15.2C262.8,19.8,261,26.3,260.9,26.3z"/>
<ellipse transform="matrix(0.2975 -0.9547 0.9547 0.2975 192.9775 287.6966)" class="st5" cx="292" cy="12.7" rx="1.9" ry="2.5"/>
<ellipse transform="matrix(0.2975 -0.9547 0.9547 0.2975 192.9775 287.6966)" class="st1" cx="292" cy="12.7" rx="1.5" ry="2"/>
<ellipse transform="matrix(0.2975 -0.9547 0.9547 0.2975 193.5267 288.6178)" class="st5" cx="292.9" cy="12.8" rx="0.4" ry="0.5"/>
<path class="st6" d="M289.3,6.5l0.2,0.8l-0.4,0.5l-2,0.3L286.6,7c0.6,0.1,2.5-0.7,2.5-0.7L289.3,6.5z"/>
<path class="st7" d="M270,37.4c16.3-8.5,8.6,9,8.6,9"/>
<g>
	<path class="st1" d="M280.6,9c-0.3,0-0.7-0.2-0.7-0.2c-0.5-0.6-0.3-0.8-0.3-0.8s0.2,0.1,1.2-0.5"/>
	<path class="st1" d="M290.5,8.3c0.5-0.3,0.9-0.7,0.8-1.2c-0.4-1-2.1-1.1-2.1-1.1c1.2,2.3-2,1.9-2,1.9
		C287.4,9.2,290.5,8.3,290.5,8.3"/>
</g>
<path class="st5" d="M295.6,20.4l1,0.4l0.2-0.6C296.6,20.4,295.6,20.4,295.6,20.4z"/>
<path class="st2" d="M276.3,45.6c5,5.1-0.4,3.7-0.4,3.7s-6.1-5.3-7.7-6.6c-1.7-1.4,0.5-1.6,0.5-1.6C269.9,41,276.3,45.7,276.3,45.6z
	"/>
<path class="st19" d="M293.2,31.2l0.8,0.3c0,0,7.3,1.2,5.2-2.4c-2.2-3.6-7.4-2-7.4-2s-4-0.9-3.7-2c0.3-1.1-1.3-3.2-1.3-3.2
	s-4.3-3.8-8.2-0.7c-3.9,3.1,0.6,7.8,0.6,7.8C283.3,33.8,293,31.3,293.2,31.2z"/>
<path class="st9" d="M237.4,30.9c2.7,0.3,9.3-2.1,12-3.1c0.8-0.3,1.1-1.2,0.6-1.7l-0.7-0.7c-1.6-1.8-6.7-0.5-6.7-0.5l-2.3-1.8"/>
<path class="st10" d="M232.7,4.2c2.8-0.3,4.5,4.3,4.5,4.3s2.4-0.8,2.2-1.4c0,0-0.7-1.4-0.8-1.9s-0.4-2.3-0.5-2.4
	c-0.1-0.2-0.4-0.7-4.1-0.1s-4.3,1.7-4.3,1.9c0,0.3,0.8,2.1,0.8,2.5c0,0.2,0.1,0.4,0.1,0.7L232.7,4.2z"/>
<path class="st9" d="M228.5,45.2l-2,1.7l6.8-0.9l2-0.2c0,0,1-0.3,0.7-2s-4.1,0-4.1,0L228.5,45.2z"/>
<path class="st11" d="M225.2,47.3l5.6-1.5c3.7-3.5,3-10.5,3-10.5c4.7-0.7,6.3-10.8,6.3-10.8s0.5-2.7,3.3-2.2
	c2.8,0.4,2.5-1.2,2.5-1.2s-2-0.4,0.3-0.6s2.8-3,2.8-3c-0.8-0.2-0.2-3.6-0.2-3.6c-3.4-4.3-6.6-5.5-8.7-5.7c-1.7-0.1-2.7,0.3-2.7,0.3
	s-2.3-4.8-4.6-4.3s-2.5,6.8-2.5,6.8c-5,6-7.4,6.8-7.4,6.8s-8.2-2.4-13.4,9.5s6.3,18.2,6.3,18.2C216.3,48.4,225.1,47.1,225.2,47.3z"
	/>
<path class="st12" d="M233.1,12.9c0,0-1.3-6.7,0.4-6.5c1.7,0.1,2.8,4,2.8,4L233.1,12.9z"/>
<path class="st10" d="M248.8,17.5c3.1-1.7-0.2-3.6-0.2-3.6C247.7,16.3,248.8,17.5,248.8,17.5z"/>
<path class="st13" d="M210.5,27.5c-4.4,10.5,6.2,17.2,6.2,17.2c1.8,1.4,1.2,2.1,1.2,2.1c-16.8,6.2-18.2-17.6-17.8-26.1
	c0.1-2,2.1-8.1,3-9.7c3-5.2,13.4-14.3,21.9-9.9c11,5.7-5.8,16.6-5.8,16.6C212.1,20.5,210.4,27.6,210.5,27.5z"/>
<path class="st14" d="M242.5,10.9c1.4,0.4,2.2,1.5,1.9,2.5s-1.7,1.5-3,1.1c-1.4-0.4-2.2-1.5-1.9-2.5S241.2,10.5,242.5,10.9z"/>
<path class="st20" d="M242.1,12.4c1.1,0.3,1.9,0.7,1.9,0.8s-0.9-0.1-2-0.4c-1.1-0.3-1.9-0.7-1.9-0.8
	C240.2,11.9,241.1,12.1,242.1,12.4z"/>
<path class="st15" d="M239.2,6.5l0.2,0.8L239,7.8l-2,0.3L236.5,7c0.7,0.1,2.6-0.7,2.6-0.7L239.2,6.5z"/>
<path class="st21" d="M219.6,37.4c14.9-8.2,8,9.1,8,9.1"/>
<g>
	<path class="st10" d="M230.4,9c-0.3,0-0.7-0.2-0.7-0.2c-0.5-0.6-0.3-0.8-0.3-0.8s0.2,0.1,1.2-0.5"/>
	<path class="st10" d="M240.5,8.3c0.5-0.3,0.8-0.7,0.7-1.2c-0.4-1-2.1-1.1-2.1-1.1c1.2,2.3-2,1.9-2,1.9
		C237.3,9.2,240.5,8.3,240.5,8.3"/>
</g>
<path class="st14" d="M245.7,20.4l1,0.4l0.2-0.6C246.7,20.4,245.7,20.4,245.7,20.4z"/>
<path class="st11" d="M227.5,46.9c6.9,1.8,1.5,3.4,1.5,3.4s-8-1.5-10.2-1.8s-0.4-1.6-0.4-1.6C219.4,46.2,227.4,46.9,227.5,46.9z"/>
<path class="st17" d="M243.3,31.7l0.9,0.4c0,0,7.7,1.9,5.8-1.9s-7.6-2.7-7.6-2.7s-4.1-1.3-3.7-2.4c0.4-1.1-1.1-3.3-1.1-3.3
	s-4.1-4.3-8.6-1.5c-4.5,2.7-0.2,7.9-0.2,7.9C232.6,33.4,243.2,31.8,243.3,31.7z"/>
<path class="st1" d="M198.7,17.2c3-1.7-0.2-3.6-0.2-3.6C197.6,16,198.7,17.2,198.7,17.2z"/>
<path class="st9" d="M37.4,30.7c2.7,0.3,9.3-2.1,12-3.1c0.8-0.3,1.1-1.2,0.6-1.7l-0.7-0.7c-1.6-1.8-6.7-0.5-6.7-0.5l-2.3-1.8"/>
<path class="st10" d="M32.7,3.9c2.8-0.3,4.5,4.3,4.5,4.3s2.4-0.8,2.2-1.4c0,0-0.7-1.4-0.8-1.9s-0.4-2.2-0.5-2.4S37.7,1.8,34,2.4
	s-4.3,1.7-4.3,1.9c0,0.3,0.8,2.1,0.8,2.5c0,0.2,0.1,0.4,0.1,0.7L32.7,3.9z"/>
<path class="st9" d="M28.5,45l-2,1.7l6.8-0.9l2-0.2c0,0,1-0.3,0.7-2c-0.3-1.7-4.1,0-4.1,0L28.5,45z"/>
<path class="st11" d="M25.2,47l5.6-1.5c3.7-3.5,3-10.5,3-10.5c4.7-0.7,6.3-10.8,6.3-10.8s0.5-2.7,3.3-2.2c2.8,0.4,2.5-1.2,2.5-1.2
	s-2-0.4,0.3-0.6s2.8-3,2.8-3c-0.8-0.2-0.2-3.6-0.2-3.6c-3.4-4.3-6.6-5.5-8.7-5.7c-1.7-0.1-2.7,0.3-2.7,0.3s-2.3-4.8-4.6-4.3
	s-2.5,6.8-2.5,6.8c-5,6-7.4,6.8-7.4,6.8S14.7,15.1,9.5,27s6.3,18.2,6.3,18.2C16.3,48.1,25.1,46.9,25.2,47z"/>
<path class="st12" d="M33.1,12.6c0,0-1.3-6.6,0.4-6.5s2.8,4,2.8,4L33.1,12.6z"/>
<path class="st10" d="M48.8,17.2c3.1-1.7-0.2-3.6-0.2-3.6C47.7,16,48.8,17.2,48.8,17.2z"/>
<path class="st13" d="M10.5,27.2c-4.4,10.5,6.2,17.2,6.2,17.2c1.8,1.4,1.2,2.1,1.2,2.1C1.1,52.7-0.3,28.9,0.1,20.4
	c0.1-2,2.1-8.1,3-9.7C6.1,5.5,16.5-3.6,25,0.8c11,5.7-5.8,16.6-5.8,16.6C12.1,20.3,10.4,27.3,10.5,27.2z"/>
<path class="st14" d="M42.5,10.6c1.4,0.4,2.2,1.5,1.9,2.5s-1.7,1.5-3,1.1c-1.4-0.4-2.2-1.5-1.9-2.5S41.2,10.3,42.5,10.6z"/>
<path class="st10" d="M42.4,11.1c1.1,0.3,1.8,1.3,1.5,2s-1.3,1.1-2.4,0.8s-1.8-1.2-1.5-2C40.3,11.1,41.3,10.7,42.4,11.1z"/>
<ellipse transform="matrix(0.2921 -0.9564 0.9564 0.2921 18.3014 49.9015)" class="st14" cx="42.9" cy="12.6" rx="0.4" ry="0.5"/>
<path class="st15" d="M39.2,6.2L39.4,7L39,7.5l-2,0.3l-0.5-1.1C37.2,6.8,39.1,6,39.1,6L39.2,6.2z"/>
<path class="st16" d="M19.6,37.1c16.6-8.5,8.7,9,8.7,9"/>
<g>
	<path class="st10" d="M30.4,8.7c-0.3,0-0.7-0.2-0.7-0.2c-0.5-0.6-0.3-0.8-0.3-0.8s0.2,0.1,1.2-0.5"/>
	<path class="st10" d="M40.5,8c0.5-0.3,0.8-0.7,0.7-1.2c-0.4-1-2.1-1.1-2.1-1.1c1.2,2.3-2,1.9-2,1.9C37.3,8.9,40.5,8,40.5,8"/>
</g>
<path class="st14" d="M45.7,20.2l1,0.4l0.2-0.6C46.7,20.2,45.7,20.2,45.7,20.2z"/>
<path class="st11" d="M27.2,46.3c7.1,0.8,2,3.1,2,3.1s-8.1-0.3-10.3-0.3s-0.6-1.6-0.6-1.6C19.2,46.7,27.2,46.2,27.2,46.3z"/>
<path class="st17" d="M43.3,31.4l0.9,0.4c0,0,7.7,2,5.8-1.9c-1.9-3.8-7.6-2.7-7.6-2.7s-4.1-1.3-3.7-2.4c0.4-1.1-1.1-3.3-1.1-3.3
	S33.5,17.3,29,20s-0.2,7.9-0.2,7.9C32.6,33.2,43.2,31.5,43.3,31.4z"/>
<path class="st9" d="M87.2,30.7c2.7,0.3,9.3-2.1,12-3.1c0.8-0.3,1.1-1.2,0.6-1.7l-0.7-0.7c-1.6-1.8-6.7-0.5-6.7-0.5l-2.3-1.8"/>
<path class="st10" d="M82.5,3.9C85.3,3.6,87,8.2,87,8.2s2.4-0.8,2.2-1.4c0,0-0.6-1.5-0.8-1.9c-0.1-0.5-0.4-2.2-0.5-2.4
	s-0.3-0.8-4.1-0.1c-3.7,0.6-4.3,1.7-4.3,1.9c0,0.3,0.8,2.1,0.8,2.5c0,0.2,0.1,0.4,0.1,0.7L82.5,3.9z"/>
<path class="st9" d="M78.4,45l-2,1.7l6.8-0.9l2-0.2c0,0,1-0.3,0.7-2c-0.3-1.7-4.1,0-4.1,0L78.4,45z"/>
<path class="st11" d="M75,47l5.6-1.5c3.7-3.5,3-10.5,3-10.5c4.7-0.7,6.3-10.8,6.3-10.8s0.5-2.7,3.3-2.2c2.8,0.4,2.5-1.2,2.5-1.2
	s-2-0.4,0.3-0.6s2.8-3,2.8-3c-0.8-0.2-0.2-3.6-0.2-3.6c-3.4-4.3-6.6-5.5-8.7-5.7c-1.7-0.1-2.7,0.3-2.7,0.3s-2.3-4.8-4.6-4.3
	s-2.5,6.8-2.5,6.8c-5,6-7.4,6.8-7.4,6.8s-8.2-2.4-13.4,9.5s6.3,18.2,6.3,18.2C66.1,48.1,75,46.9,75,47z"/>
<path class="st12" d="M83,12.6c0,0-1.3-6.7,0.4-6.5c1.7,0.1,2.8,4,2.8,4L83,12.6z"/>
<path class="st10" d="M98.6,17.2c3.1-1.7-0.2-3.6-0.2-3.6C97.5,16,98.7,17.2,98.6,17.2z"/>
<path class="st22" d="M60.9,27.6C56.8,37.8,67,44.4,67,44.4c1.8,1.4,1.2,2.1,1.2,2.1C52.1,52.6,50.6,29.3,51,21c0.1-2,2-7.9,2.9-9.5
	c2.9-5.1,12.9-14,21.2-9.7C85.7,7.4,69.5,18,69.5,18C62.7,20.8,61,27.7,60.9,27.6z"/>
<path class="st14" d="M92.4,10.6c1.4,0.4,2.2,1.5,1.9,2.5s-1.7,1.5-3,1.1c-1.4-0.4-2.2-1.5-1.9-2.5C89.7,10.7,91,10.3,92.4,10.6z"/>
<path class="st10" d="M92.2,11.1c1.1,0.3,1.8,1.3,1.5,2s-1.3,1.1-2.4,0.8s-1.8-1.2-1.5-2C90.1,11.1,91.2,10.7,92.2,11.1z"/>
<ellipse transform="matrix(0.2921 -0.9564 0.9564 0.2921 53.6046 97.6372)" class="st14" cx="92.8" cy="12.6" rx="0.4" ry="0.5"/>
<path class="st15" d="M89,6.2L89.2,7l-0.4,0.5l-2,0.3l-0.5-1.1C87,6.8,88.9,6,88.9,6L89,6.2z"/>
<path class="st16" d="M69.4,37.1c16.6-8.5,8.7,9,8.7,9"/>
<g>
	<path class="st10" d="M80.2,8.7c-0.3,0-0.7-0.2-0.7-0.2c-0.5-0.6-0.3-0.8-0.3-0.8s0.2,0.1,1.2-0.5"/>
	<path class="st10" d="M90.3,8c0.5-0.3,0.9-0.7,0.7-1.2c-0.4-1-2.1-1.1-2.1-1.1c1.2,2.3-2,1.9-2,1.9C87.1,8.9,90.3,8,90.3,8"/>
</g>
<path class="st14" d="M95.5,20.2l1,0.4l0.2-0.6C96.6,20.2,95.5,20.2,95.5,20.2z"/>
<path class="st11" d="M78.7,46.4c6.6,2.9,1,3.6,1,3.6s-7.7-2.6-9.8-3.2c-2-0.7-0.1-1.7-0.1-1.7C70.9,44.6,78.7,46.4,78.7,46.4z"/>
<path class="st17" d="M93.1,31.4l0.9,0.4c0,0,7.7,2,5.8-1.9c-1.9-3.8-7.6-2.7-7.6-2.7s-4.1-1.3-3.7-2.4c0.4-1.1-1.1-3.3-1.1-3.3
	s-4.1-4.2-8.6-1.5s-0.2,7.9-0.2,7.9C82.4,33.2,93.1,31.5,93.1,31.4z"/>
<path class="st9" d="M187.3,29.8c2.7,0.3,9.3-2.1,12-3.1c0.8-0.3,1.1-1.2,0.6-1.7l-0.7-0.7c-1.6-1.8-6.7-0.5-6.7-0.5l-2.3-1.8"/>
<path class="st10" d="M182.6,4c2.9,0,4.1,4.8,4.1,4.8s2.5-0.6,2.4-1.2c0,0-0.5-1.5-0.6-2c-0.2-0.4-0.2-2.3-0.3-2.4s-0.3-0.7-4.1-0.5
	s-4.5,1.2-4.5,1.4c0,0.2,0.6,2.1,0.6,2.5c0,0.2,0,0.4,0,0.7L182.6,4z"/>
<path class="st9" d="M182.9,42.3l-2,1.7l6.8-0.9l2-0.2c0,0,1-0.3,0.7-2s-4.1,0-4.1,0L182.9,42.3z"/>
<path class="st11" d="M174.9,47.3l5.6-1.5c3.7-3.5,3-10.5,3-10.5c4.7-0.7,6.3-10.8,6.3-10.8s0.5-2.7,3.3-2.2
	c2.8,0.4,2.5-1.2,2.5-1.2s-2-0.4,0.3-0.6s2.8-3,2.8-3c-0.8-0.2-0.2-3.6-0.2-3.6c-3.4-4.3-6.6-5.5-8.7-5.7c-1.7-0.1-2.7,0.3-2.7,0.3
	s-2.3-4.8-4.6-4.3S180,11,180,11c-4.7,6.2-7.4,6.8-7.4,6.8s-8.2-2.4-13.4,9.5s7.3,16.9,7.3,16.9C167.5,45.6,175,47.1,174.9,47.3z"/>
<path class="st12" d="M183,12.9c0,0-1.3-6.7,0.4-6.5c1.7,0.1,2.8,4,2.8,4L183,12.9z"/>
<path class="st10" d="M198.7,17.5c3.1-1.7-0.2-3.6-0.2-3.6C197.5,16.3,198.7,17.5,198.7,17.5z"/>
<path class="st23" d="M160.3,28c-4.3,10.3,5.3,15.5,5.3,15.5c1.8,1.4,2,1.4,2,1.4C150.8,51,149.5,29.7,150,21.4c0.1-2,2.1-9,3-10.6
	c3-5.1,13.4-13,21.9-8.7c11,5.5-5.8,16.2-5.8,16.2C162.1,21.1,160.3,28.1,160.3,28z"/>
<path class="st14" d="M192.4,10.9c1.4,0.4,2.2,1.5,1.9,2.5s-1.7,1.5-3,1.1c-1.4-0.4-2.2-1.5-1.9-2.5S191,10.5,192.4,10.9z"/>
<path class="st10" d="M192.3,11.4c1.1,0.3,1.8,1.3,1.5,2s-1.3,1.1-2.4,0.8s-1.8-1.2-1.5-2C190.1,11.4,191.2,11,192.3,11.4z"/>
<ellipse transform="matrix(0.2921 -0.9564 0.9564 0.2921 123.249 193.6801)" class="st14" cx="192.5" cy="13.6" rx="0.4" ry="0.5"/>
<path class="st15" d="M189,7l0,0.8l-0.4,0.4l-2,0.1l-0.4-1.1c0.6,0.1,2.6-0.5,2.6-0.5L189,7z"/>
<path class="st16" d="M169.4,37.4c17.5-7,8.7,9,8.7,9"/>
<g>
	<path class="st10" d="M180,8.5c-0.3-0.1-0.7-0.3-0.7-0.3c-0.5-0.6-0.3-0.8-0.3-0.8s0.2,0.1,1.3-0.4"/>
	<path class="st10" d="M190,8.8c0.5-0.2,1-0.6,0.9-1c-0.3-1.1-2-1.4-2-1.4c1,2.4-2.2,1.6-2.2,1.6C186.8,9.3,190,8.8,190,8.8"/>
</g>
<path class="st14" d="M195.5,20.4l1,0.4l0.2-0.6C196.6,20.4,195.5,20.4,195.5,20.4z"/>
<path class="st11" d="M177.5,46.3C183.6,50,178,50,178,50s-7.3-3.6-9.3-4.5s0.1-1.7,0.1-1.7C169.9,43.4,177.4,46.3,177.5,46.3z"/>
<path class="st17" d="M191.9,34.2l0.8,0.5c0,0,7.1,3.3,6-0.8c-1.1-4.2-6.9-4.1-6.9-4.1s-3.8-2.1-3.2-3.1s-0.4-3.5-0.4-3.5
	s-3.2-5-8.1-3.1c-4.9,1.9-1.7,7.8-1.7,7.8C181.2,33.8,192,34.2,191.9,34.2z"/>
<path class="st0" d="M137.2,30.9c2.7,0.3,9.1-2.1,11.8-3.1c0.8-0.3,1.1-1.2,0.6-1.7l-0.7-0.7c-1.5-1.8-6.5-0.5-6.5-0.5l-2.2-1.8"/>
<path class="st1" d="M132.6,4.2c2.8-0.3,4.5,4.3,4.5,4.3s2.4-0.8,2.2-1.4c0,0-0.6-1.4-0.8-1.9S138.2,3,138,2.8s-0.4-0.8-4.1-0.1
	c-3.7,0.6-4.2,1.6-4.2,1.9s0.8,2.1,0.8,2.5c0,0.2,0.1,0.4,0.1,0.7L132.6,4.2z"/>
<path class="st0" d="M128.6,45.2l-2,1.7l6.7-0.9l2-0.2c0,0,1-0.3,0.7-2s-4,0-4,0L128.6,45.2z"/>
<path class="st2" d="M125.4,47.2l5.5-1.5c3.6-3.5,2.9-10.5,2.9-10.5c4.5-0.7,6.1-10.8,6.1-10.8s0.5-2.7,3.2-2.2
	c2.7,0.4,2.4-1.2,2.4-1.2s-2-0.4,0.3-0.6c2.2-0.2,2.7-3,2.7-3c-0.8-0.2-0.2-3.6-0.2-3.6c-3.3-4.3-6.4-5.5-8.5-5.7
	c-1.6-0.1-2.6,0.3-2.6,0.3s-2.4-5.4-4.5-4.3c-2.2,1.1-2.5,6.8-2.5,6.8c-4.8,6-7.2,6.8-7.2,6.8s-8-2.4-13.1,9.5s7.6,14.6,7.6,14.6
	C118.4,44.8,125.3,47.1,125.4,47.2z"/>
<path class="st3" d="M133.2,12.9c0,0-1.3-6.7,0.4-6.5c1.6,0.1,2.7,4,2.7,4L133.2,12.9z"/>
<path class="st1" d="M148.5,17c3-1.7-0.2-3.6-0.2-3.6C147.4,15.8,148.5,17,148.5,17z"/>
<path class="st4" d="M110.9,27.5C106.6,38,116,40.7,116,40.7c1.8,1.4,2,2,2,2c-16.4,6.2-17.7-13.5-17.3-22c0.1-2,2-8.1,2.9-9.7
	c2.9-5.2,13.1-14.3,21.5-9.9c10.8,5.7-5.7,16.6-5.7,16.6C112.6,20.5,110.8,27.6,110.9,27.5z"/>
<ellipse transform="matrix(0.2975 -0.9547 0.9547 0.2975 87.478 144.2938)" class="st5" cx="141.8" cy="12.7" rx="1.9" ry="2.5"/>
<ellipse transform="matrix(0.2975 -0.9547 0.9547 0.2975 87.478 144.2938)" class="st1" cx="141.8" cy="12.7" rx="1.5" ry="2"/>
<ellipse transform="matrix(0.2975 -0.9547 0.9547 0.2975 88.0274 145.2151)" class="st5" cx="142.7" cy="12.8" rx="0.4" ry="0.5"/>
<path class="st6" d="M139.2,6.5l0.2,0.8L139,7.8l-2,0.3L136.5,7c0.6,0.1,2.5-0.7,2.5-0.7L139.2,6.5z"/>
<path class="st7" d="M119.8,37.4c16.3-8.5,8.6,9,8.6,9"/>
<g>
	<path class="st1" d="M130.5,9c-0.3,0-0.7-0.2-0.7-0.2c-0.5-0.6-0.3-0.8-0.3-0.8s0.2,0.1,1.2-0.5"/>
	<path class="st1" d="M140.3,8.3c0.5-0.3,0.9-0.7,0.8-1.2C140.7,6.1,139,6,139,6c1.2,2.3-2,1.9-2,1.9C137.2,9.2,140.3,8.3,140.3,8.3
		"/>
</g>
<path class="st5" d="M145.4,20.4l1,0.4l0.2-0.6C146.5,20.4,145.4,20.4,145.4,20.4z"/>
<path class="st2" d="M126.2,45.6c5,5.1-0.4,3.7-0.4,3.7s-6.1-5.3-7.7-6.6c-1.7-1.4,0.5-1.6,0.5-1.6C119.8,41,126.1,45.7,126.2,45.6z
	"/>
<path class="st19" d="M142.2,31.8l0.8,0.4c0,0,7,2.2,5.4-1.7s-7-2.9-7-2.9s-3.8-1.4-3.4-2.5c0.4-1.1-0.9-3.3-0.9-3.3s-3.8-4.3-8-1.7
	c-4.2,2.6-0.3,7.8-0.3,7.8C132.2,33.2,142.2,31.9,142.2,31.8z"/>
</svg>
