<?xml version="1.0" encoding="utf-8"?>
<!-- Generator: Adobe Illustrator 19.2.1, SVG Export Plug-In . SVG Version: 6.00 Build 0)  -->
<svg version="1.1" xmlns="http://www.w3.org/2000/svg" xmlns:xlink="http://www.w3.org/1999/xlink" x="0px" y="0px"
	 viewBox="0 0 200 50.3" style="enable-background:new 0 0 200 50.3;" xml:space="preserve">
<style type="text/css">
	.st0{fill:#935932;}
	.st1{fill:#464656;stroke:#943100;stroke-miterlimit:10;}
	.st2{fill:#FFA63F;}
	.st3{fill:#F7B777;}
	.st4{fill:#EA9250;}
	.st5{fill:#464656;}
	.st6{fill:#3A3A49;}
	.st7{fill:#7C340F;}
	.st8{fill:#8C4015;}
	.st9{fill:#FFFFFF;}
	.st10{fill:#943100;}
	.st11{fill:#3D3D4C;}
	.st12{fill:#C48756;}
	.st13{fill:#FFA63F;stroke:#C48756;stroke-width:2;stroke-miterlimit:10;}
	.st14{opacity:0.87;fill:#BA794D;}
	.st15{display:none;}
	.st16{display:inline;fill:#9A6D50;}
	.st17{display:inline;}
	.st18{fill:#784E38;}
	.st19{fill:#B57E47;}
</style>
<g id="Layer_1">
	<g>
		<path class="st0" d="M189.2,25.4l1.5,2.2c0,0,4.1-0.4,5.1,1.7l0.4,0.8c0.3,0.6,0,1.4-0.7,1.5c-2.3,0.5-7.7,1.8-9.9,1"/>
		<path class="st0" d="M182.5,42.9c0,0,3.5-1.8,3.8-0.6c0.4,1.3-0.6,1.6-0.6,1.6l-1.9,0.5l-6.4,1.7l1.8-1.6L182.5,42.9z"/>
		<g>
			<path class="st1" d="M190.2,7.9c0,0,1.6,0.3,1.9,1.4c0.2,1.1-2.7,1.5-2.7,1.5s-5.6,1.1-6.8,0.8c-1.2-0.3-1.6,0-2-0.6
				c-0.4-0.6-0.2-0.8-0.2-0.8s0.6-1.1,1.6-1.5"/>
			<path class="st1" d="M190.5,9c0,0-0.4-1.6-0.5-2c-0.1-0.5-0.1-2.3-0.2-2.4s-0.3-0.8-3.9-0.6c-3.7,0.1-4.3,1.1-4.4,1.3
				c0,0.2,0.5,2.1,0.5,2.5c0,0.4,0.1,2.2,0.1,2.2s0,0.5,0.5,0.4S190.7,10.5,190.5,9z"/>
		</g>
		<path class="st2" d="M163.3,44.6c0,0-9.9-8.4-3.5-19.6s13.8-7.7,13.8-7.7s2.4-0.5,7.8-5.8c0,0,1-6.2,3.3-6.4s3.8,4.9,3.8,4.9
			s1-0.3,2.5,0.1c2,0.5,4.8,2.1,7.4,6.8c0,0-1,3.3-0.3,3.6c0,0-0.8,2.7-3,2.6c-2.2-0.1-0.5,0.4-0.5,0.4s0.1,1.9-2.4,1
			c-2.5-0.9-3.4,1.8-3.4,1.8s-2.8,9.8-7.3,9.9c0,0-0.2,7-4.1,10l-5.4,0.7C171.9,46.8,163.4,47.6,163.3,44.6z"/>
		<path class="st3" d="M188.6,29c0,0-20.1-17-19.6,18h7.5l2.8-2l0.9-1C180.2,44,189,29.8,188.6,29z"/>
		<path class="st4" d="M187,11.8c0,0-0.5-4-2.1-4.4c-1.6-0.4-1.3,6.4-1.3,6.4L187,11.8z"/>
		<path class="st5" d="M198.2,17c0,0,2.9,2.3-0.3,3.6C198,20.5,197,19.2,198.2,17z"/>
		<path class="st6" d="M197.9,17c0,0,1.3,2.3-0.1,3.6C197.8,20.5,197.3,19.2,197.9,17z"/>
		<path class="st7" d="M168.7,17.4c0,0,16.8-8.5,7.4-15.6c-7.3-5.5-17.7,2.4-21.3,6.9c-1.1,1.4-1.8,2.9-2.4,4.6
			c-2.9,8-4.8,37.2,11.3,33.3c0,0,0.6-1.2-0.9-2.8c0,0-8.8-8-3.5-17.7C159.3,26,161.8,19.3,168.7,17.4z"/>
		<path class="st8" d="M168.7,17.4c0,0,16.8-8.5,7.4-15.6c-7.3-5.5-16.1,2.4-19.8,6.9c-1.1,1.4-2.3,2.9-2.9,4.6
			c-2.9,8-5.6,34.5,10.3,33.3c0,0,0.6-1.2-0.9-2.8c0,0-8.8-8-3.5-17.7C159.3,26,161.8,19.3,168.7,17.4z"/>
		<path class="st9" d="M189.9,13.9c-0.4,0.9,0.2,2.2,1.4,2.8c1.2,0.6,2.6,0.3,3-0.7c0.4-0.9-0.2-2.2-1.4-2.8
			C191.6,12.6,190.3,12.9,189.9,13.9z"/>
		<path class="st5" d="M190.3,14.1c-0.3,0.8,0.2,1.7,1.1,2.2c1,0.5,2,0.2,2.4-0.5c0.3-0.8-0.2-1.7-1.1-2.2
			C191.7,13.1,190.6,13.3,190.3,14.1z"/>
		<path class="st9" d="M192.5,14.9c-0.1,0.2,0,0.4,0.3,0.5s0.5,0.1,0.6-0.1c0.1-0.2,0-0.4-0.3-0.5S192.6,14.7,192.5,14.9z"/>
		<path class="st10" d="M190.2,8.1c0,0-1.7,0.6-2.3,0.4l0.5,1.5l1.6-0.4l0.4-0.4l-0.1-0.8L190.2,8.1z"/>
		<path class="st11" d="M191.4,10.2c0,0-2.2,0.2-2.9,0s1.3-0.8,1.3-0.8L191.4,10.2z"/>
		<path class="st12" d="M175.6,46.6c6.7,1.9,1.5,3.4,1.5,3.4s-7.7-1.5-9.8-1.8c-2-0.3-0.3-1.6-0.3-1.6"/>
		<path class="st13" d="M174.6,46.8c0,0,9.8-16.8-7.1-10.4"/>
		<path class="st12" d="M179.1,35.6c0,0-5.5-3.7-2.3-7.6c3.2-3.9,8.3-1,8.3-1s2,1.7,2,2.9c0,1.2,4.1,1.2,4.1,1.2s4.9-2.7,7.8,0.4
			c2.9,3.1-4.7,3.5-4.7,3.5l-0.9-0.1C193.5,34.8,184.2,39.4,179.1,35.6z"/>
		<polygon class="st2" points="168.2,38 167.1,46 174,46 		"/>
		<path class="st14" d="M189.8,36.7c0,0-13.3-5.6-13.4-7.6C176.4,29,177.8,37.8,189.8,36.7z"/>
	</g>
	<g>
		<path class="st0" d="M140.3,24l1.5,2.2c0,0,4.1-0.4,5.1,1.7l0.4,0.8c0.3,0.6,0,1.4-0.7,1.5c-2.3,0.5-7.7,1.8-9.9,1"/>
		<path class="st0" d="M119.3,45.9c0,0,3.9-0.2,3.7,1.1c-0.2,1.3-1.2,1.2-1.2,1.2l-1.9-0.4l-6.5-1.2l2.3-0.7L119.3,45.9z"/>
		<g>
			<path class="st1" d="M140,8.3c0,0,1.6,0.5,1.7,1.6c0.1,1.1-2.8,1.2-2.8,1.2s-5.7,0.5-6.9,0.1s-1.6-0.2-2-0.8S130,9.6,130,9.6
				s0.7-1,1.7-1.3"/>
			<path class="st1" d="M140.2,9.4c0,0-0.3-1.6-0.3-2.1c-0.1-0.5,0.1-2.3,0.1-2.4c-0.1-0.1-0.2-0.8-3.9-1c-3.7-0.2-4.4,0.7-4.5,0.9
				c-0.1,0.2,0.3,2.2,0.2,2.6c-0.1,0.4-0.1,2.2-0.1,2.2s0,0.5,0.5,0.5C132.6,10.1,140.3,11,140.2,9.4z"/>
		</g>
		<path class="st2" d="M113.2,44.6c0,0-9.9-8.7-3.5-20.1c6.4-11.4,13.8-7.9,13.8-7.9s2.4-0.5,7.8-5.9c0,0,1-6.4,3.3-6.6
			c2.2-0.2,3.8,5,3.8,5s1-0.3,2.5,0.1c2,0.5,4.8,2.1,7.4,7c0,0-1,3.4-0.3,3.7c0,0-0.8,2.8-3,2.6s-0.5,0.4-0.5,0.4s0.1,1.9-2.4,1
			c-2.5-0.9-3.4,1.8-3.4,1.8s-2.8,10-7.3,10.1c0,0-0.2,7.2-4.1,10.2l-5.4,0.7C121.8,46.9,113.3,47.7,113.2,44.6z"/>
		<path class="st3" d="M138.5,29c0,0-20.1-17-19.6,18h7.5l2.8-2l0.9-1C130.1,44,138.9,29.8,138.5,29z"/>
		<path class="st4" d="M136.4,11c0,0-0.5-4-2.1-4.4C132.7,6.2,133,13,133,13L136.4,11z"/>
		<g>
			<path class="st5" d="M147.8,17.1c0,0,3.2,1.8,0.4,3.6C148.1,20.6,147,19.5,147.8,17.1z"/>
			<path class="st6" d="M147.4,17.1c0,0,1.7,2,0.5,3.6C147.9,20.7,147.3,19.5,147.4,17.1z"/>
		</g>
		<g>
			<path class="st7" d="M118.5,18.1c0,0,16.8-8.3,7.4-15.2c-7.3-5.3-17.7,2.3-21.3,6.7c-1.1,1.3-1.8,2.8-2.4,4.5
				c-2.9,7.8-4.8,36.4,11.3,32.6c0,0,0.6-1.2-0.9-2.8c0,0-8.8-7.8-3.5-17.4C109.1,26.5,111.7,19.9,118.5,18.1z"/>
			<path class="st8" d="M118.5,18.1c0,0,16.8-8.3,7.4-15.2c-7.3-5.3-16.1,2.3-19.8,6.7c-1.1,1.3-2.3,2.8-2.9,4.5
				c-2.9,7.8-5.6,33.8,10.3,32.6c0,0,0.6-1.2-0.9-2.8c0,0-8.8-7.8-3.5-17.4C109.1,26.5,111.7,19.9,118.5,18.1z"/>
		</g>
		<path class="st9" d="M139.7,13.9c-0.4,0.9,0.2,2.2,1.4,2.8s2.6,0.3,3-0.7c0.4-0.9-0.2-2.2-1.4-2.8C141.5,12.7,140.1,13,139.7,13.9
			z"/>
		<path class="st5" d="M140.4,14.5c-0.3,0.8,0.2,1.7,1.1,2.2c1,0.5,2,0.2,2.4-0.5s-0.2-1.7-1.1-2.2
			C141.8,13.6,140.7,13.8,140.4,14.5z"/>
		<path class="st9" d="M142.4,15c-0.1,0.2,0,0.4,0.3,0.5s0.5,0.1,0.6-0.1c0.1-0.2,0-0.4-0.3-0.5S142.4,14.8,142.4,15z"/>
		<path class="st10" d="M140,8.2c0,0-1.7,0.6-2.3,0.4l0.5,1.5l1.6-0.4l0.4-0.4l-0.1-0.8L140,8.2z"/>
		<path class="st11" d="M141.2,10.3c0,0-2.2,0.2-2.9,0s1.3-0.8,1.3-0.8L141.2,10.3z"/>
		<path class="st12" d="M131,45.1c6.9-0.6,2.5,2.7,2.5,2.7s-7.8,1.3-9.8,1.7c-2,0.4-0.9-1.4-0.9-1.4"/>
		<path class="st13" d="M125.4,46.4c0,0,6.8-18.2-8.8-9"/>
		<polygon class="st2" points="118.2,38 116.9,46 124.4,46 		"/>
		<g>
			<path class="st12" d="M128.2,33.7c0,0-4.6-4.7-0.6-7.9s8.4,0.7,8.4,0.7s1.6,2.1,1.4,3.2c-0.3,1.1,3.8,2.1,3.8,2.1s5.3-1.7,7.5,2
				s-5.3,2.5-5.3,2.5l-0.9-0.3C142.4,36,132.4,38.6,128.2,33.7z"/>
			<path class="st14" d="M140.1,36.4c0,0-13.7-4.3-14.1-6.3C126,30,128.3,38.7,140.1,36.4z"/>
		</g>
	</g>
	<g>
		<path class="st0" d="M39.7,24l1.5,2.2c0,0,4.1-0.4,5.1,1.7l0.4,0.9c0.3,0.6,0,1.4-0.7,1.6c-2.3,0.5-7.7,1.8-9.9,1"/>
		<path class="st0" d="M18.8,46.3c0,0,3.9-0.2,3.7,1.1s-1.2,1.3-1.2,1.3l-1.9-0.4l-6.5-1.2l2.3-0.7L18.8,46.3z"/>
		<g>
			<path class="st1" d="M40.5,8c0,0,1.6,0.5,1.7,1.6c0.1,1.1-2.8,1.3-2.8,1.3s-5.7,0.5-6.9,0.1c-1.2-0.4-1.6-0.2-2-0.8
				c-0.4-0.7-0.1-0.9-0.1-0.9s0.7-1,1.7-1.4"/>
			<path class="st1" d="M40.7,9.1c0,0-0.3-1.6-0.3-2.1c-0.1-0.5,0.1-2.3,0.1-2.5s-0.2-0.8-3.9-1c-3.7-0.2-4.4,0.7-4.5,0.9
				c-0.1,0.2,0.3,2.2,0.2,2.6c-0.1,0.4-0.1,2.2-0.1,2.2s0,0.5,0.5,0.5C33.1,9.8,40.8,10.7,40.7,9.1z"/>
		</g>
		<path class="st2" d="M12.6,45c0,0-9.9-8.8-3.5-20.5s13.8-8,13.8-8s2.4-0.5,7.8-6c0,0,1-6.5,3.3-6.7c2.2-0.2,3.8,5.1,3.8,5.1
			s1-0.3,2.5,0.1c2,0.5,4.8,2.2,7.4,7.1c0,0-1,3.5-0.3,3.7c0,0-0.8,2.8-3,2.7c-2.2-0.1-0.5,0.4-0.5,0.4s0.1,2-2.4,1.1
			c-2.5-0.9-3.4,1.9-3.4,1.9s-2.8,10.3-7.3,10.3c0,0-0.2,7.3-4.1,10.4l-5.4,0.7C21.2,47.3,12.7,48.1,12.6,45z"/>
		<path class="st3" d="M37.9,29.1c0,0-20.1-17.4-19.6,18.4h7.5l2.8-2l0.9-1C29.5,44.4,38.3,29.9,37.9,29.1z"/>
		<path class="st4" d="M35.8,10.7c0,0-0.5-4-2.1-4.4c-1.6-0.4-1.3,6.5-1.3,6.5L35.8,10.7z"/>
		<g>
			<path class="st5" d="M47.2,16.9c0,0,3.2,1.8,0.4,3.6C47.5,20.6,46.4,19.4,47.2,16.9z"/>
			<path class="st6" d="M46.8,17c0,0,1.7,2.1,0.5,3.6C47.4,20.6,46.7,19.3,46.8,17z"/>
		</g>
		<g>
			<path class="st7" d="M17.9,17.9c0,0,16.8-8.5,7.4-15.5C18.1-3.1,7.7,4.8,4,9.3c-1.1,1.4-1.8,2.9-2.4,4.5
				c-2.9,8-4.8,37.2,11.3,33.3c0,0,0.6-1.2-0.9-2.8c0,0-8.8-8-3.5-17.7C8.6,26.6,11.1,19.8,17.9,17.9z"/>
			<path class="st8" d="M17.9,17.9c0,0,16.8-8.5,7.4-15.5C18.1-3.1,9.2,4.8,5.6,9.3c-1.1,1.4-2.3,2.9-2.9,4.5
				c-2.9,8-5.6,34.5,10.3,33.3c0,0,0.6-1.2-0.9-2.8c0,0-8.8-8-3.5-17.7C8.6,26.6,11.1,19.8,17.9,17.9z"/>
		</g>
		<path class="st9" d="M39.1,13.7c-0.4,1,0.2,2.2,1.4,2.8c1.2,0.6,2.6,0.3,3-0.7s-0.2-2.2-1.4-2.8C40.9,12.4,39.5,12.7,39.1,13.7z"
			/>
		<path class="st5" d="M39.2,13.9c-0.3,0.8,0.2,1.8,1.1,2.3c1,0.5,2,0.2,2.4-0.5c0.3-0.8-0.2-1.8-1.1-2.3
			C40.6,12.9,39.6,13.1,39.2,13.9z"/>
		<path class="st9" d="M41.8,14.8c-0.1,0.2,0,0.4,0.3,0.6s0.5,0.1,0.6-0.1s0-0.4-0.3-0.6C42.1,14.5,41.9,14.6,41.8,14.8z"/>
		<path class="st10" d="M40.6,7.8c0,0-1.7,0.6-2.3,0.4l0.5,1.6l1.6-0.4l0.4-0.4l-0.1-0.8L40.6,7.8z"/>
		<path class="st11" d="M40.6,10c0,0-2.2,0.2-2.9,0C36.9,9.7,39,9.1,39,9.1L40.6,10z"/>
		<path class="st12" d="M30.4,45.5c6.9-0.6,2.5,2.7,2.5,2.7s-7.8,1.3-9.8,1.7c-2,0.4-0.9-1.4-0.9-1.4"/>
		<path class="st13" d="M24.8,46.8c0,0,6.8-18.6-8.8-9.2"/>
		<polygon class="st2" points="17.6,38.3 16.3,46.4 23.8,46.4 		"/>
		<g>
			<path class="st12" d="M27.6,33.9c0,0-4.6-4.8-0.6-8.1s8.4,0.7,8.4,0.7s1.6,2.1,1.4,3.3C36.4,31,40.4,32,40.4,32s5.3-1.7,7.5,2
				s-5.3,2.5-5.3,2.5l-0.9-0.3C41.8,36.2,31.8,38.9,27.6,33.9z"/>
			<path class="st14" d="M39.5,36.6c0,0-13.7-4.4-14.1-6.5C25.4,30.1,27.8,39,39.5,36.6z"/>
		</g>
	</g>
	<g>
		<path class="st0" d="M89.2,25.4l1.5,2.2c0,0,4.1-0.4,5.1,1.7l0.4,0.8c0.3,0.6,0,1.4-0.7,1.5c-2.3,0.5-7.7,1.8-9.9,1"/>
		<path class="st0" d="M77.9,45.2c0,0,3.5-1.8,3.8-0.6c0.4,1.3-0.6,1.6-0.6,1.6l-1.9,0.5l-6.4,1.7l1.8-1.6L77.9,45.2z"/>
		<g>
			<path class="st1" d="M90.2,7.9c0,0,1.6,0.3,1.9,1.4s-2.7,1.5-2.7,1.5s-5.6,1.1-6.8,0.8c-1.2-0.3-1.6,0-2-0.6s-0.2-0.8-0.2-0.8
				s0.6-1.1,1.6-1.5"/>
			<path class="st1" d="M90.5,8.9c0,0-0.4-1.6-0.5-2c-0.1-0.5-0.1-2.3-0.2-2.4s-0.3-0.8-3.9-0.6s-4.3,1.1-4.4,1.3
				c0,0.2,0.5,2.1,0.5,2.5c0,0.4,0.1,2.2,0.1,2.2s0,0.5,0.5,0.4C83,10.3,90.7,10.4,90.5,8.9z"/>
		</g>
		<path class="st2" d="M63.3,44.6c0,0-9.9-8.4-3.5-19.6s13.8-7.7,13.8-7.7s2.4-0.5,7.8-5.8c0,0,1-6.2,3.3-6.4s3.8,4.9,3.8,4.9
			s1-0.3,2.5,0.1c2,0.5,4.8,2.1,7.4,6.8c0,0-1,3.3-0.3,3.6c0,0-0.8,2.7-3,2.6c-2.2-0.1-0.5,0.4-0.5,0.4s0.1,1.9-2.4,1
			s-3.4,1.8-3.4,1.8s-2.8,9.8-7.3,9.9c0,0-0.2,7-4.1,10l-5.4,0.7C71.9,46.8,63.4,47.6,63.3,44.6z"/>
		<path class="st3" d="M88.6,28.9c0,0-20.1-17-19.6,18h7.5l2.8-2l0.9-1C80.2,43.9,89,29.8,88.6,28.9z"/>
		<path class="st4" d="M87,11.8c0,0-0.5-4-2.1-4.4c-1.6-0.4-1.3,6.4-1.3,6.4L87,11.8z"/>
		<path class="st5" d="M98.2,16.9c0,0,2.9,2.3-0.3,3.6C98,20.5,97,19.2,98.2,16.9z"/>
		<path class="st6" d="M97.9,16.9c0,0,1.3,2.3-0.1,3.6C97.8,20.5,97.3,19.2,97.9,16.9z"/>
		<path class="st7" d="M68.7,17.4c0,0,16.8-8.5,7.4-15.6c-7.3-5.5-17.7,2.4-21.3,6.9c-1.1,1.4-1.8,2.9-2.4,4.6
			c-2.9,8-4.8,37.2,11.3,33.3c0,0,0.6-1.2-0.9-2.8c0,0-8.8-8-3.5-17.7C59.3,26,61.8,19.3,68.7,17.4z"/>
		<path class="st8" d="M68.2,17.1c0,0,16.2-9.7,6.3-16C67-3.8,58.7,4.6,55.3,9.4c-1,1.4-2.1,3.1-2.6,4.7
			c-2.3,8.1-3.3,34.8,12.5,32.5c0,0,0.5-1.3-1-2.8c0,0-9.3-7.4-4.7-17.4C59.5,26.4,61.6,19.5,68.2,17.1z"/>
		<path class="st9" d="M89.9,13.8c-0.4,0.9,0.2,2.2,1.4,2.8c1.2,0.6,2.6,0.3,3-0.7c0.4-0.9-0.2-2.2-1.4-2.8
			C91.6,12.6,90.3,12.9,89.9,13.8z"/>
		<path class="st5" d="M90.3,14c-0.3,0.8,0.2,1.7,1.1,2.2c1,0.5,2,0.2,2.4-0.5c0.3-0.8-0.2-1.7-1.1-2.2C91.7,13,90.6,13.3,90.3,14z"
			/>
		<path class="st9" d="M92.5,14.9c-0.1,0.2,0,0.4,0.3,0.5c0.2,0.1,0.5,0.1,0.6-0.1s0-0.4-0.3-0.5S92.6,14.7,92.5,14.9z"/>
		<path class="st10" d="M90.2,8.1c0,0-1.7,0.6-2.3,0.4l0.5,1.5L90,9.6l0.4-0.4l-0.1-0.8L90.2,8.1z"/>
		<path class="st11" d="M91.4,10.2c0,0-2.2,0.2-2.9,0s1.3-0.8,1.3-0.8L91.4,10.2z"/>
		<path class="st12" d="M75.6,46.5c6.7,1.9,1.5,3.4,1.5,3.4s-7.7-1.5-9.8-1.8c-2-0.3-0.3-1.6-0.3-1.6"/>
		<path class="st13" d="M74.6,46.7c0,0,9.8-16.8-7.1-10.4"/>
		<polygon class="st2" points="68.2,37.9 67.1,45.9 73.9,45.9 		"/>
		<g>
			<path class="st12" d="M78.9,29.7c0,0-2.3-6.2,2.6-7.5c4.9-1.3,7.4,4.1,7.4,4.1s0.7,2.6,0,3.5s2.6,3.4,2.6,3.4s5.6,0.7,6.1,4.9
				s-5.9,0.1-5.9,0.1l-0.7-0.6C91.1,37.5,80.8,35.9,78.9,29.7z"/>
			<path class="st14" d="M89.6,36.9c0,0-12-7.9-11.8-10C77.9,26.9,77.7,35.8,89.6,36.9z"/>
		</g>
	</g>
</g>
<g id="Layer_2" class="st15">
	<path class="st16" d="M1191-680c0,0,14,82,14,108S1221-662,1191-680z"/>
	<g class="st17">
		<path class="st18" d="M3.8,22.3c0,0-0.6,19.1,11.6,23.9s6.7,1.4,9.9,3.8c0,0,2.5-1.8,4.2-2.1c0,0,15.1-4.8,16.2-18.7
			c0,0,1-5.8,0-8.4C45.6,20.9,32.1,23.7,3.8,22.3z"/>
		<path class="st19" d="M22.9,11c0,0,1-4.6-0.1-6.8c-1.2-2.2-0.6-3.8,2.1-3.8s4,0.5,4.2,2.1s-1.6,3.7-1.5,5.8
			c0.1,2.1,1.5,3.2,1.5,3.2l1.5-0.4c0,0,15.3-0.4,16.6,5.4c0,0,3.7,2.2,1.8,4.5c0,0,0,2.2-0.4,2.6c-0.4,0.4-0.7,3-1.8,3.2
			s-1,0.1-1,0.1s-9.3,2.8-16.6,2.6c-7.3-0.1-22.1,0-25.2-1.3s-1.9-3-1.9-3s-2.7-3.9-1.6-4.2c0,0,0.3-3.4,1.2-3.6c0,0,0.6-3,4-3.3
			c0,0,2.1-2.2,4.3-2.2S19.2,10.6,22.9,11z"/>
		<path class="st18" d="M22.9,11c0,0,0.8,3.3,6.1,0.4"/>
		<path class="st19" d="M23.5,11c0,0,2.1,1.6,3.9,0"/>
	</g>
	<g class="st17">
		<path class="st18" d="M56.7,37.1c0,0,12.2,14.7,24.7,10s6-3.5,10.1-3.8c0,0,0.7-3,1.8-4.4c0,0,8.4-13.8,0-24.9c0,0-3-5-5.5-6.3
			C87.7,7.7,79.2,18.9,56.7,37.1z"/>
		<path class="st19" d="M63.8,15.7c0,0-2.3-4.1-4.6-5s-3-2.5-0.9-4.3s3.4-2.3,4.6-1.2S64,9,65.5,10.5c1.5,1.5,3.2,1.4,3.2,1.4
			l0.9-1.3c0,0,11.4-10.6,16.3-7.2c0,0,4.3-0.8,4.3,2.1c0,0,1.5,1.7,1.4,2.3c-0.1,0.6,1.4,2.8,0.7,3.6c-0.7,0.8-0.7,0.8-0.7,0.8
			s-5.3,8.4-10.9,13.2c-5.6,4.8-16.9,15-20.1,16.1c-3.3,1.1-3.5-1-3.5-1s-4.7-1.1-4-2c0,0-2-2.8-1.4-3.5c0,0-1.6-2.7,0.9-5.2
			c0,0,0.1-3.1,1.8-4.6C56,23.7,60.7,17.9,63.8,15.7z"/>
		<path class="st18" d="M63.8,15.7c0,0,2.8,2,4.9-3.8"/>
		<path class="st19" d="M64.3,15.3c0,0,2.7-0.3,3-2.7"/>
	</g>
	<g class="st17">
		<path class="st18" d="M122.5,46.5c0,0,19.1,0.3,23.7-12.2s1.3-6.8,3.7-10.2c0,0-1.8-2.5-2.1-4.2c0,0-5.1-15.4-18.9-16.2
			c0,0-5.8-1-8.4,0.1C120.4,3.9,123.4,17.6,122.5,46.5z"/>
		<path class="st19" d="M110.9,27.2c0,0-4.6-1-6.8,0.3c-2.2,1.2-3.8,0.7-3.8-2.1c0-2.7,0.5-4.1,2-4.3c1.6-0.2,3.7,1.6,5.8,1.4
			c2.1-0.2,3.1-1.6,3.1-1.6l-0.4-1.5c0,0-0.7-15.6,5.1-17c0,0,2.2-3.8,4.4-1.9c0,0,2.2,0,2.6,0.4c0.4,0.4,3,0.7,3.2,1.8
			c0.1,1.1,0.1,1.1,0.1,1.1s2.9,9.5,2.9,16.9c0,7.4,0.4,22.5-0.9,25.7c-1.3,3.2-3,2-3,2s-3.9,2.8-4.2,1.7c0,0-3.4-0.2-3.6-1.1
			c0,0-3-0.6-3.4-4c0,0-2.3-2.1-2.3-4.4C111.9,38.4,110.6,31,110.9,27.2z"/>
		<path class="st18" d="M110.9,27.2c0,0,3.3-0.9,0.3-6.2"/>
		<path class="st19" d="M110.9,26.6c0,0,1.5-2.2-0.1-4"/>
	</g>
	<g class="st17">
		<path class="st18" d="M189.2,42.2c0,0,13.8-13.2,8.3-25.3s-3.9-5.7-4.6-9.8c0,0-3.1-0.5-4.5-1.5c0,0-14.4-7.4-24.8,1.8
			c0,0-4.8,3.4-5.9,6C157.7,13.3,169.5,21,189.2,42.2z"/>
		<path class="st19" d="M167.3,36.6c0,0-4,2.5-4.7,5c-0.7,2.4-2.2,3.1-4.2,1.2c-1.9-1.9-2.5-3.2-1.6-4.5c1-1.2,3.8-1.5,5.1-3.1
			c1.4-1.6,1.1-3.3,1.1-3.3l-1.4-0.8c0,0-11.4-10.6-8.3-15.7c0,0-1.1-4.2,1.8-4.5c0,0,1.6-1.6,2.2-1.6s2.7-1.6,3.5-1
			c0.8,0.6,0.8,0.6,0.8,0.6s8.7,4.7,13.9,10s16.1,15.8,17.5,19c1.3,3.2-0.7,3.5-0.7,3.5s-0.8,4.7-1.8,4.2c0,0-2.6,2.2-3.4,1.7
			c0,0-2.5,1.7-5.2-0.5c0,0-3.1,0.1-4.7-1.5C175.9,43.9,169.8,39.5,167.3,36.6z"/>
		<path class="st18" d="M167.3,36.6c0,0,1.8-2.9-4.2-4.6"/>
		<path class="st19" d="M166.9,36.2c0,0-0.5-2.6-2.9-2.8"/>
	</g>
	<g class="st17">
		<path class="st18" d="M245.9,28.7c0,0,1.3-19-10.7-24.3c-12-5.3-6.6-1.6-9.8-4.2c0,0-2.6,1.7-4.2,1.9c0,0-15.3,4.2-16.9,18
			c0,0-1.3,5.7-0.3,8.4C204,28.5,217.6,26.3,245.9,28.7z"/>
		<path class="st19" d="M226.3,39.2c0,0-1.2,4.6-0.1,6.8c1.1,2.3,0.4,3.8-2.2,3.7c-2.7-0.1-4-0.7-4.1-2.3c-0.1-1.6,1.8-3.6,1.7-5.7
			c-0.1-2.1-1.4-3.2-1.4-3.2l-1.5,0.3c0,0-15.3-0.2-16.4-6c0,0-3.6-2.4-1.6-4.5c0,0,0.1-2.2,0.5-2.6c0.5-0.4,0.9-3,1.9-3.1
			c1-0.1,1-0.1,1-0.1s9.4-2.4,16.7-2s22.1,0.8,25.1,2.3c3.1,1.4,1.8,3.1,1.8,3.1s2.5,4,1.5,4.3c0,0-0.4,3.4-1.3,3.5
			c0,0-0.7,3-4.1,3.1c0,0-2.2,2.2-4.4,2.1S230,39.8,226.3,39.2z"/>
		<path class="st18" d="M226.3,39.2c0,0-0.7-3.4-6.1-0.6"/>
		<path class="st19" d="M225.8,39.3c0,0-2.1-1.6-3.9-0.1"/>
	</g>
	<g class="st17">
		<path class="st18" d="M292.5,11.9c0,0-13.1-13.9-25.2-8.5c-12.2,5.4-5.8,3.9-9.9,4.5c0,0-0.6,3.1-1.5,4.5c0,0-7.5,14.3,1.6,24.9
			c0,0,3.3,4.8,5.9,5.9C263.4,43.1,271.2,31.4,292.5,11.9z"/>
		<path class="st19" d="M286.7,33.6c0,0,2.5,4,5,4.7c2.4,0.7,3.1,2.3,1.2,4.2c-1.9,1.9-3.3,2.5-4.5,1.5c-1.2-1-1.4-3.8-3-5.2
			s-3.3-1.2-3.3-1.2l-0.8,1.4c0,0-10.7,11.3-15.8,8.2c0,0-4.3,1.1-4.4-1.9c0,0-1.6-1.6-1.5-2.2c0-0.6-1.6-2.7-1-3.5
			c0.7-0.8,0.7-0.8,0.7-0.8s4.8-8.7,10.1-13.9s15.9-16,19.1-17.3s3.5,0.7,3.5,0.7s4.7,0.9,4.2,1.8c0,0,2.2,2.6,1.7,3.4
			c0,0,1.7,2.6-0.6,5.2c0,0,0.1,3.1-1.5,4.7S289.7,31.2,286.7,33.6z"/>
		<path class="st18" d="M286.7,33.6c0,0-2.9-1.8-4.7,4.1"/>
		<path class="st19" d="M286.3,34.1c0,0-2.7,0.4-2.8,2.8"/>
	</g>
	<g class="st17">
		<path class="st18" d="M328.5,3.7c0,0-19-0.9-23.9,11.5c-4.9,12.3-1.5,6.8-4,10.1c0,0,1.7,2.6,2,4.3c0,0,4.6,15.5,18.4,16.7
			c0,0,5.7,1.1,8.3,0.1C329.3,46.4,326.7,32.6,328.5,3.7z"/>
		<path class="st19" d="M339.4,23.4c0,0,4.6,1.1,6.8-0.1c2.2-1.2,3.8-0.6,3.8,2.2c0,2.7-0.6,4.1-2.2,4.2c-1.6,0.1-3.6-1.7-5.7-1.6
			c-2.1,0.1-3.2,1.5-3.2,1.5l0.4,1.5c0,0,0.2,15.6-5.6,16.9c0,0-2.3,3.8-4.5,1.8c0,0-2.2,0-2.6-0.5s-3-0.8-3.1-1.9
			c-0.1-1.1-0.1-1.1-0.1-1.1s-2.6-9.6-2.4-17c0.2-7.4,0.3-22.5,1.6-25.7c1.4-3.2,3-1.9,3-1.9s4-2.7,4.2-1.6c0,0,3.4,0.3,3.5,1.3
			c0,0,3,0.6,3.2,4.1c0,0,2.2,2.1,2.2,4.4C338.8,12.2,339.9,19.6,339.4,23.4z"/>
		<path class="st18" d="M339.4,23.4c0,0-3.3,0.8-0.5,6.2"/>
		<path class="st19" d="M339.5,24c0,0-1.6,2.2-0.1,4"/>
	</g>
	<g class="st17">
		<path class="st18" d="M359.6,9.2c0,0-12.5,14.4-5.9,26c6.6,11.6,4.4,5.4,5.5,9.4c0,0,3.1,0.2,4.6,1.1c0,0,15,6,24.6-4.1
			c0,0,4.5-3.8,5.3-6.5C393.6,35.1,381.2,28.5,359.6,9.2z"/>
		<path class="st19" d="M381.8,12.8c0,0,3.7-2.9,4.2-5.4s1.9-3.3,4-1.6s2.8,3,2,4.3s-3.6,1.8-4.8,3.5s-0.8,3.4-0.8,3.4l1.4,0.6
			c0,0,12.4,9.5,9.8,14.9c0,0,1.5,4.1-1.4,4.6c0,0-1.4,1.7-2,1.8c-0.6,0-2.5,1.9-3.4,1.3c-0.9-0.6-0.9-0.6-0.9-0.6
			s-9.1-3.9-14.8-8.6s-17.5-14.2-19.1-17.2c-1.6-3,0.4-3.6,0.4-3.6s0.4-4.8,1.4-4.3c0,0,2.4-2.5,3.2-2c0,0,2.4-2,5.2,0
			c0,0,3.1-0.4,4.8,1C372.7,6.4,379.2,10.1,381.8,12.8z"/>
		<path class="st18" d="M381.8,12.8c0,0-1.5,3.1,4.6,4.2"/>
		<path class="st19" d="M382.3,13.1c0,0,0.7,2.6,3.1,2.5"/>
	</g>
</g>
</svg>
