<?xml version="1.0" encoding="utf-8"?>
<!-- Generator: Adobe Illustrator 19.2.1, SVG Export Plug-In . SVG Version: 6.00 Build 0)  -->
<svg version="1.1" id="Layer_1" xmlns="http://www.w3.org/2000/svg" xmlns:xlink="http://www.w3.org/1999/xlink" x="0px" y="0px"
	 viewBox="0 0 50 50" style="enable-background:new 0 0 50 50;" xml:space="preserve">
<style type="text/css">
	.st0{fill:#773B1D;stroke:#3F2A05;stroke-miterlimit:10;}
	.st1{fill:#3E801D;stroke:#0A350F;stroke-miterlimit:10;}
</style>
<path class="st0" d="M19.2,43v4.7c0,0,5.6,4.5,11.5,0v-5.5C30.8,42.2,25.8,43.2,19.2,43z"/>
<polygon class="st1" points="2.9,27 0,27.7 1.5,32.5 3.7,34.8 3.7,37.2 8.1,37.2 8.1,40.3 11.8,40.3 14,42.7 16.2,41.9 16.9,42.7 
	20.6,41.9 23.5,45 26.5,44.2 28.7,41.9 28.7,40.3 30.9,42.7 35.3,41.1 35.3,38.7 36.8,41.9 40.4,39.5 41.2,37.2 44.1,37.2 
	46.3,37.2 47.1,34 50,31.7 50,28.5 44.1,25.4 42.6,28.5 38.2,28.5 36.8,32.5 35.3,31.7 34.6,33.2 30.9,34 28.7,33.2 27.2,35.6 
	23.5,35.6 22.1,34 16.9,34 15.4,30.9 13.2,30.1 13.2,28.5 8.8,28.5 5.9,25.4 "/>
<line class="st1" x1="5.4" y1="30.9" x2="2.3" y2="34.8"/>
<line class="st1" x1="9.2" y1="34" x2="6.9" y2="37.2"/>
<polyline class="st1" points="15.4,37.2 13.1,38.7 13.1,42.7 "/>
<line class="st1" x1="20" y1="38" x2="20" y2="41.9"/>
<polyline class="st1" points="40.8,33.2 42.3,34.8 43.1,37.2 "/>
<polyline class="st1" points="43.8,31.7 46.2,32.5 47.7,34 "/>
<polygon class="st1" points="46.6,24.4 44.6,25.4 40.9,23.2 40.8,21 43,19.4 45.1,22.1 45.9,23.2 "/>
<polygon class="st1" points="42.9,23.6 45.4,24.2 44.2,28 42.3,29.8 42.3,31.7 38.7,31.7 38.7,34.2 35.6,34.2 33.8,36.1 31.9,35.5 
	31.3,36.1 28.3,35.5 25.8,38 23.4,37.3 21.6,35.5 21.6,34.2 19.7,36.1 16.1,34.8 16.1,33 14.8,35.5 11.8,33.6 11.2,31.7 8.7,31.7 
	6.9,31.7 6.3,29.2 3.8,27.4 3.8,24.9 8.7,22.4 10,24.9 13.6,24.9 14.8,28 16.1,27.4 16.7,28.6 19.7,29.2 21.6,28.6 22.8,30.5 
	25.8,30.5 27.1,29.2 31.3,29.2 32.6,26.7 34.4,26.1 34.4,24.9 38.1,24.9 40.5,22.4 "/>
<line class="st1" x1="39.9" y1="26.7" x2="42.3" y2="29.8"/>
<line class="st1" x1="36.8" y1="29.2" x2="38.7" y2="31.7"/>
<polyline class="st1" points="31.9,31.7 33.8,33 33.8,36.1 "/>
<line class="st1" x1="28.3" y1="32.3" x2="28.3" y2="35.5"/>
<polyline class="st1" points="11.8,28.6 10.6,29.8 10,31.7 "/>
<polyline class="st1" points="9.3,27.4 7.5,28 6.3,29.2 "/>
<polygon class="st1" points="8.6,19.6 6.5,20.2 7.6,23.4 9.2,25.1 9.2,26.7 12.4,26.7 12.4,28.9 15,28.9 16.6,30.5 18.2,30 
	18.8,30.5 21.4,30 23.5,32.1 25.7,31.6 27.3,30 27.3,28.9 28.9,30.5 32.1,29.4 32.1,27.8 33.1,30 35.8,28.3 36.3,26.7 38.5,26.7 
	40.1,26.7 40.6,24.5 42.7,22.9 42.7,20.7 38.5,18.5 37.4,20.7 34.2,20.7 33.1,23.4 32.1,22.9 31.5,24 28.9,24.5 27.3,24 26.2,25.6 
	23.5,25.6 22.5,24.5 18.8,24.5 17.7,22.3 16.1,21.8 16.1,20.7 12.9,20.7 10.8,18.5 "/>
<line class="st1" x1="11.3" y1="22.3" x2="9.2" y2="25.1"/>
<line class="st1" x1="14" y1="24.5" x2="12.4" y2="26.7"/>
<polyline class="st1" points="18.2,26.7 16.6,27.8 16.6,30.5 "/>
<line class="st1" x1="21.4" y1="27.2" x2="21.4" y2="30"/>
<polyline class="st1" points="35.8,24 36.9,25.1 37.4,26.7 "/>
<polyline class="st1" points="37.9,22.9 39.5,23.4 40.6,24.5 "/>
<polygon class="st1" points="39.9,17.8 38.5,18.5 35.9,17 35.8,15.5 37.4,14.4 38.8,16.2 39.3,17 "/>
<polygon class="st1" points="37.3,17.3 39,17.7 38.2,20.3 36.9,21.6 36.9,22.9 34.4,22.9 34.4,24.6 32.2,24.6 31,25.9 29.7,25.5 
	29.3,25.9 27.2,25.5 25.5,27.2 23.8,26.8 22.5,25.5 22.5,24.6 21.2,25.9 18.7,25.1 18.7,23.8 17.8,25.5 15.7,24.2 15.3,22.9 
	13.6,22.9 12.3,22.9 11.9,21.2 10.2,19.9 10.2,18.2 13.6,16.4 14.5,18.2 17,18.2 17.8,20.3 18.7,19.9 19.1,20.7 21.2,21.2 
	22.5,20.7 23.3,22 25.5,22 26.3,21.2 29.3,21.2 30.1,19.5 31.4,19 31.4,18.2 33.9,18.2 35.6,16.4 "/>
<line class="st1" x1="35.2" y1="19.5" x2="36.9" y2="21.6"/>
<line class="st1" x1="33.1" y1="21.2" x2="34.4" y2="22.9"/>
<polyline class="st1" points="29.7,22.9 31,23.8 31,25.9 "/>
<line class="st1" x1="27.2" y1="23.3" x2="27.2" y2="25.5"/>
<polyline class="st1" points="15.7,20.7 14.9,21.6 14.5,22.9 "/>
<polyline class="st1" points="14,19.9 12.8,20.3 11.9,21.2 "/>
<polygon class="st1" points="14.7,12.2 13.4,12.7 14.1,15.5 15.1,16.9 15.1,18.3 17,18.3 17,20.2 18.7,20.2 19.7,21.6 20.7,21.2 
	21,21.6 22.6,21.2 24,23 25.3,22.6 26.3,21.2 26.3,20.2 27.3,21.6 29.2,20.7 29.2,19.3 29.9,21.2 31.5,19.7 31.9,18.3 33.2,18.3 
	34.2,18.3 34.5,16.5 35.8,15 35.8,13.2 33.2,11.3 32.5,13.2 30.5,13.2 29.9,15.5 29.2,15 28.9,16 27.3,16.5 26.3,16 25.6,17.4 
	24,17.4 23.3,16.5 21,16.5 20.3,14.6 19.3,14.1 19.3,13.2 17.4,13.2 16.1,11.3 "/>
<line class="st1" x1="16.4" y1="14.6" x2="15.1" y2="16.9"/>
<line class="st1" x1="18" y1="16.5" x2="17" y2="18.3"/>
<polyline class="st1" points="20.7,18.3 19.7,19.3 19.7,21.6 "/>
<line class="st1" x1="22.6" y1="18.8" x2="22.6" y2="21.2"/>
<polyline class="st1" points="31.5,16 32.2,16.9 32.5,18.3 "/>
<polyline class="st1" points="32.8,15 33.8,15.5 34.5,16.5 "/>
<line class="st1" x1="29.8" y1="13.6" x2="30.6" y2="15.1"/>
<polyline class="st1" points="27.8,15.1 28.5,15.8 28.5,17.7 "/>
<polyline class="st1" points="19.1,13.2 18.6,13.9 18.3,15.1 "/>
<polygon class="st1" points="31.8,11.7 33.3,11.7 33.3,10.2 32.2,9.8 31.4,8.3 29.8,7.9 29.8,6 29.4,5 26.2,4.5 25.9,2.6 25.5,0.3 
	23.5,0.3 23.1,2.6 22.7,3.1 21.9,5 19.9,5 18.8,7.9 17.2,8.3 16.4,9.3 15.2,10.7 15.6,11.2 16.8,11.7 17.6,12.6 18.8,13.6 
	19.5,13.1 18.8,14.5 19.1,15.5 20.3,16 21.5,16 22.7,17.9 24.3,18.3 25.5,18.3 27,17.4 27.8,17.4 28.6,16 29.4,16 30.6,14 31,13.1 
	31.4,12.6 "/>
<line class="st1" x1="23.3" y1="16" x2="23.3" y2="14"/>
<line class="st1" x1="26" y1="16.4" x2="26" y2="14.5"/>
</svg>
